<svg xmlns="http://www.w3.org/2000/svg" xmlns:xlink="http://www.w3.org/1999/xlink" width="2520" zoomAndPan="magnify" viewBox="0 0 1440 547.92" height="720" preserveAspectRatio="xMidYMid meet" version="1.0"><defs><g/><clipPath id="01f182f936"><path d="M 0.105469 0 L 1439.894531 0 L 1439.894531 539.921875 L 0.105469 539.921875 Z M 0.105469 0 " clip-rule="nonzero"/></clipPath><clipPath id="fb05bbdb48"><path d="M 435 123 L 1439.894531 123 L 1439.894531 417 L 435 417 Z M 435 123 " clip-rule="nonzero"/></clipPath><clipPath id="fdc54335bb"><path d="M 785 32 L 1004.894531 32 L 1004.894531 263 L 785 263 Z M 785 32 " clip-rule="nonzero"/></clipPath><clipPath id="c3619ecb96"><rect x="0" width="1005" y="0" height="294"/></clipPath></defs><g clip-path="url(#01f182f936)"><path fill="#ffffff" d="M 0.105469 0 L 1889.828125 0 L 1889.828125 539.921875 L 0.105469 539.921875 Z M 0.105469 0 " fill-opacity="1" fill-rule="nonzero"/><path fill="#ffffff" d="M 0.105469 0 L 1889.828125 0 L 1889.828125 539.921875 L 0.105469 539.921875 Z M 0.105469 0 " fill-opacity="1" fill-rule="nonzero"/></g><g clip-path="url(#fb05bbdb48)"><g transform="matrix(1, 0, 0, 1, 435, 123)"><g clip-path="url(#c3619ecb96)"><g fill="#45377f" fill-opacity="1"><g transform="translate(30.004014, 233.334864)"><g><path d="M 86.175781 -159.121094 C 83.195312 -139.554688 82.152344 -117.882812 83.046875 -94.109375 C 83.847656 -71.011719 86.871094 -50.847656 92.113281 -33.625 C 92.6875 -31.636719 93.273438 -29.734375 93.878906 -27.917969 C 95.421875 -23.289062 96.355469 -18.636719 96.675781 -13.957031 L 96.730469 -13.207031 L 96.742188 -12.457031 C 96.8125 -8.671875 96.378906 -5.007812 95.4375 -1.457031 C 94.371094 2.566406 92.699219 6.304688 90.414062 9.753906 C 86.246094 16.042969 80.535156 20.792969 73.269531 24.007812 C 65.828125 27.238281 57.707031 29.042969 48.90625 29.425781 C 41.527344 29.742188 34.246094 29.265625 27.0625 27.996094 C 23.699219 27.457031 20.582031 26.78125 17.710938 25.972656 C 13.570312 24.808594 9.914062 23.320312 6.746094 21.511719 C 2.21875 19.027344 -1.882812 15.757812 -5.558594 11.703125 C -9.0625 7.832031 -11.941406 3.433594 -14.1875 -1.496094 C -16.761719 -6.824219 -18.84375 -12.289062 -20.425781 -17.886719 C -23.054688 -27.226562 -25.050781 -38.65625 -26.410156 -52.175781 C -27.6875 -64.84375 -28.402344 -77.925781 -28.5625 -91.414062 C -28.796875 -104.640625 -28.519531 -117.445312 -27.722656 -129.828125 C -26.867188 -143.175781 -25.335938 -154.3125 -23.128906 -163.238281 C -20.78125 -172.738281 -17.722656 -180.625 -13.957031 -186.898438 C -11.578125 -190.902344 -8.738281 -194.417969 -5.441406 -197.449219 C -1.636719 -200.949219 2.625 -203.652344 7.34375 -205.566406 C 13.371094 -208.089844 20.226562 -209.613281 27.898438 -210.136719 C 34.171875 -210.457031 39.832031 -210.351562 44.875 -209.8125 C 55.125 -208.757812 63.851562 -205.644531 71.050781 -200.476562 C 75.125 -197.449219 78.410156 -193.90625 80.90625 -189.839844 C 83.054688 -186.339844 84.625 -182.519531 85.613281 -178.382812 C 86.996094 -172.59375 87.195312 -166.265625 86.214844 -159.390625 Z M 27.019531 -167.847656 C 27.03125 -167.945312 27.039062 -168.007812 27.042969 -168.035156 C 27.035156 -167.917969 27.03125 -167.773438 27.03125 -167.589844 C 27.042969 -166.652344 27.183594 -165.617188 27.453125 -164.484375 C 27.941406 -162.441406 28.773438 -160.464844 29.949219 -158.550781 C 31.472656 -156.070312 33.546875 -153.851562 36.175781 -151.902344 C 37.230469 -151.144531 38.230469 -150.609375 39.171875 -150.300781 C 39.257812 -150.273438 39.332031 -150.253906 39.394531 -150.234375 L 39.382812 -150.238281 C 39.199219 -150.273438 38.921875 -150.3125 38.546875 -150.351562 C 36.621094 -150.554688 34.417969 -150.597656 31.945312 -150.472656 C 31.199219 -150.425781 30.585938 -150.347656 30.105469 -150.242188 C 30.007812 -150.222656 29.9375 -150.203125 29.890625 -150.191406 C 29.949219 -150.207031 29.917969 -150.195312 29.808594 -150.148438 C 31.78125 -150.949219 33.523438 -152.042969 35.027344 -153.429688 C 36.027344 -154.34375 36.789062 -155.246094 37.316406 -156.132812 C 37.144531 -155.84375 36.894531 -155.265625 36.566406 -154.394531 C 36.007812 -152.898438 35.457031 -151.058594 34.917969 -148.875 C 33.566406 -143.414062 32.578125 -135.789062 31.949219 -126.003906 C 31.261719 -115.25 31.023438 -103.953125 31.230469 -92.117188 C 31.371094 -80.394531 31.988281 -69.074219 33.085938 -58.164062 C 34.097656 -48.105469 35.441406 -40.105469 37.109375 -34.171875 C 37.75 -31.90625 38.785156 -29.289062 40.214844 -26.3125 C 39.894531 -27.015625 39.410156 -27.726562 38.761719 -28.441406 C 37.941406 -29.347656 37.160156 -30.003906 36.414062 -30.410156 C 35.640625 -30.847656 34.914062 -31.203125 34.234375 -31.46875 C 34.09375 -31.519531 33.972656 -31.566406 33.871094 -31.597656 C 33.855469 -31.601562 33.847656 -31.605469 33.839844 -31.609375 C 33.855469 -31.605469 33.875 -31.597656 33.902344 -31.589844 C 34.585938 -31.398438 35.769531 -31.164062 37.453125 -30.890625 C 40.351562 -30.378906 43.304688 -30.1875 46.308594 -30.316406 C 47.738281 -30.378906 48.664062 -30.5 49.082031 -30.679688 C 47.714844 -30.074219 46.394531 -29.265625 45.113281 -28.253906 C 43.355469 -26.855469 41.835938 -25.191406 40.558594 -23.265625 C 39.222656 -21.246094 38.246094 -19.082031 37.632812 -16.769531 C 37.148438 -14.9375 36.921875 -13.128906 36.957031 -11.347656 L 66.847656 -11.902344 L 37.023438 -9.84375 C 37.046875 -9.46875 37.089844 -9.1875 37.148438 -9.007812 C 36.273438 -11.644531 35.523438 -14.042969 34.910156 -16.207031 C 28.140625 -38.433594 24.269531 -63.652344 23.289062 -91.867188 C 22.253906 -119.40625 23.511719 -144.824219 27.058594 -168.121094 Z M 27.019531 -167.847656 "/></g></g></g><g fill="#45377f" fill-opacity="1"><g transform="translate(103.357441, 233.334864)"><g><path d="M -25.042969 -73.5625 C -23.476562 -79.257812 -21 -87.0625 -17.617188 -96.972656 C -14.378906 -106.6875 -10.734375 -116.6875 -6.683594 -126.972656 C -2.632812 -137.457031 1.660156 -147.316406 6.199219 -156.558594 C 8.691406 -161.683594 11.164062 -166.175781 13.609375 -170.042969 C 16.648438 -174.84375 19.785156 -178.859375 23.015625 -182.09375 C 25.695312 -184.769531 28.820312 -187.113281 32.390625 -189.121094 L 47.050781 -163.0625 L 31.75 -188.75 C 39.171875 -193.171875 48.207031 -195.839844 58.855469 -196.746094 C 65.78125 -197.339844 71.449219 -197.632812 75.859375 -197.632812 C 78.0625 -197.632812 80.375 -197.484375 82.792969 -197.179688 L 85.382812 -196.855469 L 87.878906 -196.089844 C 92.46875 -194.675781 96.429688 -192.636719 99.765625 -189.96875 L 100.160156 -189.652344 L 100.546875 -189.324219 C 104.597656 -185.851562 107.597656 -181.617188 109.535156 -176.625 C 111.023438 -172.808594 111.765625 -168.804688 111.765625 -164.621094 C 111.765625 -160.660156 111.078125 -156.507812 109.710938 -152.167969 L 109.589844 -151.785156 L 109.457031 -151.40625 C 107.496094 -145.730469 105.5625 -139.796875 103.664062 -133.605469 C 102.691406 -130.4375 102.265625 -127.71875 102.382812 -125.441406 L 102.40625 -124.980469 L 102.414062 -124.519531 C 102.390625 -125.773438 102.097656 -127.226562 101.539062 -128.875 C 100.226562 -132.761719 97.917969 -136.128906 94.621094 -138.976562 L 95.988281 -137.796875 L 97.203125 -136.460938 C 94.632812 -139.285156 91.445312 -141.390625 87.632812 -142.777344 L 91.804688 -141.261719 L 95.355469 -138.597656 C 92.730469 -140.566406 89.90625 -141.929688 86.894531 -142.683594 L 79.640625 -113.675781 L 83.871094 -143.277344 C 83.957031 -143.261719 84.023438 -143.253906 84.074219 -143.25 C 84.050781 -143.25 84.011719 -143.253906 83.949219 -143.261719 C 83.332031 -143.324219 82.636719 -143.355469 81.867188 -143.355469 L 81.867188 -113.457031 L 79.640625 -143.269531 C 92.898438 -144.261719 105.660156 -143.144531 117.925781 -139.929688 C 130.269531 -136.613281 143.199219 -129.332031 156.714844 -118.085938 C 165.484375 -110.789062 171.859375 -102.488281 175.839844 -93.1875 C 180.203125 -82.992188 181.484375 -72.269531 179.683594 -61.011719 C 178.308594 -53.238281 175.710938 -45.535156 171.898438 -37.90625 L 171.6875 -37.488281 L 171.46875 -37.078125 C 168.035156 -30.71875 163.859375 -24.535156 158.9375 -18.53125 C 154.039062 -12.558594 148.832031 -7.261719 143.316406 -2.648438 C 132.117188 6.730469 119.597656 14.09375 105.761719 19.4375 C 93.265625 24.289062 80.070312 27.359375 66.179688 28.65625 C 50.964844 29.929688 37.355469 28.941406 25.355469 25.6875 C 11.675781 21.980469 0.117188 15.46875 -9.324219 6.152344 C -14.515625 1.058594 -18.738281 -4.722656 -21.992188 -11.195312 C -25.160156 -17.496094 -27.316406 -24.292969 -28.457031 -31.585938 C -30.4375 -44.265625 -29.292969 -58.285156 -25.023438 -73.636719 Z M 32.585938 -57.613281 C 30.628906 -50.574219 29.976562 -44.976562 30.625 -40.824219 C 30.800781 -39.699219 31.070312 -38.777344 31.433594 -38.050781 C 31.710938 -37.5 32.128906 -36.949219 32.683594 -36.40625 C 34.660156 -34.453125 37.433594 -32.992188 40.992188 -32.027344 C 46.234375 -30.609375 52.777344 -30.226562 60.621094 -30.882812 C 68.976562 -31.660156 76.84375 -33.484375 84.21875 -36.34375 C 91.886719 -39.304688 98.796875 -43.363281 104.953125 -48.519531 C 107.589844 -50.726562 110.171875 -53.367188 112.6875 -56.4375 C 115.179688 -59.480469 117.234375 -62.492188 118.84375 -65.476562 L 145.15625 -51.277344 L 118.414062 -64.648438 C 119.640625 -67.105469 120.382812 -69.042969 120.636719 -70.460938 C 120.652344 -70.550781 120.660156 -70.609375 120.660156 -70.640625 C 120.660156 -70.578125 120.664062 -70.5 120.675781 -70.40625 C 120.707031 -70.132812 120.769531 -69.882812 120.867188 -69.65625 C 120.878906 -69.628906 120.886719 -69.609375 120.894531 -69.59375 C 120.894531 -69.597656 120.886719 -69.609375 120.875 -69.628906 C 120.808594 -69.738281 120.714844 -69.871094 120.59375 -70.027344 C 120.097656 -70.652344 119.390625 -71.351562 118.46875 -72.121094 C 114.660156 -75.289062 111.199219 -77.78125 108.089844 -79.597656 C 105.847656 -80.902344 104.070312 -81.734375 102.753906 -82.085938 C 96.929688 -83.617188 90.707031 -84.132812 84.089844 -83.640625 L 82.980469 -83.554688 L 81.867188 -83.554688 C 80.003906 -83.554688 77.851562 -83.730469 75.414062 -84.078125 L 73.886719 -84.296875 L 72.390625 -84.671875 C 67.59375 -85.871094 63.289062 -87.898438 59.476562 -90.757812 L 77.417969 -114.679688 L 67.199219 -86.578125 C 61.757812 -88.558594 57.011719 -91.777344 52.957031 -96.234375 L 75.082031 -116.347656 L 55.539062 -93.71875 C 50.609375 -97.976562 47.0625 -103.308594 44.894531 -109.714844 C 43.484375 -113.886719 42.730469 -118.414062 42.628906 -123.300781 L 72.523438 -123.910156 L 42.664062 -122.378906 C 42.1875 -131.671875 43.464844 -141.261719 46.496094 -151.144531 C 48.601562 -158.003906 50.75 -164.605469 52.941406 -170.941406 L 81.199219 -161.171875 L 52.6875 -170.175781 C 52.207031 -168.65625 51.96875 -166.804688 51.96875 -164.621094 C 51.96875 -161.328125 52.578125 -158.105469 53.804688 -154.953125 C 55.488281 -150.628906 58.09375 -146.953125 61.628906 -143.921875 L 81.085938 -166.625 L 62.410156 -143.277344 C 64.230469 -141.820312 66.148438 -140.640625 68.164062 -139.746094 C 68.921875 -139.410156 69.632812 -139.140625 70.292969 -138.9375 L 79.085938 -167.511719 L 75.375 -137.84375 C 75.339844 -137.851562 75.3125 -137.851562 75.289062 -137.855469 C 75.296875 -137.855469 75.308594 -137.855469 75.332031 -137.851562 C 75.480469 -137.84375 75.65625 -137.835938 75.859375 -137.835938 C 73.148438 -137.835938 69.175781 -137.613281 63.941406 -137.167969 C 62.691406 -137.058594 61.738281 -136.917969 61.082031 -136.738281 C 61.042969 -136.726562 61.015625 -136.722656 61.007812 -136.71875 C 61.0625 -136.734375 61.125 -136.761719 61.203125 -136.792969 C 61.554688 -136.9375 61.9375 -137.132812 62.351562 -137.378906 L 62.03125 -137.1875 L 61.707031 -137.003906 C 62.910156 -137.679688 64.105469 -138.613281 65.300781 -139.808594 L 65.320312 -139.792969 C 64.984375 -139.351562 64.589844 -138.773438 64.140625 -138.066406 C 62.878906 -136.074219 61.457031 -133.449219 59.871094 -130.195312 C 56.105469 -122.527344 52.464844 -114.148438 48.953125 -105.054688 C 45.292969 -95.761719 41.964844 -86.632812 38.972656 -77.660156 C 35.980469 -68.882812 33.855469 -62.226562 32.609375 -57.6875 Z M 76.859375 -69.074219 C 76.117188 -68.828125 75.472656 -68.554688 74.921875 -68.257812 C 75.023438 -68.3125 75.113281 -68.367188 75.195312 -68.421875 L 75.183594 -68.410156 C 74.953125 -68.230469 74.703125 -67.984375 74.429688 -67.675781 C 73.507812 -66.613281 72.84375 -65.375 72.445312 -63.953125 C 71.804688 -61.714844 71.785156 -59.261719 72.390625 -56.59375 C 72.929688 -54.121094 74.128906 -51.816406 75.988281 -49.675781 C 77.203125 -48.238281 78.738281 -47.050781 80.589844 -46.113281 C 81.734375 -45.535156 82.765625 -45.179688 83.6875 -45.046875 C 80.464844 -45.507812 77.484375 -45.738281 74.746094 -45.738281 L 74.746094 -75.636719 L 75.695312 -45.753906 C 75.902344 -45.757812 76.214844 -45.824219 76.632812 -45.949219 C 77.429688 -46.179688 78.203125 -46.542969 78.957031 -47.035156 L 62.621094 -72.078125 L 80.359375 -48.007812 C 80.203125 -47.894531 80.082031 -47.796875 79.992188 -47.722656 L 79.984375 -47.714844 C 80.015625 -47.746094 80.050781 -47.78125 80.09375 -47.820312 C 81.410156 -49.179688 82.304688 -50.332031 82.773438 -51.277344 C 82.652344 -51.03125 82.464844 -50.480469 82.21875 -49.628906 C 81.9375 -48.640625 81.78125 -48.007812 81.746094 -47.722656 C 81.804688 -48.203125 81.824219 -48.777344 81.804688 -49.445312 C 81.769531 -50.972656 81.539062 -52.550781 81.117188 -54.1875 C 80.492188 -56.632812 79.367188 -58.914062 77.746094 -61.039062 C 76.132812 -63.160156 74.21875 -64.851562 72.007812 -66.113281 C 69.78125 -67.414062 67.277344 -68.277344 64.5 -68.703125 L 66.167969 -68.449219 L 67.796875 -68.003906 C 70.132812 -67.371094 72.878906 -67.632812 76.042969 -68.789062 L 76.449219 -68.9375 Z M 95.769531 -12.347656 L 86.316406 -40.710938 L 96.585938 -12.632812 C 89.277344 -9.957031 81.964844 -8.402344 74.648438 -7.972656 C 66.996094 -7.519531 59.484375 -8.296875 52.109375 -10.300781 L 59.953125 -39.152344 L 55.40625 -9.601562 C 50.699219 -10.324219 46.34375 -11.855469 42.339844 -14.195312 C 37.53125 -16.941406 33.488281 -20.46875 30.203125 -24.773438 C 26.914062 -29.085938 24.585938 -33.910156 23.21875 -39.246094 C 21.984375 -44.015625 21.703125 -49.191406 22.367188 -54.777344 C 22.777344 -58.238281 23.582031 -62.070312 24.785156 -66.273438 C 27.644531 -76.140625 31.988281 -84.082031 37.8125 -90.105469 C 39.910156 -92.203125 42.269531 -94.21875 44.886719 -96.148438 L 45.574219 -96.652344 L 46.289062 -97.121094 C 54.378906 -102.394531 63.546875 -105.195312 73.796875 -105.519531 L 74.273438 -105.535156 L 74.746094 -105.535156 C 80.316406 -105.535156 86.160156 -105.097656 92.277344 -104.222656 C 97.796875 -103.421875 102.890625 -101.84375 107.554688 -99.484375 C 112.929688 -96.769531 117.449219 -93.246094 121.113281 -88.914062 C 125.9375 -83.367188 129.140625 -76.984375 130.71875 -69.765625 C 132.359375 -62.496094 132.117188 -55.148438 129.996094 -47.722656 C 127.964844 -40.515625 124.464844 -34.066406 119.5 -28.375 C 115.105469 -23.335938 109.695312 -19.082031 103.269531 -15.609375 C 100.792969 -14.273438 98.292969 -13.1875 95.769531 -12.347656 Z M 95.769531 -12.347656 "/></g></g></g><g fill="#45377f" fill-opacity="1"><g transform="translate(261.246077, 233.334864)"><g/></g></g><g fill="#45377f" fill-opacity="1"><g transform="translate(315.245404, 233.334864)"><g><path d="M 139.597656 -195.878906 C 149.726562 -193.558594 158.195312 -190.390625 165.007812 -186.375 C 171.289062 -182.570312 176.246094 -178.050781 179.886719 -172.808594 C 182.195312 -169.492188 183.953125 -165.945312 185.171875 -162.167969 C 186.433594 -158.238281 187.066406 -154.199219 187.066406 -150.050781 C 187.066406 -143.605469 186.515625 -137.167969 185.410156 -130.746094 C 184 -122.539062 181.238281 -114.832031 177.121094 -107.632812 C 173.875 -101.914062 170.25 -97.234375 166.253906 -93.59375 C 163.164062 -90.785156 159.824219 -88.546875 156.234375 -86.886719 C 151.441406 -84.664062 146.449219 -83.554688 141.261719 -83.554688 C 134.972656 -83.554688 128.847656 -84.601562 122.898438 -86.691406 L 115.007812 -89.355469 C 114.386719 -89.5625 113.273438 -89.75 111.671875 -89.914062 C 109.21875 -90.167969 106.265625 -90.242188 102.8125 -90.132812 C 97.285156 -89.917969 92.105469 -88.71875 87.269531 -86.535156 C 85.859375 -85.90625 84.703125 -85.183594 83.800781 -84.367188 C 82.929688 -83.582031 82.15625 -82.59375 81.476562 -81.40625 C 81.679688 -81.75 81.832031 -82.136719 81.9375 -82.566406 C 81.957031 -82.648438 81.96875 -82.699219 81.972656 -82.726562 C 81.960938 -82.625 81.953125 -82.488281 81.953125 -82.3125 C 81.953125 -80.363281 82.554688 -77.65625 83.757812 -74.1875 C 83.980469 -73.535156 84.226562 -73.074219 84.492188 -72.800781 C 85.023438 -72.257812 85.964844 -71.707031 87.3125 -71.15625 C 93.113281 -68.734375 98.859375 -67.800781 104.554688 -68.355469 C 108.125 -68.710938 112.457031 -70.445312 117.542969 -73.558594 C 122.820312 -76.785156 128.324219 -78.96875 134.054688 -80.105469 C 140.335938 -81.351562 146.613281 -81.300781 152.882812 -79.953125 C 163.332031 -77.707031 172.914062 -72.046875 181.625 -62.976562 C 185.238281 -59.160156 188.046875 -55.109375 190.046875 -50.828125 C 192.625 -45.316406 193.875 -39.59375 193.792969 -33.65625 C 193.714844 -27.746094 192.320312 -22.078125 189.617188 -16.648438 C 187.523438 -12.445312 184.691406 -8.539062 181.125 -4.921875 C 174.484375 1.71875 168.515625 6.953125 163.21875 10.78125 C 159.109375 13.699219 155.042969 16.191406 151.027344 18.253906 C 140.117188 24.03125 128.832031 27.433594 117.171875 28.449219 C 107.789062 29.269531 98.445312 29.269531 89.136719 28.449219 C 76.058594 27.199219 63.554688 24.1875 51.628906 19.417969 C 42.054688 15.644531 32.910156 10.617188 24.207031 4.328125 C 14.992188 -2.152344 6.859375 -10.191406 -0.1875 -19.792969 C -12.253906 -36.007812 -20.328125 -54.113281 -24.402344 -74.117188 C -27.964844 -90.945312 -27.585938 -106.800781 -23.261719 -121.683594 C -18.84375 -136.890625 -10.503906 -150.382812 1.757812 -162.160156 C 13.105469 -173.109375 26.019531 -181.347656 40.496094 -186.878906 C 52.96875 -191.675781 65.179688 -195.054688 77.132812 -197.015625 C 87.074219 -198.613281 97.179688 -199.414062 107.449219 -199.414062 C 118.320312 -199.414062 128.984375 -198.246094 139.433594 -195.914062 Z M 126.40625 -137.554688 C 120.246094 -138.929688 113.925781 -139.617188 107.449219 -139.617188 C 100.363281 -139.617188 93.488281 -139.082031 86.820312 -138.007812 C 78.902344 -136.710938 70.574219 -134.378906 61.835938 -131.019531 C 54.957031 -128.390625 48.738281 -124.394531 43.179688 -119.03125 C 38.609375 -114.640625 35.605469 -109.96875 34.164062 -105.003906 C 32.628906 -99.71875 32.636719 -93.402344 34.191406 -86.054688 C 36.492188 -74.765625 41.101562 -64.472656 48.015625 -55.175781 C 51.203125 -50.835938 54.933594 -47.160156 59.21875 -44.148438 C 63.859375 -40.796875 68.730469 -38.113281 73.839844 -36.101562 C 80.449219 -33.457031 87.300781 -31.796875 94.394531 -31.117188 C 100.214844 -30.605469 106.070312 -30.605469 111.964844 -31.121094 C 115.582031 -31.4375 119.496094 -32.710938 123.710938 -34.9375 C 125.183594 -35.695312 126.679688 -36.613281 128.207031 -37.695312 C 130.917969 -39.652344 134.363281 -42.726562 138.550781 -46.910156 C 137.65625 -46.003906 136.835938 -44.804688 136.09375 -43.316406 C 134.742188 -40.605469 134.046875 -37.65625 134.003906 -34.472656 C 133.957031 -31.261719 134.585938 -28.265625 135.882812 -25.488281 C 136.609375 -23.941406 137.480469 -22.632812 138.496094 -21.558594 C 138.132812 -21.933594 137.816406 -22.238281 137.535156 -22.46875 C 137.464844 -22.527344 137.410156 -22.574219 137.363281 -22.609375 C 137.371094 -22.601562 137.394531 -22.589844 137.429688 -22.566406 C 138.164062 -22.105469 139.125 -21.746094 140.320312 -21.488281 C 142.105469 -21.105469 143.894531 -21.09375 145.6875 -21.449219 C 146.933594 -21.695312 147.953125 -22.0625 148.742188 -22.542969 C 135.882812 -14.679688 123.085938 -10.113281 110.34375 -8.839844 C 94.679688 -7.316406 79.441406 -9.644531 64.625 -15.828125 C 55.667969 -19.5 48.042969 -24.550781 41.753906 -30.976562 C 35.199219 -37.675781 30.363281 -45.554688 27.253906 -54.617188 C 23.855469 -64.421875 22.15625 -73.65625 22.15625 -82.3125 C 22.15625 -92.96875 24.613281 -102.539062 29.53125 -111.023438 C 33.375 -117.769531 38.109375 -123.679688 43.726562 -128.75 C 49.3125 -133.792969 55.625 -137.890625 62.667969 -141.039062 C 74.59375 -146.421875 87.355469 -149.375 100.960938 -149.902344 C 114.078125 -150.308594 125.140625 -149.011719 134.148438 -146.007812 L 142.71875 -143.109375 C 142.257812 -143.273438 141.769531 -143.355469 141.261719 -143.355469 C 137.671875 -143.355469 134.289062 -142.621094 131.117188 -141.152344 C 129.148438 -140.242188 127.445312 -139.128906 126.003906 -137.820312 C 125.410156 -137.277344 124.957031 -136.796875 124.648438 -136.382812 C 124.75 -136.519531 124.933594 -136.824219 125.203125 -137.296875 C 125.832031 -138.402344 126.257812 -139.59375 126.480469 -140.878906 C 127.007812 -143.945312 127.269531 -147.003906 127.269531 -150.050781 C 127.269531 -147.941406 127.597656 -145.871094 128.25 -143.839844 C 128.855469 -141.964844 129.695312 -140.25 130.777344 -138.691406 C 131.539062 -137.601562 132.355469 -136.664062 133.238281 -135.886719 C 133.660156 -135.511719 134.132812 -135.167969 134.648438 -134.859375 C 134.167969 -135.140625 133.390625 -135.476562 132.3125 -135.867188 C 130.640625 -136.472656 128.617188 -137.046875 126.242188 -137.589844 Z M 126.40625 -137.554688 "/></g></g></g><g fill="#45377f" fill-opacity="1"><g transform="translate(484.590768, 233.334864)"><g><path d="M 108.457031 -13.691406 C 100.988281 -11.003906 91.355469 -8.808594 79.5625 -7.113281 C 67.726562 -5.421875 57.484375 -4.816406 48.839844 -5.296875 L 50.5 -35.148438 L 79.753906 -28.976562 C 78.195312 -21.601562 77.023438 -15.007812 76.230469 -9.195312 C 75.132812 -2 73.101562 4.15625 70.132812 9.273438 C 67.957031 13.019531 65.304688 16.273438 62.164062 19.027344 C 58.453125 22.292969 54.265625 24.699219 49.609375 26.25 C 41.3125 28.957031 32.214844 29.421875 22.3125 27.652344 C 17.105469 26.746094 11.5625 25.171875 5.6875 22.925781 C -1.265625 20.449219 -7.4375 17.027344 -12.824219 12.65625 C -16.886719 9.253906 -20.183594 5.382812 -22.710938 1.050781 C -24.972656 -2.828125 -26.652344 -7.050781 -27.746094 -11.621094 C -28.894531 -16.082031 -29.535156 -20.886719 -29.667969 -26.039062 L 0.222656 -26.804688 L -29.636719 -25.234375 C -29.839844 -29.128906 -29.839844 -32.949219 -29.628906 -36.695312 C -29.175781 -45.675781 -27.457031 -56.691406 -24.472656 -69.734375 C -21.683594 -81.929688 -18.226562 -94.414062 -14.101562 -107.183594 C -10.085938 -119.871094 -5.601562 -132.113281 -0.660156 -143.917969 C 4.511719 -156.460938 9.738281 -166.835938 15.023438 -175.035156 C 17.953125 -179.6875 21.53125 -184.375 25.757812 -189.105469 C 29.496094 -193.199219 33.585938 -196.546875 38.027344 -199.148438 C 42.660156 -201.863281 47.617188 -203.777344 52.902344 -204.890625 C 60.738281 -206.539062 69.960938 -206.519531 80.570312 -204.824219 C 92.929688 -202.851562 102.949219 -198.679688 110.636719 -192.300781 L 91.542969 -169.292969 L 105.679688 -195.636719 C 111.96875 -192.261719 117.90625 -187.34375 123.488281 -180.882812 C 127.886719 -175.785156 132.207031 -169.570312 136.449219 -162.230469 C 143.6875 -149.566406 150.339844 -135.753906 156.402344 -120.796875 C 162.300781 -106.160156 167.382812 -91.867188 171.640625 -77.910156 C 176.046875 -63.199219 178.796875 -51.8125 179.898438 -43.75 C 181.148438 -34.558594 181.300781 -26.410156 180.355469 -19.296875 L 180.265625 -18.621094 L 180.144531 -17.949219 C 179.3125 -13.332031 177.929688 -9.0625 176 -5.152344 C 173.601562 -0.289062 170.441406 3.894531 166.515625 7.398438 L 146.601562 -14.90625 L 167.433594 6.539062 C 162.457031 11.375 156.503906 15.429688 149.570312 18.699219 C 144.011719 21.320312 138.691406 23.308594 133.617188 24.664062 C 123.753906 27.351562 114.53125 27.601562 105.949219 25.410156 C 101.527344 24.378906 97.3125 22.402344 93.308594 19.480469 C 89.847656 16.957031 86.851562 13.867188 84.332031 10.21875 C 80.878906 5.226562 78.398438 -0.738281 76.894531 -7.679688 L 106.113281 -14.015625 L 77.0625 -6.949219 C 75.203125 -14.585938 72.773438 -23.265625 69.765625 -32.988281 L 98.328125 -41.824219 Z M 88.199219 -69.953125 L 117.644531 -80.554688 L 126.890625 -50.660156 C 130.261719 -39.765625 133.019531 -29.90625 135.164062 -21.082031 L 135.253906 -20.71875 L 135.332031 -20.351562 C 135.347656 -20.296875 135.355469 -20.246094 135.367188 -20.207031 L 135.363281 -20.21875 C 135.324219 -20.359375 135.261719 -20.527344 135.1875 -20.726562 C 134.804688 -21.710938 134.246094 -22.730469 133.515625 -23.789062 C 132.195312 -25.695312 130.542969 -27.375 128.554688 -28.824219 C 126.023438 -30.671875 123.417969 -31.90625 120.742188 -32.527344 C 119.535156 -32.835938 118.460938 -32.964844 117.515625 -32.914062 C 117.429688 -32.910156 117.359375 -32.90625 117.296875 -32.898438 L 117.324219 -32.902344 C 117.507812 -32.933594 117.804688 -33.007812 118.210938 -33.117188 C 119.804688 -33.542969 121.757812 -34.296875 124.058594 -35.382812 C 124.667969 -35.671875 125.167969 -35.945312 125.558594 -36.207031 C 125.65625 -36.273438 125.738281 -36.332031 125.796875 -36.378906 C 125.808594 -36.386719 125.8125 -36.390625 125.8125 -36.390625 C 125.800781 -36.382812 125.785156 -36.367188 125.769531 -36.351562 L 126.21875 -36.789062 L 126.6875 -37.207031 C 124.839844 -35.554688 123.402344 -33.691406 122.375 -31.609375 C 121.816406 -30.476562 121.457031 -29.457031 121.292969 -28.542969 L 150.71875 -23.246094 L 121.082031 -27.199219 C 121.320312 -28.984375 121.175781 -31.808594 120.648438 -35.667969 C 119.96875 -40.65625 117.898438 -48.921875 114.445312 -60.460938 C 110.695312 -72.753906 106.207031 -85.378906 100.984375 -98.328125 C 95.925781 -110.808594 90.488281 -122.132812 84.675781 -132.308594 C 82.320312 -136.390625 80.167969 -139.550781 78.230469 -141.796875 C 77.636719 -142.484375 77.136719 -143 76.738281 -143.34375 L 76.742188 -143.347656 C 76.921875 -143.21875 77.144531 -143.085938 77.40625 -142.945312 L 74.761719 -144.367188 L 72.449219 -146.285156 C 72.96875 -145.851562 73.472656 -145.5 73.960938 -145.226562 C 74.140625 -145.125 74.261719 -145.0625 74.316406 -145.042969 C 73.640625 -145.300781 72.582031 -145.546875 71.148438 -145.773438 C 69.027344 -146.113281 67.257812 -146.296875 65.839844 -146.324219 C 65.425781 -146.332031 65.097656 -146.328125 64.851562 -146.308594 L 64.855469 -146.308594 C 64.960938 -146.324219 65.082031 -146.347656 65.222656 -146.375 C 66.28125 -146.597656 67.292969 -146.992188 68.253906 -147.554688 C 69.027344 -148.007812 69.722656 -148.574219 70.347656 -149.257812 C 68.339844 -147.015625 66.65625 -144.808594 65.285156 -142.640625 C 61.96875 -137.492188 58.371094 -130.214844 54.496094 -120.8125 C 50.242188 -110.664062 46.34375 -99.996094 42.800781 -88.804688 C 39.210938 -77.695312 36.21875 -66.894531 33.816406 -56.398438 C 31.609375 -46.753906 30.363281 -39.078125 30.074219 -33.378906 C 29.988281 -31.785156 29.988281 -30.117188 30.078125 -28.378906 L 30.101562 -27.976562 L 30.113281 -27.574219 C 30.128906 -26.941406 30.226562 -26.261719 30.414062 -25.527344 C 30.136719 -26.6875 29.644531 -27.871094 28.941406 -29.082031 C 27.96875 -30.742188 26.601562 -32.3125 24.835938 -33.789062 C 24.757812 -33.855469 24.691406 -33.90625 24.644531 -33.9375 C 24.675781 -33.917969 24.730469 -33.882812 24.808594 -33.84375 C 25.210938 -33.625 25.945312 -33.324219 27.015625 -32.9375 C 29.296875 -32.066406 31.242188 -31.492188 32.855469 -31.210938 C 33.191406 -31.148438 33.472656 -31.109375 33.699219 -31.089844 C 33.742188 -31.085938 33.773438 -31.085938 33.792969 -31.085938 C 33.761719 -31.085938 33.71875 -31.085938 33.660156 -31.082031 C 32.859375 -31.0625 31.871094 -30.859375 30.699219 -30.476562 C 27.710938 -29.480469 25.046875 -27.953125 22.703125 -25.898438 C 20.9375 -24.347656 19.503906 -22.625 18.40625 -20.730469 C 17.820312 -19.71875 17.386719 -18.765625 17.109375 -17.878906 C 17.0625 -17.71875 17.027344 -17.59375 17.007812 -17.5 C 17.015625 -17.550781 17.007812 -17.476562 16.980469 -17.277344 C 17.96875 -24.515625 19.390625 -32.53125 21.242188 -41.320312 L 26.542969 -66.425781 L 52.15625 -65 C 56.859375 -64.742188 63.15625 -65.171875 71.042969 -66.300781 C 78.828125 -67.421875 84.546875 -68.636719 88.199219 -69.953125 Z M 56.230469 -86.734375 C 65.089844 -86.621094 74.5 -87.753906 84.46875 -90.140625 L 91.429688 -61.066406 L 63.492188 -50.414062 C 58.222656 -64.246094 52.277344 -77.402344 45.660156 -89.886719 L 72.078125 -103.890625 L 99.585938 -92.179688 C 93.953125 -78.941406 88.976562 -64.503906 84.65625 -48.875 L 55.835938 -56.839844 Z M 55.445312 -26.941406 L 16.699219 -27.449219 L 27.019531 -64.800781 C 32.042969 -82.988281 37.894531 -99.917969 44.566406 -115.597656 L 69.125 -173.296875 L 98.496094 -117.890625 C 106.261719 -103.234375 113.222656 -87.84375 119.371094 -71.714844 L 131.492188 -39.917969 L 98.394531 -31.988281 C 83.59375 -28.445312 69.277344 -26.761719 55.445312 -26.941406 Z M 55.445312 -26.941406 "/></g></g></g><g fill="#45377f" fill-opacity="1"><g transform="translate(641.255854, 233.334864)"><g><path d="M -27.808594 -132.097656 C -27.5 -136.117188 -27.054688 -139.644531 -26.46875 -142.683594 C -25.523438 -147.609375 -24.066406 -151.898438 -22.097656 -155.550781 L 4.226562 -141.375 L -22.515625 -154.746094 C -20.015625 -159.746094 -16.105469 -164.320312 -10.78125 -168.464844 C -7.980469 -170.648438 -4.488281 -172.960938 -0.3125 -175.40625 C 20.15625 -187.183594 43.949219 -193.835938 71.0625 -195.363281 C 85.988281 -196.15625 99.914062 -194.449219 112.835938 -190.242188 C 126.140625 -185.914062 138.152344 -179.039062 148.875 -169.617188 C 159.347656 -160.355469 167.542969 -148.753906 173.457031 -134.808594 C 177.160156 -125.863281 178.921875 -116.953125 178.746094 -108.082031 C 178.566406 -98.910156 176.371094 -90.082031 172.164062 -81.597656 C 168.226562 -73.5625 162.726562 -66.917969 155.664062 -61.660156 C 154.792969 -60.988281 153.929688 -60.097656 153.082031 -58.992188 C 154.144531 -60.382812 154.957031 -61.976562 155.527344 -63.761719 C 156.1875 -65.851562 156.445312 -67.964844 156.296875 -70.105469 L 156.335938 -69.558594 L 156.351562 -69.007812 C 156.320312 -70.085938 156.078125 -71.195312 155.632812 -72.332031 L 155.917969 -71.601562 L 156.167969 -70.855469 C 156.085938 -71.101562 155.972656 -71.339844 155.828125 -71.574219 L 156.105469 -71.125 L 156.371094 -70.667969 C 156.171875 -71.015625 155.882812 -71.375 155.507812 -71.75 L 155.742188 -71.515625 L 155.972656 -71.277344 C 156.570312 -70.652344 157.09375 -70.164062 157.542969 -69.820312 L 157.976562 -69.480469 L 158.402344 -69.128906 C 158.863281 -68.746094 159.804688 -68.085938 161.226562 -67.152344 C 162.164062 -66.546875 163.859375 -65.496094 166.308594 -63.996094 L 167.035156 -63.554688 L 167.734375 -63.066406 C 167.535156 -63.207031 167.320312 -63.332031 167.089844 -63.449219 L 168.269531 -62.859375 L 169.390625 -62.167969 C 170.078125 -61.746094 170.800781 -61.316406 171.558594 -60.886719 C 174.234375 -59.402344 176.304688 -58.226562 177.777344 -57.359375 C 181.882812 -54.839844 185.265625 -51.972656 187.925781 -48.761719 C 191.652344 -44.269531 194.097656 -39.214844 195.261719 -33.597656 C 196.425781 -27.980469 196.191406 -22.371094 194.558594 -16.765625 C 193.390625 -12.761719 191.539062 -8.945312 189.003906 -5.324219 C 185.601562 -0.398438 181.148438 4.550781 175.636719 9.523438 C 170.585938 14.179688 165.601562 18.015625 160.683594 21.035156 C 154.40625 25 147.496094 27.1875 139.949219 27.601562 C 133.097656 27.976562 126.285156 26.777344 119.5 24.007812 C 106.964844 19.039062 94.808594 9.800781 83.023438 -3.707031 C 74.621094 -13.1875 67.945312 -20.578125 63 -25.882812 L 84.867188 -46.273438 L 63.996094 -24.863281 C 63.867188 -24.988281 63.765625 -25.085938 63.679688 -25.152344 C 63.695312 -25.140625 63.738281 -25.109375 63.808594 -25.066406 C 64.28125 -24.75 64.875 -24.460938 65.585938 -24.199219 C 68.203125 -23.265625 70.832031 -22.796875 73.476562 -22.796875 C 75.863281 -22.796875 78.15625 -23.160156 80.355469 -23.882812 C 81.863281 -24.378906 83.226562 -25.015625 84.441406 -25.785156 C 85.058594 -26.179688 85.566406 -26.558594 85.960938 -26.921875 C 87.597656 -28.460938 88.855469 -30.0625 89.730469 -31.722656 C 90.261719 -32.730469 90.628906 -33.671875 90.832031 -34.546875 C 90.867188 -34.699219 90.890625 -34.8125 90.898438 -34.890625 C 90.890625 -34.808594 90.878906 -34.679688 90.871094 -34.511719 C 90.839844 -33.796875 90.871094 -32.898438 90.964844 -31.8125 C 91.632812 -23.265625 92.308594 -17.195312 92.996094 -13.601562 L 93.09375 -13.082031 L 93.175781 -12.554688 C 93.902344 -7.820312 93.890625 -3.355469 93.132812 0.847656 C 92.484375 4.460938 91.304688 7.839844 89.601562 10.988281 C 87.289062 15.253906 84.191406 18.8125 80.304688 21.664062 C 75.023438 25.625 68.511719 28.074219 60.769531 29.015625 C 56.859375 29.53125 52.507812 29.789062 47.71875 29.789062 C 43.582031 29.878906 39.605469 29.773438 35.800781 29.472656 C 32.453125 29.226562 29.074219 28.722656 25.660156 27.964844 L 32.144531 -1.222656 L 26.890625 28.210938 C 22.433594 27.414062 18.269531 25.902344 14.386719 23.671875 C 10.578125 21.484375 7.210938 18.699219 4.289062 15.316406 L 26.917969 -4.226562 L 5.265625 16.394531 C 1.289062 12.214844 -2.222656 6.546875 -5.269531 -0.621094 C -7.363281 -5.550781 -9.46875 -11.644531 -11.578125 -18.898438 C -15.410156 -31.722656 -17.894531 -40.839844 -19.027344 -46.253906 L 10.234375 -52.390625 L -18.613281 -44.523438 C -19.101562 -46.3125 -19.5 -48.148438 -19.816406 -50.03125 L 9.675781 -54.949219 L -19.167969 -47.082031 C -19.65625 -48.871094 -20.058594 -50.707031 -20.371094 -52.589844 L 9.121094 -57.507812 L -20.101562 -51.1875 C -22.644531 -62.941406 -24.820312 -75.59375 -26.632812 -89.136719 C -28.628906 -104 -29.015625 -118.429688 -27.78125 -132.429688 Z M 31.785156 -127.183594 C 30.941406 -117.601562 31.226562 -107.5625 32.636719 -97.0625 C 34.238281 -85.097656 36.140625 -74.019531 38.34375 -63.824219 L 38.496094 -63.125 L 38.613281 -62.421875 C 38.59375 -62.527344 38.566406 -62.65625 38.523438 -62.816406 L 38.921875 -61.355469 L 39.167969 -59.863281 C 39.152344 -59.96875 39.121094 -60.097656 39.078125 -60.257812 L 39.3125 -59.398438 L 39.496094 -58.523438 C 40.289062 -54.746094 42.402344 -47.101562 45.839844 -35.601562 C 47.285156 -30.625 48.59375 -26.761719 49.761719 -24.015625 C 50.101562 -23.214844 50.359375 -22.664062 50.53125 -22.367188 C 50.121094 -23.078125 49.464844 -23.902344 48.570312 -24.847656 L 49.070312 -24.320312 L 49.546875 -23.769531 C 48.035156 -25.519531 46.242188 -26.988281 44.175781 -28.179688 C 42.039062 -29.40625 39.78125 -30.230469 37.402344 -30.65625 L 38.019531 -30.546875 L 38.632812 -30.410156 C 39.222656 -30.277344 39.847656 -30.1875 40.503906 -30.140625 C 42.332031 -29.996094 44.738281 -29.953125 47.71875 -30.011719 C 49.898438 -30.011719 51.851562 -30.121094 53.574219 -30.347656 C 52.863281 -30.261719 52.035156 -30.066406 51.089844 -29.757812 C 48.863281 -29.03125 46.8125 -27.964844 44.941406 -26.558594 C 41.613281 -24.117188 38.972656 -21.09375 37.019531 -17.492188 C 35.679688 -15.015625 34.765625 -12.429688 34.28125 -9.746094 C 33.859375 -7.398438 33.789062 -5.304688 34.074219 -3.460938 L 63.625 -8.007812 L 34.253906 -2.414062 C 33.15625 -8.167969 32.203125 -16.257812 31.386719 -26.695312 C 30.710938 -34.578125 31.105469 -41.691406 32.578125 -48.042969 C 34.699219 -57.195312 39.011719 -64.835938 45.511719 -70.960938 C 50.492188 -75.535156 55.867188 -78.773438 61.632812 -80.675781 C 65.515625 -81.953125 69.460938 -82.59375 73.476562 -82.59375 C 77.738281 -82.59375 81.957031 -81.847656 86.132812 -80.355469 C 93.183594 -77.777344 99.71875 -73.550781 105.742188 -67.679688 L 106.25 -67.183594 L 106.738281 -66.660156 C 112.023438 -60.992188 119.140625 -53.105469 128.089844 -43.011719 C 131.132812 -39.519531 134.007812 -36.722656 136.707031 -34.617188 C 138.660156 -33.09375 140.460938 -32.003906 142.113281 -31.347656 C 140.59375 -31.96875 138.785156 -32.222656 136.683594 -32.105469 C 133.882812 -31.953125 131.457031 -31.230469 129.40625 -29.933594 C 131.015625 -30.917969 133.074219 -32.570312 135.585938 -34.882812 C 137.640625 -36.734375 139.117188 -38.3125 140.015625 -39.613281 C 138.777344 -37.84375 137.820312 -35.800781 137.144531 -33.484375 C 136.003906 -29.566406 135.859375 -25.558594 136.707031 -21.460938 C 137.554688 -17.363281 139.28125 -13.746094 141.886719 -10.605469 C 143.425781 -8.75 145.28125 -7.152344 147.460938 -5.820312 C 146.410156 -6.4375 144.554688 -7.484375 141.890625 -8.96875 C 140.570312 -9.722656 139.289062 -10.480469 138.050781 -11.242188 L 153.71875 -36.707031 L 140.347656 -9.964844 C 138.042969 -11.117188 135.828125 -12.429688 133.699219 -13.902344 L 150.71875 -38.484375 L 135.125 -12.972656 C 132.238281 -14.738281 130 -16.132812 128.417969 -17.160156 C 125.09375 -19.339844 122.328125 -21.351562 120.121094 -23.191406 L 139.261719 -46.160156 L 120.980469 -22.503906 C 118.164062 -24.675781 115.425781 -27.15625 112.761719 -29.941406 L 134.367188 -50.609375 L 113.226562 -29.46875 C 109.882812 -32.808594 107 -36.582031 104.574219 -40.785156 L 130.472656 -55.726562 L 105.121094 -39.878906 C 102.75 -43.671875 100.855469 -47.691406 99.4375 -51.945312 L 127.804688 -61.398438 L 99.976562 -50.464844 C 97.898438 -55.757812 96.765625 -61.316406 96.585938 -67.140625 L 126.46875 -68.074219 L 96.640625 -66.039062 C 96.269531 -71.445312 96.898438 -76.710938 98.523438 -81.835938 C 100.054688 -86.664062 102.429688 -91.1875 105.640625 -95.398438 C 109.6875 -100.667969 114.460938 -105.410156 119.964844 -109.632812 C 119.28125 -109.125 118.824219 -108.632812 118.59375 -108.164062 C 118.832031 -108.648438 118.957031 -109.015625 118.960938 -109.261719 C 118.972656 -109.808594 118.789062 -110.539062 118.410156 -111.457031 C 116.019531 -117.085938 113.019531 -121.5 109.402344 -124.699219 C 104.851562 -128.699219 99.824219 -131.59375 94.332031 -133.382812 C 88.457031 -135.292969 81.820312 -136.050781 74.425781 -135.660156 C 56.753906 -134.664062 41.910156 -130.710938 29.898438 -123.800781 C 27.996094 -122.6875 26.683594 -121.851562 25.964844 -121.289062 C 26.21875 -121.488281 26.5625 -121.8125 26.996094 -122.261719 C 28.53125 -123.863281 29.855469 -125.777344 30.96875 -128.003906 L 30.765625 -127.597656 L 30.550781 -127.199219 C 31.21875 -128.4375 31.726562 -129.628906 32.082031 -130.773438 C 32.175781 -131.085938 32.234375 -131.289062 32.253906 -131.390625 C 32.09375 -130.570312 31.949219 -129.277344 31.8125 -127.511719 Z M 80.882812 -98.832031 C 78.714844 -99.453125 76.148438 -99.238281 73.191406 -98.183594 C 75.3125 -98.984375 77.113281 -100.109375 78.601562 -101.558594 C 80.1875 -103.105469 81.355469 -104.835938 82.109375 -106.75 L 54.28125 -117.683594 L 82.378906 -107.464844 C 83.03125 -109.261719 83.378906 -110.808594 83.414062 -112.113281 C 83.40625 -111.769531 83.46875 -111.078125 83.601562 -110.039062 C 83.667969 -109.507812 83.738281 -109.078125 83.808594 -108.746094 C 83.820312 -108.691406 83.828125 -108.65625 83.828125 -108.644531 C 83.808594 -108.730469 83.773438 -108.835938 83.734375 -108.964844 C 83.519531 -109.621094 83.214844 -110.332031 82.820312 -111.097656 C 82.042969 -112.597656 81.050781 -114.035156 79.839844 -115.410156 C 78.171875 -117.332031 76.058594 -118.742188 73.5 -119.640625 C 72.527344 -119.984375 71.582031 -120.203125 70.671875 -120.300781 C 70.195312 -120.351562 69.808594 -120.363281 69.511719 -120.339844 C 71.214844 -120.507812 73.1875 -120.820312 75.429688 -121.28125 C 76.214844 -121.445312 76.949219 -121.6875 77.632812 -122.011719 C 76.476562 -121.472656 75.414062 -120.667969 74.445312 -119.601562 C 73.6875 -118.769531 73.152344 -117.964844 72.851562 -117.195312 C 71.945312 -114.933594 71.691406 -112.398438 72.09375 -109.589844 C 72.460938 -107.023438 73.289062 -104.875 74.585938 -103.140625 L 98.550781 -121.019531 L 75.152344 -102.40625 C 75.679688 -101.742188 76.359375 -101.121094 77.191406 -100.542969 C 78.21875 -99.832031 79.324219 -99.296875 80.503906 -98.945312 Z M 97.6875 -156.21875 C 102.574219 -154.753906 107.109375 -152.570312 111.289062 -149.667969 C 115.273438 -146.902344 118.828125 -143.558594 121.949219 -139.632812 L 122.238281 -139.269531 L 122.515625 -138.898438 C 127.292969 -132.488281 130.21875 -125.539062 131.289062 -118.046875 C 132.398438 -110.304688 131.457031 -102.707031 128.476562 -95.257812 C 126.097656 -89.21875 122.820312 -83.910156 118.652344 -79.335938 C 114.269531 -74.523438 109.128906 -70.734375 103.230469 -67.96875 C 98.277344 -65.625 93.003906 -63.867188 87.414062 -62.695312 C 83.128906 -61.820312 78.796875 -61.167969 74.421875 -60.742188 C 67.035156 -60.136719 60.125 -60.960938 53.691406 -63.222656 C 46.277344 -65.824219 40.027344 -70.054688 34.949219 -75.90625 C 31.421875 -79.914062 28.734375 -84.75 26.886719 -90.414062 C 25.730469 -93.957031 24.863281 -97.957031 24.292969 -102.414062 C 23.757812 -106.5625 23.542969 -110.375 23.644531 -113.851562 C 23.792969 -118.972656 24.640625 -123.65625 26.183594 -127.898438 L 26.3125 -128.257812 L 26.453125 -128.613281 C 28.835938 -134.679688 32.304688 -139.933594 36.855469 -144.371094 C 41.308594 -148.714844 46.746094 -152.097656 53.167969 -154.53125 C 60.4375 -157.113281 67.707031 -158.578125 74.976562 -158.921875 C 82.566406 -159.277344 90.011719 -158.414062 97.308594 -156.328125 Z M 97.6875 -156.21875 "/></g></g></g><g clip-path="url(#fdc54335bb)"><g fill="#45377f" fill-opacity="1"><g transform="translate(815.495419, 233.334864)"><g><path d="M -15.863281 -169.402344 C -13.367188 -177.417969 -9.285156 -184.007812 -3.617188 -189.167969 C -0.210938 -192.277344 3.617188 -194.707031 7.867188 -196.46875 C 11.839844 -198.117188 16.03125 -199.105469 20.433594 -199.441406 L 20.800781 -199.46875 L 21.167969 -199.488281 C 37.179688 -200.304688 53.148438 -199.9375 69.082031 -198.382812 C 87.359375 -196.59375 105.414062 -191.007812 123.253906 -181.628906 C 143.679688 -170.8125 160.074219 -156.792969 172.441406 -139.574219 C 183.5 -124.074219 190.511719 -107.085938 193.476562 -88.605469 C 194.730469 -80.265625 194.648438 -72.070312 193.234375 -64.015625 C 191.863281 -56.199219 189.269531 -48.5625 185.453125 -41.105469 C 179.230469 -29.035156 172.285156 -18.824219 164.617188 -10.472656 C 155.429688 -0.480469 145.011719 7.480469 133.351562 13.410156 C 122.128906 19.269531 109.800781 23.269531 96.359375 25.410156 C 81.015625 27.894531 65.304688 28.339844 49.222656 26.75 C 35.445312 25.464844 21.6875 23.90625 7.949219 22.074219 L 11.902344 -7.5625 L 8.773438 22.171875 C 3.566406 21.621094 -1.15625 20.417969 -5.394531 18.550781 C -12.113281 15.59375 -17.421875 11.195312 -21.316406 5.351562 C -25.847656 -1.441406 -28.222656 -9.160156 -28.441406 -17.808594 C -29.207031 -38.59375 -28.902344 -63.53125 -27.53125 -92.621094 C -26.074219 -123.324219 -22.195312 -148.890625 -15.890625 -169.324219 Z M 41.25 -151.6875 C 36.433594 -136.082031 33.417969 -115.453125 32.203125 -89.796875 C 30.90625 -62.382812 30.617188 -38.894531 31.335938 -19.34375 C 31.304688 -20.445312 31.117188 -21.613281 30.761719 -22.84375 C 30.257812 -24.589844 29.484375 -26.25 28.4375 -27.820312 C 26.996094 -29.976562 25.277344 -31.84375 23.277344 -33.410156 C 21.816406 -34.554688 20.289062 -35.476562 18.6875 -36.183594 C 17.230469 -36.824219 16.011719 -37.195312 15.03125 -37.296875 L 15.441406 -37.253906 L 15.851562 -37.199219 C 28.8125 -35.472656 41.898438 -33.992188 55.109375 -32.757812 C 66.023438 -31.675781 76.632812 -31.972656 86.945312 -33.640625 C 93.976562 -34.761719 100.40625 -36.84375 106.238281 -39.882812 C 111.488281 -42.554688 116.269531 -46.234375 120.578125 -50.925781 C 124.625 -55.332031 128.503906 -61.136719 132.21875 -68.34375 C 133.300781 -70.453125 134.003906 -72.457031 134.339844 -74.355469 C 134.628906 -76.015625 134.660156 -77.605469 134.433594 -79.132812 C 132.949219 -88.382812 129.429688 -96.902344 123.875 -104.6875 C 116.960938 -114.3125 107.480469 -122.316406 95.425781 -128.703125 C 84.492188 -134.453125 73.777344 -137.839844 63.28125 -138.867188 C 50.292969 -140.132812 37.273438 -140.433594 24.214844 -139.765625 L 22.691406 -169.625 L 24.949219 -139.8125 C 26.90625 -139.960938 28.84375 -140.433594 30.757812 -141.226562 C 32.949219 -142.132812 34.914062 -143.382812 36.652344 -144.96875 C 38.066406 -146.253906 39.222656 -147.664062 40.117188 -149.195312 C 40.625 -150.0625 40.992188 -150.867188 41.226562 -151.609375 Z M 84.757812 -82.210938 C 84.929688 -80.039062 85.519531 -78.167969 86.53125 -76.601562 C 86.710938 -76.324219 86.84375 -76.140625 86.933594 -76.046875 C 86.730469 -76.257812 86.410156 -76.53125 85.980469 -76.863281 L 104.222656 -100.550781 L 87.128906 -76.023438 C 85.5625 -77.113281 83.691406 -78.253906 81.519531 -79.445312 L 95.878906 -105.667969 L 82.597656 -78.882812 C 76.652344 -81.832031 70.613281 -83.6875 64.476562 -84.453125 C 63.300781 -84.621094 62.496094 -84.699219 62.0625 -84.683594 L 61.066406 -114.566406 L 63.617188 -84.777344 C 65.332031 -84.925781 67.039062 -85.34375 68.746094 -86.039062 C 70.75 -86.851562 72.5625 -87.972656 74.191406 -89.398438 C 77.351562 -92.265625 79.683594 -95.375 81.183594 -98.730469 C 81.605469 -99.667969 81.917969 -100.511719 82.125 -101.265625 C 82.054688 -101.003906 81.921875 -100.238281 81.726562 -98.964844 C 80.992188 -94.523438 80.394531 -89.789062 79.945312 -84.753906 C 79.402344 -79.378906 79.066406 -74.527344 78.9375 -70.199219 C 78.886719 -68.46875 78.878906 -67.253906 78.914062 -66.5625 C 78.898438 -66.84375 78.851562 -67.25 78.769531 -67.78125 C 78.371094 -70.386719 77.527344 -72.976562 76.238281 -75.550781 L 77.191406 -73.648438 L 77.863281 -71.632812 C 77.074219 -74 75.953125 -76.234375 74.496094 -78.335938 C 72.5 -81.222656 70.027344 -83.648438 67.082031 -85.609375 L 50.5 -60.730469 L 64.070312 -87.371094 C 65.660156 -86.5625 67.617188 -85.914062 69.9375 -85.417969 C 72.117188 -84.984375 74.277344 -84.820312 76.417969 -84.921875 C 80.257812 -85.066406 84.546875 -85.828125 89.289062 -87.210938 C 89.457031 -87.257812 89.554688 -87.289062 89.582031 -87.296875 L 89.566406 -87.289062 C 89.476562 -87.253906 89.363281 -87.207031 89.234375 -87.140625 C 88.71875 -86.886719 88.1875 -86.535156 87.640625 -86.09375 C 86.117188 -84.859375 84.980469 -83.351562 84.230469 -81.566406 C 84.550781 -82.324219 84.699219 -83.015625 84.683594 -83.644531 L 114.566406 -84.535156 Z M 144.375 -86.859375 L 144.429688 -86.144531 L 144.453125 -85.425781 C 144.730469 -76.117188 143.027344 -67.097656 139.34375 -58.363281 C 136.21875 -50.941406 131.539062 -44.707031 125.308594 -39.652344 C 119.78125 -35.167969 113.355469 -31.886719 106.03125 -29.804688 C 96.535156 -27.035156 87.628906 -25.5 79.304688 -25.195312 C 72.25 -24.855469 64.992188 -25.429688 57.53125 -26.921875 C 50.066406 -28.507812 43.199219 -30.894531 36.925781 -34.089844 L 35.367188 -34.882812 L 33.914062 -35.855469 C 30.527344 -38.113281 27.664062 -40.925781 25.332031 -44.296875 C 23.542969 -46.878906 22.144531 -49.6875 21.132812 -52.722656 L 49.496094 -62.179688 L 22.753906 -48.808594 C 21.246094 -51.824219 20.21875 -55.117188 19.667969 -58.6875 C 19.4375 -60.183594 19.28125 -61.8125 19.191406 -63.578125 C 19.078125 -65.851562 19.070312 -68.644531 19.167969 -71.957031 C 19.335938 -77.710938 19.742188 -83.757812 20.386719 -90.101562 C 20.972656 -96.636719 21.710938 -102.574219 22.605469 -107.921875 C 23.15625 -111.546875 23.78125 -114.636719 24.488281 -117.191406 C 26.414062 -124.160156 29.855469 -129.894531 34.816406 -134.398438 C 38.222656 -137.378906 42.019531 -139.722656 46.210938 -141.429688 C 50.105469 -143.011719 54.203125 -143.988281 58.511719 -144.355469 L 59.289062 -144.421875 L 60.070312 -144.449219 C 64.085938 -144.582031 68.027344 -144.363281 71.894531 -143.789062 C 84.738281 -142.183594 97.164062 -138.40625 109.164062 -132.457031 L 109.707031 -132.183594 L 110.242188 -131.894531 C 114.296875 -129.671875 117.992188 -127.402344 121.320312 -125.082031 L 121.902344 -124.675781 L 122.464844 -124.242188 C 128.410156 -119.660156 133.175781 -114.597656 136.765625 -109.042969 C 141.222656 -102.136719 143.761719 -94.742188 144.375 -86.859375 Z M 144.375 -86.859375 "/></g></g></g></g><g fill="#ffeea2" fill-opacity="1"><g transform="translate(30.004014, 233.334864)"><g><path d="M 56.609375 -163.625 C 53.347656 -142.1875 52.203125 -118.640625 53.171875 -92.984375 C 54.054688 -67.328125 57.503906 -44.640625 63.515625 -24.921875 C 64.109375 -22.835938 64.773438 -20.6875 65.515625 -18.46875 C 66.253906 -16.238281 66.695312 -14.050781 66.84375 -11.90625 C 66.914062 -7.894531 65.023438 -5.039062 61.171875 -3.34375 C 57.242188 -1.632812 52.722656 -0.664062 47.609375 -0.4375 C 42.410156 -0.21875 37.289062 -0.554688 32.25 -1.453125 C 27.207031 -2.265625 23.648438 -3.265625 21.578125 -4.453125 C 17.796875 -6.523438 14.941406 -9.675781 13.015625 -13.90625 C 11.015625 -18.050781 9.457031 -22.09375 8.34375 -26.03125 C 6.1875 -33.664062 4.519531 -43.378906 3.34375 -55.171875 C 2.15625 -66.960938 1.484375 -79.160156 1.328125 -91.765625 C 1.109375 -104.296875 1.367188 -116.34375 2.109375 -127.90625 C 2.847656 -139.476562 4.109375 -148.859375 5.890625 -156.046875 C 7.523438 -162.648438 9.453125 -167.804688 11.671875 -171.515625 C 13.523438 -174.628906 15.828125 -176.742188 18.578125 -177.859375 C 21.765625 -179.191406 25.546875 -180.003906 29.921875 -180.296875 C 34.296875 -180.523438 38.222656 -180.453125 41.703125 -180.078125 C 46.753906 -179.554688 50.722656 -178.257812 53.609375 -176.1875 C 56.503906 -174.039062 57.503906 -169.851562 56.609375 -163.625 Z M 56.609375 -163.625 "/></g></g></g><g fill="#ffeea2" fill-opacity="1"><g transform="translate(103.357441, 233.334864)"><g><path d="M 3.78125 -65.625 C 5.1875 -70.738281 7.484375 -77.96875 10.671875 -87.3125 C 13.785156 -96.65625 17.273438 -106.222656 21.140625 -116.015625 C 24.921875 -125.796875 28.882812 -134.914062 33.03125 -143.375 C 37.113281 -151.75 40.820312 -157.609375 44.15625 -160.953125 C 44.894531 -161.691406 45.859375 -162.394531 47.046875 -163.0625 C 50.535156 -165.132812 55.316406 -166.429688 61.390625 -166.953125 C 67.472656 -167.472656 72.296875 -167.734375 75.859375 -167.734375 C 76.816406 -167.734375 77.890625 -167.660156 79.078125 -167.515625 C 80.046875 -167.210938 80.710938 -166.914062 81.078125 -166.625 C 81.597656 -166.175781 81.859375 -165.507812 81.859375 -164.625 C 81.859375 -163.726562 81.640625 -162.578125 81.203125 -161.171875 C 79.117188 -155.160156 77.078125 -148.894531 75.078125 -142.375 C 73.078125 -135.84375 72.222656 -129.6875 72.515625 -123.90625 C 72.585938 -120.269531 73.441406 -117.75 75.078125 -116.34375 C 75.816406 -115.53125 76.597656 -114.972656 77.421875 -114.671875 C 78.015625 -114.234375 78.753906 -113.898438 79.640625 -113.671875 C 80.679688 -113.523438 81.421875 -113.453125 81.859375 -113.453125 C 91.796875 -114.191406 101.289062 -113.375 110.34375 -111 C 118.351562 -108.851562 127.4375 -103.550781 137.59375 -95.09375 C 147.75 -86.644531 151.9375 -76.859375 150.15625 -65.734375 C 149.34375 -61.140625 147.675781 -56.320312 145.15625 -51.28125 C 142.632812 -46.601562 139.519531 -42.003906 135.8125 -37.484375 C 132.101562 -32.960938 128.207031 -28.992188 124.125 -25.578125 C 115.457031 -18.316406 105.742188 -12.609375 94.984375 -8.453125 C 85.046875 -4.597656 74.519531 -2.148438 63.40625 -1.109375 C 40.34375 0.816406 23.097656 -3.851562 11.671875 -15.125 C 0.179688 -26.394531 -2.445312 -43.226562 3.78125 -65.625 Z M 86.3125 -40.703125 C 87.195312 -41.003906 88.125 -41.414062 89.09375 -41.9375 C 95.539062 -45.414062 99.582031 -50.050781 101.21875 -55.84375 C 101.957031 -58.4375 102.066406 -60.878906 101.546875 -63.171875 C 101.023438 -65.546875 100.023438 -67.585938 98.546875 -69.296875 C 96.097656 -72.191406 92.578125 -73.972656 87.984375 -74.640625 C 83.304688 -75.304688 78.894531 -75.640625 74.75 -75.640625 C 70.070312 -75.484375 66.03125 -74.296875 62.625 -72.078125 C 61.21875 -71.035156 59.992188 -70 58.953125 -68.96875 C 56.796875 -66.738281 54.976562 -63.066406 53.5 -57.953125 C 52.019531 -52.765625 51.578125 -49.019531 52.171875 -46.71875 C 52.910156 -43.820312 54.578125 -41.632812 57.171875 -40.15625 C 58.054688 -39.632812 58.984375 -39.300781 59.953125 -39.15625 C 68.398438 -36.851562 77.1875 -37.367188 86.3125 -40.703125 Z M 86.3125 -40.703125 "/></g></g></g><g fill="#ffeea2" fill-opacity="1"><g transform="translate(261.246077, 233.334864)"><g/></g></g><g fill="#ffeea2" fill-opacity="1"><g transform="translate(315.245404, 233.334864)"><g><path d="M 132.921875 -166.734375 C 140.035156 -165.097656 145.671875 -163.054688 149.828125 -160.609375 C 154.722656 -157.648438 157.171875 -154.128906 157.171875 -150.046875 C 157.171875 -145.296875 156.757812 -140.550781 155.9375 -135.8125 C 155.125 -131.0625 153.53125 -126.613281 151.15625 -122.46875 C 147.75 -116.457031 144.453125 -113.453125 141.265625 -113.453125 C 138.367188 -113.453125 135.550781 -113.9375 132.8125 -114.90625 C 129.988281 -115.863281 127.242188 -116.789062 124.578125 -117.6875 C 119.015625 -119.539062 111.453125 -120.316406 101.890625 -120.015625 C 92.316406 -119.640625 83.34375 -117.5625 74.96875 -113.78125 C 66.507812 -110 60.019531 -104.144531 55.5 -96.21875 C 50.90625 -88.28125 50.90625 -77.675781 55.5 -64.40625 C 58.84375 -54.6875 65.664062 -47.710938 75.96875 -43.484375 C 86.28125 -39.191406 96.773438 -37.5625 107.453125 -38.59375 C 115.609375 -39.40625 124.171875 -42.554688 133.140625 -48.046875 C 142.109375 -53.535156 151.082031 -51.609375 160.0625 -42.265625 C 165.25 -36.773438 165.175781 -31.328125 159.84375 -25.921875 C 154.425781 -20.503906 149.710938 -16.347656 145.703125 -13.453125 C 142.890625 -11.453125 140.113281 -9.75 137.375 -8.34375 C 129.800781 -4.332031 122.195312 -1.992188 114.5625 -1.328125 C 106.925781 -0.660156 99.328125 -0.660156 91.765625 -1.328125 C 81.679688 -2.296875 72.003906 -4.632812 62.734375 -8.34375 C 55.390625 -11.238281 48.378906 -15.09375 41.703125 -19.90625 C 34.960938 -24.65625 29.035156 -30.515625 23.921875 -37.484375 C 14.421875 -50.234375 8.078125 -64.429688 4.890625 -80.078125 C -0.222656 -104.253906 5.632812 -124.425781 22.46875 -140.59375 C 30.914062 -148.75 40.484375 -154.867188 51.171875 -158.953125 C 61.773438 -163.023438 72.039062 -165.878906 81.96875 -167.515625 C 90.28125 -168.847656 98.773438 -169.515625 107.453125 -169.515625 C 116.128906 -169.515625 124.617188 -168.585938 132.921875 -166.734375 Z M 132.921875 -166.734375 "/></g></g></g><g fill="#ffeea2" fill-opacity="1"><g transform="translate(484.590768, 233.334864)"><g><path d="M 98.328125 -41.828125 C 92.765625 -39.816406 85.085938 -38.109375 75.296875 -36.703125 C 65.441406 -35.296875 57.175781 -34.773438 50.5 -35.140625 C 48.789062 -27.066406 47.492188 -19.765625 46.609375 -13.234375 C 45.640625 -6.929688 43.488281 -3.222656 40.15625 -2.109375 C 36.738281 -0.992188 32.546875 -0.882812 27.578125 -1.78125 C 24.171875 -2.375 20.425781 -3.445312 16.34375 -5 C 12.195312 -6.488281 8.75 -8.34375 6 -10.5625 C 3.707031 -12.488281 2.148438 -15.160156 1.328125 -18.578125 C 0.660156 -21.171875 0.289062 -23.914062 0.21875 -26.8125 C 0.0703125 -29.625 0.0703125 -32.363281 0.21875 -35.03125 C 0.59375 -42.375 2.078125 -51.71875 4.671875 -63.0625 C 7.265625 -74.40625 10.488281 -86.050781 14.34375 -98 C 18.125 -109.9375 22.316406 -121.390625 26.921875 -132.359375 C 31.441406 -143.335938 35.851562 -152.160156 40.15625 -158.828125 C 42.300781 -162.242188 44.929688 -165.691406 48.046875 -169.171875 C 51.160156 -172.585938 54.832031 -174.738281 59.0625 -175.625 C 63.289062 -176.519531 68.890625 -176.410156 75.859375 -175.296875 C 82.828125 -174.179688 88.054688 -172.179688 91.546875 -169.296875 C 97.617188 -166.023438 103.957031 -158.679688 110.5625 -147.265625 C 117.082031 -135.847656 123.125 -123.28125 128.6875 -109.5625 C 134.25 -95.769531 139.035156 -82.3125 143.046875 -69.1875 C 146.972656 -56.0625 149.378906 -46.234375 150.265625 -39.703125 C 151.160156 -33.179688 151.3125 -27.695312 150.71875 -23.25 C 150.050781 -19.539062 148.675781 -16.757812 146.59375 -14.90625 C 144 -12.382812 140.738281 -10.195312 136.8125 -8.34375 C 132.882812 -6.488281 129.25 -5.117188 125.90625 -4.234375 C 121.007812 -2.890625 116.820312 -2.664062 113.34375 -3.5625 C 109.851562 -4.375 107.441406 -7.859375 106.109375 -14.015625 C 104.109375 -22.242188 101.515625 -31.515625 98.328125 -41.828125 Z M 55.84375 -56.84375 C 67.1875 -56.6875 79.050781 -58.09375 91.4375 -61.0625 C 85.71875 -76.039062 79.265625 -90.316406 72.078125 -103.890625 C 65.921875 -89.429688 60.507812 -73.75 55.84375 -56.84375 Z M 55.84375 -56.84375 "/></g></g></g><g fill="#ffeea2" fill-opacity="1"><g transform="translate(641.255854, 233.334864)"><g><path d="M 2 -129.796875 C 2.445312 -135.585938 3.191406 -139.445312 4.234375 -141.375 C 5.191406 -143.300781 8.710938 -146.046875 14.796875 -149.609375 C 31.035156 -158.953125 50.351562 -164.253906 72.75 -165.515625 C 95.0625 -166.691406 113.859375 -160.570312 129.140625 -147.15625 C 136.179688 -140.925781 141.78125 -132.914062 145.9375 -123.125 C 150.007812 -113.269531 149.820312 -103.851562 145.375 -94.875 C 143.519531 -91.09375 141 -88.015625 137.8125 -85.640625 C 134.625 -83.191406 131.804688 -80.375 129.359375 -77.1875 C 127.210938 -74.375 126.25 -71.335938 126.46875 -68.078125 C 126.539062 -65.703125 126.984375 -63.472656 127.796875 -61.390625 C 128.460938 -59.390625 129.351562 -57.5 130.46875 -55.71875 C 131.582031 -53.789062 132.878906 -52.085938 134.359375 -50.609375 C 135.992188 -48.898438 137.628906 -47.414062 139.265625 -46.15625 C 140.597656 -45.039062 142.445312 -43.707031 144.8125 -42.15625 C 146.082031 -41.34375 148.050781 -40.117188 150.71875 -38.484375 C 151.675781 -37.816406 152.675781 -37.222656 153.71875 -36.703125 C 154.6875 -36.109375 155.6875 -35.515625 156.71875 -34.921875 C 159.382812 -33.441406 161.347656 -32.332031 162.609375 -31.59375 C 166.472656 -29.21875 167.101562 -26.175781 164.5 -22.46875 C 162.351562 -19.351562 159.390625 -16.09375 155.609375 -12.6875 C 151.828125 -9.195312 148.304688 -6.453125 145.046875 -4.453125 C 140.816406 -1.773438 136.070312 -1.515625 130.8125 -3.671875 C 122.570312 -6.929688 114.15625 -13.492188 105.5625 -23.359375 C 96.882812 -33.148438 89.988281 -40.785156 84.875 -46.265625 C 81.90625 -49.160156 78.898438 -51.164062 75.859375 -52.28125 C 72.742188 -53.394531 69.367188 -52.28125 65.734375 -48.9375 C 61.878906 -45.300781 60.359375 -38.738281 61.171875 -29.25 C 61.910156 -19.757812 62.726562 -12.679688 63.625 -8.015625 C 64.070312 -5.117188 63.738281 -3.265625 62.625 -2.453125 C 61.4375 -1.554688 59.617188 -0.960938 57.171875 -0.671875 C 54.347656 -0.296875 51.195312 -0.109375 47.71875 -0.109375 C 44.15625 -0.0351562 40.96875 -0.109375 38.15625 -0.328125 C 36.144531 -0.484375 34.140625 -0.78125 32.140625 -1.21875 C 30.066406 -1.59375 28.328125 -2.597656 26.921875 -4.234375 C 23.953125 -7.335938 20.6875 -15.007812 17.125 -27.25 C 13.488281 -39.414062 11.191406 -47.796875 10.234375 -52.390625 C 10.015625 -53.203125 9.828125 -54.054688 9.671875 -54.953125 C 9.453125 -55.765625 9.269531 -56.613281 9.125 -57.5 C 6.75 -68.476562 4.707031 -80.34375 3 -93.09375 C 1.289062 -105.78125 0.957031 -118.015625 2 -129.796875 Z M 89.09375 -127.578125 C 80.789062 -129.953125 72.148438 -129.546875 63.171875 -126.359375 C 58.878906 -124.722656 55.914062 -121.832031 54.28125 -117.6875 C 53.382812 -115.238281 53.273438 -111.414062 53.953125 -106.21875 C 54.617188 -101.03125 55.765625 -97.507812 57.390625 -95.65625 C 60.804688 -91.726562 65.664062 -90.023438 71.96875 -90.546875 C 75.007812 -90.835938 78.160156 -91.316406 81.421875 -91.984375 C 84.609375 -92.648438 87.609375 -93.648438 90.421875 -94.984375 C 95.171875 -97.210938 98.582031 -100.957031 100.65625 -106.21875 C 102.738281 -111.414062 102.035156 -116.347656 98.546875 -121.015625 C 95.953125 -124.273438 92.800781 -126.460938 89.09375 -127.578125 Z M 89.09375 -127.578125 "/></g></g></g><g fill="#ffeea2" fill-opacity="1"><g transform="translate(815.495419, 233.334864)"><g><path d="M 12.6875 -160.5 C 14.457031 -166.207031 17.789062 -169.25 22.6875 -169.625 C 37.21875 -170.363281 51.71875 -170.03125 66.1875 -168.625 C 80.570312 -167.21875 94.957031 -162.734375 109.34375 -155.171875 C 125.582031 -146.566406 138.519531 -135.550781 148.15625 -122.125 C 156.457031 -110.488281 161.722656 -97.734375 163.953125 -83.859375 C 165.429688 -74.003906 163.722656 -64.289062 158.828125 -54.71875 C 153.859375 -45.082031 148.445312 -37.078125 142.59375 -30.703125 C 135.84375 -23.359375 128.242188 -17.535156 119.796875 -13.234375 C 111.265625 -8.785156 101.882812 -5.742188 91.65625 -4.109375 C 78.820312 -2.035156 65.660156 -1.664062 52.171875 -3 C 38.671875 -4.257812 25.25 -5.78125 11.90625 -7.5625 C 7.675781 -8.007812 4.894531 -9.234375 3.5625 -11.234375 C 2.226562 -13.234375 1.523438 -15.679688 1.453125 -18.578125 C 0.703125 -38.742188 0.992188 -62.953125 2.328125 -91.203125 C 3.671875 -119.378906 7.125 -142.476562 12.6875 -160.5 Z M 114.5625 -84.53125 C 114.125 -90.238281 110.675781 -95.578125 104.21875 -100.546875 C 101.769531 -102.253906 98.988281 -103.960938 95.875 -105.671875 C 86.90625 -110.117188 77.675781 -112.9375 68.1875 -114.125 C 65.664062 -114.488281 63.289062 -114.632812 61.0625 -114.5625 C 58.46875 -114.34375 56.28125 -113.453125 54.5 -111.890625 C 53.6875 -111.148438 52.910156 -108.332031 52.171875 -103.4375 C 51.347656 -98.550781 50.679688 -93.210938 50.171875 -87.421875 C 49.578125 -81.566406 49.203125 -76.117188 49.046875 -71.078125 C 48.898438 -66.035156 49.050781 -63.066406 49.5 -62.171875 C 49.71875 -61.503906 50.050781 -61.023438 50.5 -60.734375 C 54.425781 -58.734375 58.835938 -57.210938 63.734375 -56.171875 C 68.554688 -55.203125 73.265625 -54.832031 77.859375 -55.0625 C 83.941406 -55.28125 90.539062 -56.425781 97.65625 -58.5 C 104.695312 -60.507812 109.40625 -64.332031 111.78125 -69.96875 C 113.78125 -74.707031 114.707031 -79.5625 114.5625 -84.53125 Z M 114.5625 -84.53125 "/></g></g></g></g></g></g></svg>