<svg xmlns="http://www.w3.org/2000/svg" xmlns:xlink="http://www.w3.org/1999/xlink" width="2520" zoomAndPan="magnify" viewBox="0 0 1440 547.92" height="720" preserveAspectRatio="xMidYMid meet" version="1.0"><defs><g/><clipPath id="979a2bb825"><path d="M 0.105469 0 L 1439.894531 0 L 1439.894531 539.921875 L 0.105469 539.921875 Z M 0.105469 0 " clip-rule="nonzero"/></clipPath><clipPath id="d7e6238630"><path d="M 396 123 L 1439.894531 123 L 1439.894531 417 L 396 417 Z M 396 123 " clip-rule="nonzero"/></clipPath><clipPath id="7f0dcec592"><path d="M 858 32 L 1043.894531 32 L 1043.894531 263 L 858 263 Z M 858 32 " clip-rule="nonzero"/></clipPath><clipPath id="35778a0b78"><path d="M 888 62 L 1043.894531 62 L 1043.894531 233 L 888 233 Z M 888 62 " clip-rule="nonzero"/></clipPath><clipPath id="cf3a303ee0"><rect x="0" width="1044" y="0" height="294"/></clipPath></defs><g clip-path="url(#979a2bb825)"><path fill="#ffffff" d="M 0.105469 0 L 1889.828125 0 L 1889.828125 539.921875 L 0.105469 539.921875 Z M 0.105469 0 " fill-opacity="1" fill-rule="nonzero"/><path fill="#ffffff" d="M 0.105469 0 L 1889.828125 0 L 1889.828125 539.921875 L 0.105469 539.921875 Z M 0.105469 0 " fill-opacity="1" fill-rule="nonzero"/></g><g clip-path="url(#d7e6238630)"><g transform="matrix(1, 0, 0, 1, 396, 123)"><g clip-path="url(#cf3a303ee0)"><g fill="#45377f" fill-opacity="1"><g transform="translate(34.967474, 233.334804)"><g><path d="M 174.25 -36.117188 C 175.484375 -29.945312 175.75 -22.972656 175.042969 -15.203125 C 174.277344 -6.757812 172.382812 0.628906 169.371094 6.960938 L 142.375 -5.894531 L 169.929688 5.707031 C 167.621094 11.195312 164.046875 16.125 159.207031 20.503906 L 139.148438 -1.667969 L 160.292969 19.472656 L 160.070312 19.695312 L 138.925781 -1.445312 L 168.824219 -1.445312 L 168.824219 11.050781 L 151.199219 28.675781 L 138.703125 28.675781 L 138.703125 -1.222656 L 159.847656 19.917969 L 159.734375 20.03125 L 150.753906 29.007812 L 138.257812 29.007812 L 138.257812 -0.890625 L 159.402344 20.25 L 150.308594 29.34375 L 137.925781 29.34375 C 141.125 29.34375 144.242188 28.835938 147.285156 27.820312 C 151.71875 26.34375 155.59375 23.949219 158.902344 20.640625 C 162.210938 17.332031 164.601562 13.460938 166.082031 9.023438 C 167.09375 5.984375 167.601562 2.863281 167.601562 -0.332031 L 167.601562 29.566406 L 137.59375 29.566406 L 137.59375 -0.332031 L 158.734375 20.808594 L 150.066406 29.472656 L 137.972656 29.671875 C 132.714844 29.757812 123.234375 29.410156 109.523438 28.625 C 95.875 27.851562 81.523438 26.574219 66.460938 24.796875 C 51.167969 23.074219 36.871094 20.816406 23.566406 18.027344 C 15.699219 16.378906 9.03125 14.46875 3.5625 12.300781 C -4.785156 8.984375 -11.324219 4.625 -16.050781 -0.777344 C -19.679688 -4.894531 -22.613281 -9.457031 -24.847656 -14.464844 C -27.050781 -19.410156 -28.496094 -24.640625 -29.175781 -30.160156 C -30.339844 -39.636719 -29.214844 -49.691406 -25.792969 -60.324219 C -20.863281 -75.917969 -15.128906 -88.519531 -8.589844 -98.128906 C -3.609375 -105.402344 2.585938 -111.484375 9.992188 -116.378906 C 15.855469 -120.214844 22 -123.398438 28.429688 -125.929688 C 35.335938 -128.550781 42.773438 -130.984375 50.746094 -133.226562 C 53.429688 -133.960938 55.363281 -134.859375 56.550781 -135.914062 C 54.488281 -134.125 52.859375 -131.730469 51.660156 -128.730469 C 50.332031 -125.414062 49.882812 -122.0625 50.316406 -118.679688 C 50.578125 -116.671875 51.117188 -114.738281 51.929688 -112.875 C 52.816406 -110.84375 53.984375 -108.988281 55.429688 -107.316406 C 57.59375 -104.808594 60.023438 -103.027344 62.71875 -101.972656 L 73.632812 -129.804688 L 63.34375 -101.734375 C 63.851562 -101.546875 64.289062 -101.421875 64.652344 -101.355469 C 64.605469 -101.363281 64.453125 -101.375 64.203125 -101.386719 C 62.886719 -101.417969 61.25 -101.359375 59.296875 -101.214844 L 49.78125 -100.449219 C 40.359375 -99.523438 31.808594 -101.097656 24.125 -105.183594 L 38.152344 -131.585938 L 24.78125 -104.84375 C 20.996094 -106.734375 17.445312 -109.34375 14.117188 -112.667969 L 5.359375 -121.425781 L 5.359375 -133.921875 L 35.261719 -133.921875 L 35.261719 -104.023438 C 32.007812 -104.023438 28.839844 -104.535156 25.757812 -105.5625 C 21.277344 -107.058594 17.371094 -109.472656 14.035156 -112.808594 C 10.699219 -116.144531 8.285156 -120.050781 6.792969 -124.53125 C 5.765625 -127.613281 5.25 -130.78125 5.25 -134.03125 L 5.25 -134.144531 L 35.148438 -134.144531 L 35.148438 -104.246094 L 22.652344 -104.246094 L 13.894531 -113.003906 C 11.570312 -115.328125 9.675781 -117.953125 8.210938 -120.882812 C 6.089844 -125.128906 5.027344 -129.625 5.027344 -134.367188 L 34.925781 -134.367188 L 34.925781 -104.46875 C 31.671875 -104.46875 28.503906 -104.980469 25.421875 -106.007812 C 20.945312 -107.5 17.039062 -109.917969 13.703125 -113.253906 C 10.363281 -116.589844 7.949219 -120.496094 6.457031 -124.972656 C 5.429688 -128.058594 4.917969 -131.222656 4.917969 -134.476562 L 34.816406 -134.476562 L 10.636719 -116.890625 C 6.011719 -123.25 3.472656 -130.304688 3.019531 -138.050781 C 2.628906 -144.757812 3.886719 -151.40625 6.789062 -157.992188 C 10.222656 -166.105469 14.84375 -172.816406 20.648438 -178.121094 L 40.820312 -156.054688 L 10.921875 -156.054688 C 10.921875 -159.914062 11.640625 -163.636719 13.074219 -167.222656 C 13.855469 -169.171875 14.832031 -171.027344 16 -172.78125 C 17.132812 -174.476562 18.433594 -176.0625 19.902344 -177.53125 L 28.992188 -186.621094 L 41.601562 -186.621094 L 41.601562 -156.722656 L 11.703125 -156.722656 C 11.703125 -159.996094 12.21875 -163.179688 13.25 -166.277344 C 14.746094 -170.769531 17.167969 -174.6875 20.515625 -178.03125 C 23.859375 -181.378906 27.777344 -183.800781 32.269531 -185.296875 C 35.367188 -186.328125 38.550781 -186.84375 41.824219 -186.84375 L 41.824219 -156.945312 L 22.039062 -179.367188 C 24.832031 -181.828125 27.886719 -184.007812 31.214844 -185.910156 C 37.851562 -189.792969 45.773438 -192.65625 54.980469 -194.496094 C 65.011719 -196.367188 74.820312 -197.109375 84.40625 -196.71875 C 94.667969 -196.207031 104.359375 -194.464844 113.484375 -191.492188 C 123.273438 -188.195312 132.289062 -183.625 140.535156 -177.777344 C 152.480469 -169.117188 161.632812 -160.046875 167.988281 -150.570312 C 173.550781 -142.179688 176.332031 -132.746094 176.332031 -122.269531 C 176.332031 -114.070312 174.566406 -105.410156 171.027344 -96.296875 C 167.75 -87.640625 162.679688 -79.816406 155.816406 -72.824219 C 151.410156 -68.183594 146.085938 -63.953125 139.835938 -60.136719 C 135.027344 -57.074219 129.441406 -54.390625 123.078125 -52.085938 C 119.84375 -50.882812 115.152344 -49.425781 109 -47.71875 L 108.625 -47.613281 L 108.25 -47.519531 C 103.230469 -46.265625 99.585938 -45.3125 97.308594 -44.664062 L 96.886719 -44.542969 L 96.460938 -44.433594 C 93.199219 -43.605469 90.546875 -42.800781 88.503906 -42.023438 L 77.863281 -69.964844 L 89.324219 -42.351562 C 86.960938 -41.367188 85.089844 -40.441406 83.707031 -39.566406 L 67.738281 -64.847656 L 85.066406 -40.480469 C 84.082031 -39.78125 83.410156 -39.199219 83.039062 -38.726562 C 82.570312 -38.105469 82.164062 -37.484375 81.820312 -36.863281 C 81.738281 -36.71875 81.683594 -36.609375 81.652344 -36.535156 C 81.679688 -36.605469 81.71875 -36.707031 81.761719 -36.847656 C 82.882812 -40.203125 83.160156 -43.839844 82.589844 -47.761719 C 81.910156 -52.425781 80.101562 -56.570312 77.160156 -60.191406 C 75.25 -62.546875 73.070312 -64.402344 70.625 -65.761719 C 69.601562 -66.328125 68.6875 -66.730469 67.878906 -66.964844 L 68.425781 -66.808594 L 68.964844 -66.628906 C 69.96875 -66.292969 72.320312 -65.808594 76.015625 -65.175781 C 80.367188 -64.382812 84.648438 -63.769531 88.867188 -63.328125 C 93.6875 -62.753906 98.359375 -62.300781 102.890625 -61.960938 C 108.828125 -61.410156 113.945312 -61.269531 118.242188 -61.539062 C 122.820312 -61.832031 128.117188 -62.539062 134.140625 -63.65625 L 139.59375 -34.257812 L 132.34375 -63.265625 C 135.019531 -63.933594 137.84375 -64.269531 140.816406 -64.269531 C 143.789062 -64.269531 146.617188 -63.933594 149.292969 -63.265625 L 150.40625 -62.988281 L 151.496094 -62.625 C 154.472656 -61.632812 157.183594 -60.320312 159.628906 -58.691406 L 162.089844 -57.050781 L 166.132812 -53.007812 L 167.167969 -51.714844 C 169.683594 -48.566406 171.582031 -45.085938 172.851562 -41.265625 L 144.488281 -31.8125 L 172.25 -42.917969 C 172.996094 -41.042969 173.621094 -38.984375 174.121094 -36.742188 Z M 115.746094 -23.769531 C 115.949219 -22.859375 116.277344 -21.835938 116.726562 -20.707031 L 116.402344 -21.523438 L 116.125 -22.355469 C 117.101562 -19.429688 118.550781 -16.761719 120.472656 -14.359375 L 143.820312 -33.035156 L 122.679688 -11.894531 L 121.902344 -12.671875 L 143.042969 -33.8125 L 126.457031 -8.9375 C 128.457031 -7.605469 130.5 -6.589844 132.585938 -5.894531 L 142.042969 -34.257812 L 134.789062 -5.253906 C 136.875 -4.730469 138.882812 -4.472656 140.816406 -4.472656 C 142.753906 -4.472656 144.761719 -4.730469 146.847656 -5.253906 L 145.953125 -5.03125 L 145.050781 -4.863281 C 136.683594 -3.308594 129.007812 -2.308594 122.015625 -1.863281 C 114.597656 -1.390625 106.738281 -1.546875 98.4375 -2.328125 C 93.03125 -2.734375 87.765625 -3.242188 82.652344 -3.855469 C 76.933594 -4.453125 71.351562 -5.246094 65.914062 -6.234375 C 59.226562 -7.382812 53.941406 -8.601562 50.054688 -9.898438 L 59.507812 -38.261719 L 51.136719 -9.558594 C 42.492188 -12.082031 35.691406 -16.398438 30.730469 -22.507812 C 26.753906 -27.410156 24.316406 -32.957031 23.414062 -39.152344 C 22.621094 -44.601562 23.082031 -49.890625 24.796875 -55.027344 C 26.949219 -61.777344 30.675781 -68.640625 35.976562 -75.617188 C 39.910156 -80.632812 44.722656 -85.167969 50.414062 -89.214844 L 51.082031 -89.6875 L 51.773438 -90.125 C 56.027344 -92.8125 60.902344 -95.296875 66.398438 -97.578125 L 66.804688 -97.746094 L 67.21875 -97.902344 C 71.40625 -99.5 76.242188 -100.992188 81.730469 -102.390625 L 89.09375 -73.414062 L 80.882812 -102.160156 C 83.796875 -102.992188 88.085938 -104.117188 93.746094 -105.53125 L 100.996094 -76.527344 L 92.996094 -105.335938 C 97.519531 -106.589844 100.761719 -107.582031 102.71875 -108.308594 C 104.957031 -109.121094 106.933594 -110.070312 108.652344 -111.160156 C 110.414062 -112.234375 111.910156 -113.417969 113.140625 -114.710938 C 114.136719 -115.726562 114.851562 -116.800781 115.28125 -117.933594 C 115.808594 -119.289062 116.179688 -120.464844 116.394531 -121.457031 C 116.488281 -121.898438 116.535156 -122.167969 116.535156 -122.269531 C 116.535156 -121.75 116.636719 -121.136719 116.835938 -120.429688 C 117.136719 -119.363281 117.628906 -118.3125 118.320312 -117.273438 C 115.925781 -120.84375 111.800781 -124.753906 105.953125 -128.996094 C 102.484375 -131.453125 98.820312 -133.335938 94.960938 -134.636719 C 90.886719 -135.964844 86.5625 -136.742188 81.992188 -136.972656 C 76.898438 -137.175781 71.800781 -136.804688 66.707031 -135.859375 C 64.046875 -135.328125 62.105469 -134.703125 60.882812 -133.988281 C 61.097656 -134.113281 61.335938 -134.289062 61.605469 -134.527344 L 53.128906 -127.046875 L 41.824219 -127.046875 C 45.019531 -127.046875 48.140625 -127.554688 51.179688 -128.566406 C 55.617188 -130.046875 59.488281 -132.441406 62.796875 -135.75 C 66.105469 -139.058594 68.5 -142.929688 69.980469 -147.367188 C 70.992188 -150.40625 71.5 -153.527344 71.5 -156.722656 L 71.5 -126.824219 L 41.378906 -126.824219 L 41.378906 -156.722656 L 62.519531 -135.582031 L 62.40625 -135.472656 L 62.1875 -135.25 C 63.507812 -136.570312 64.695312 -138.023438 65.753906 -139.609375 C 66.886719 -141.308594 67.835938 -143.109375 68.597656 -145.015625 C 70.011719 -148.554688 70.71875 -152.238281 70.71875 -156.054688 L 70.71875 -142.878906 L 60.996094 -133.992188 C 61.527344 -134.476562 61.917969 -134.90625 62.167969 -135.289062 C 62.058594 -135.121094 61.835938 -134.652344 61.507812 -133.878906 C 62.480469 -136.089844 62.886719 -138.636719 62.714844 -141.527344 C 62.488281 -145.453125 61.246094 -148.964844 58.996094 -152.0625 L 64.714844 -144.199219 L 64.714844 -134.476562 C 64.714844 -137.695312 64.203125 -140.828125 63.1875 -143.882812 C 61.703125 -148.332031 59.300781 -152.21875 55.984375 -155.535156 C 52.667969 -158.855469 48.78125 -161.253906 44.332031 -162.738281 C 41.277344 -163.757812 38.140625 -164.265625 34.925781 -164.265625 L 64.824219 -164.265625 L 64.824219 -134.367188 C 64.824219 -139.035156 63.78125 -143.453125 61.695312 -147.625 C 60.269531 -150.484375 58.429688 -153.035156 56.179688 -155.285156 L 35.039062 -134.144531 L 35.039062 -164.042969 L 65.046875 -164.042969 L 65.046875 -134.03125 C 65.046875 -137.25 64.539062 -140.382812 63.519531 -143.4375 C 62.035156 -147.890625 59.636719 -151.773438 56.316406 -155.089844 C 53 -158.410156 49.117188 -160.808594 44.667969 -162.292969 C 41.613281 -163.3125 38.476562 -163.820312 35.261719 -163.820312 L 65.160156 -163.820312 L 65.160156 -133.808594 L 35.261719 -133.808594 L 56.402344 -154.953125 C 55.152344 -156.199219 53.527344 -157.328125 51.523438 -158.328125 L 51.851562 -158.164062 L 52.179688 -157.988281 C 50.300781 -158.988281 48.414062 -159.625 46.519531 -159.898438 C 45.664062 -160.019531 45.15625 -160.074219 44.984375 -160.054688 L 54.824219 -160.84375 C 58.804688 -161.144531 62.878906 -161.234375 67.046875 -161.117188 C 73.210938 -160.824219 78.835938 -159.742188 83.925781 -157.878906 L 84.238281 -157.761719 L 84.550781 -157.640625 C 91.027344 -155.101562 96.40625 -151.355469 100.683594 -146.402344 C 103.1875 -143.503906 105.199219 -140.308594 106.726562 -136.808594 C 108.179688 -133.484375 109.148438 -129.964844 109.632812 -126.25 C 110.511719 -119.382812 109.691406 -112.804688 107.179688 -106.523438 C 104.792969 -100.558594 101.160156 -95.457031 96.277344 -91.21875 C 88.125 -83.96875 78.34375 -78.785156 66.9375 -75.664062 C 60.667969 -73.902344 55.132812 -72.105469 50.324219 -70.28125 C 47.703125 -69.253906 45.25 -67.988281 42.953125 -66.484375 C 42.054688 -65.890625 41.351562 -65.226562 40.847656 -64.488281 C 37.597656 -59.714844 34.359375 -52.21875 31.128906 -42.007812 C 30.664062 -40.558594 30.367188 -39.316406 30.238281 -38.28125 C 30.183594 -37.84375 30.164062 -37.574219 30.175781 -37.46875 C 30.125 -37.867188 29.992188 -38.316406 29.769531 -38.8125 C 29.519531 -39.375 29.246094 -39.820312 28.953125 -40.15625 C 27.722656 -41.558594 26.488281 -42.640625 25.242188 -43.402344 C 25.101562 -43.488281 25.007812 -43.542969 24.960938 -43.566406 C 25.125 -43.484375 25.347656 -43.390625 25.632812 -43.277344 C 27.917969 -42.371094 31.316406 -41.445312 35.832031 -40.496094 C 47.296875 -38.09375 59.839844 -36.125 73.464844 -34.585938 C 87.324219 -32.953125 100.484375 -31.78125 112.9375 -31.074219 C 125.183594 -30.375 133.199219 -30.054688 136.992188 -30.117188 L 137.480469 -0.222656 L 116.339844 -21.363281 L 125.207031 -30.234375 L 137.703125 -30.234375 L 137.703125 -0.332031 L 107.804688 -0.332031 C 107.804688 -3.605469 108.320312 -6.789062 109.351562 -9.886719 C 110.851562 -14.378906 113.273438 -18.296875 116.617188 -21.640625 C 119.964844 -24.988281 123.882812 -27.410156 128.375 -28.90625 C 131.46875 -29.9375 134.652344 -30.453125 137.925781 -30.453125 L 137.925781 -0.554688 L 116.785156 -21.699219 L 125.875 -30.789062 L 138.371094 -30.789062 L 138.371094 -0.890625 L 117.230469 -22.03125 L 126.320312 -31.121094 L 138.816406 -31.121094 L 138.816406 -1.222656 L 117.675781 -22.363281 L 117.785156 -22.476562 L 138.925781 -1.335938 L 109.027344 -1.335938 L 109.027344 -13.832031 L 118.535156 -23.339844 L 119.089844 -23.839844 C 117.367188 -22.28125 115.941406 -20.167969 114.820312 -17.496094 L 115.085938 -18.128906 L 115.378906 -18.75 C 115.265625 -18.507812 115.175781 -18.296875 115.113281 -18.117188 C 115.109375 -18.09375 115.101562 -18.082031 115.101562 -18.082031 C 115.113281 -18.121094 115.128906 -18.171875 115.140625 -18.230469 C 115.285156 -18.820312 115.398438 -19.617188 115.492188 -20.613281 C 115.605469 -21.894531 115.652344 -22.972656 115.628906 -23.859375 C 115.621094 -24.117188 115.609375 -24.332031 115.59375 -24.5 C 115.589844 -24.523438 115.589844 -24.539062 115.589844 -24.542969 C 115.59375 -24.503906 115.601562 -24.453125 115.617188 -24.390625 Z M 115.746094 -23.769531 "/></g></g></g><g fill="#45377f" fill-opacity="1"><g transform="translate(189.630424, 233.334804)"><g><path d="M 92.097656 42.914062 C 87.949219 42.914062 83.96875 42.085938 80.164062 40.429688 C 77.664062 39.34375 75.355469 37.941406 73.238281 36.226562 C 71.054688 34.457031 69.15625 32.414062 67.539062 30.109375 C 66.359375 28.417969 65.351562 26.613281 64.519531 24.695312 C 63.992188 23.480469 63.519531 22.171875 63.097656 20.769531 C 62.753906 19.621094 62.382812 18.1875 61.980469 16.472656 C 61.390625 13.9375 60.617188 10.289062 59.667969 5.53125 L 88.984375 -0.332031 L 91.167969 29.484375 C 80.914062 30.234375 70.660156 30.402344 60.40625 29.984375 C 50.023438 29.648438 40.570312 28.726562 32.046875 27.214844 L 37.261719 -2.226562 L 33.554688 27.441406 C 31.765625 27.21875 29.992188 26.886719 28.230469 26.449219 L 35.484375 -2.558594 L 31.773438 27.109375 C 29.65625 26.84375 27.597656 26.425781 25.601562 25.855469 L 33.8125 -2.890625 L 32.960938 26.996094 C 27.523438 26.839844 22.300781 25.953125 17.292969 24.339844 L 26.472656 -4.117188 L 19.027344 24.839844 C 13.871094 23.515625 9.140625 21.226562 4.828125 17.976562 C 1.191406 15.234375 -2.007812 11.894531 -4.773438 7.957031 L 19.6875 -9.230469 L -4.167969 8.792969 C -8.589844 2.9375 -12.316406 -4.371094 -15.351562 -13.132812 C -18.175781 -21.058594 -20.625 -31.148438 -22.695312 -43.402344 C -24.683594 -54.691406 -26.199219 -66.574219 -27.238281 -79.050781 C -28.269531 -91.441406 -28.785156 -103.542969 -28.785156 -115.347656 C -28.871094 -127.996094 -28.078125 -138.878906 -26.402344 -148 L 3.003906 -142.597656 L -26.519531 -147.320312 C -25.652344 -152.746094 -24.230469 -158.316406 -22.253906 -164.039062 C -20.488281 -169.058594 -18.085938 -173.589844 -15.042969 -177.628906 C -11.90625 -181.792969 -8.171875 -185.367188 -3.835938 -188.351562 C -1.199219 -190.222656 2.03125 -191.914062 5.859375 -193.425781 C 8.464844 -194.457031 11.4375 -195.429688 14.785156 -196.347656 C 21.246094 -198.148438 27.894531 -199.261719 34.730469 -199.691406 C 43.316406 -200.09375 51.183594 -199.175781 58.335938 -196.929688 L 58.675781 -196.824219 L 59.011719 -196.710938 C 66.359375 -194.210938 72.339844 -190.089844 76.953125 -184.34375 C 79.53125 -181.132812 81.519531 -177.582031 82.921875 -173.6875 C 84.160156 -170.242188 84.894531 -166.644531 85.125 -162.890625 C 85.46875 -158.289062 85.117188 -153.550781 84.070312 -148.679688 L 83.992188 -148.304688 L 83.902344 -147.929688 C 83.492188 -146.230469 83.144531 -144.648438 82.863281 -143.179688 C 80.175781 -129.675781 79.125 -114.4375 79.710938 -97.472656 C 80.261719 -79.597656 82.058594 -62.601562 85.105469 -46.488281 L 55.726562 -40.933594 L 56.175781 -70.828125 C 64.683594 -70.699219 71.9375 -71 77.933594 -71.726562 L 81.53125 -42.046875 L 51.933594 -37.816406 C 50.695312 -46.484375 50.074219 -52.53125 50.074219 -55.949219 L 79.976562 -55.949219 L 50.085938 -55.105469 C 49.929688 -60.789062 50.921875 -66.144531 53.066406 -71.171875 C 55.503906 -76.890625 59.191406 -81.683594 64.121094 -85.546875 C 70.894531 -90.851562 79.273438 -93.757812 89.257812 -94.261719 C 94.550781 -94.480469 99.144531 -94.382812 103.035156 -93.964844 C 109.40625 -93.285156 114.945312 -91.660156 119.652344 -89.09375 L 120.078125 -88.863281 L 120.496094 -88.617188 C 126.691406 -84.972656 131.714844 -79.449219 135.558594 -72.050781 C 137.652344 -68.027344 139.546875 -63.144531 141.242188 -57.40625 L 112.566406 -48.941406 L 103.972656 -77.578125 C 105.234375 -77.957031 106.476562 -78.398438 107.695312 -78.902344 L 108.125 -79.082031 L 113.566406 -81.136719 C 117.371094 -82.628906 121.402344 -83.640625 125.652344 -84.171875 C 132.867188 -84.929688 139.492188 -83.996094 145.527344 -81.363281 C 151.957031 -78.566406 157.210938 -74.214844 161.292969 -68.3125 C 166.277344 -61.109375 169 -51.996094 169.464844 -40.972656 C 169.699219 -34.324219 169.605469 -28.625 169.179688 -23.863281 C 168.558594 -16.929688 167.125 -11.011719 164.882812 -6.117188 L 164.671875 -5.65625 L 164.445312 -5.203125 C 162.253906 -0.824219 159.449219 3.101562 156.03125 6.574219 C 152.757812 9.898438 149.011719 12.710938 144.789062 15.015625 C 140.386719 17.519531 135.890625 19.613281 131.292969 21.292969 L 130.882812 21.441406 L 130.472656 21.578125 C 130.585938 21.542969 130.726562 21.488281 130.898438 21.421875 C 128.527344 22.367188 126.058594 23.058594 123.488281 23.484375 L 118.570312 -6.007812 L 148.46875 -6.007812 C 148.46875 -0.0820312 147.273438 5.636719 144.878906 11.144531 C 144.136719 12.933594 143.328125 14.789062 142.453125 16.710938 C 139.96875 22.09375 136.1875 26.597656 131.113281 30.226562 C 128.875 31.820312 126.28125 33.316406 123.332031 34.710938 C 121.46875 35.617188 120.417969 36.140625 120.179688 36.28125 C 111.433594 41.304688 101.507812 43.5 90.394531 42.863281 L 92.097656 13.015625 Z M 92.097656 -16.886719 L 92.953125 -16.886719 L 93.804688 -16.835938 C 93.953125 -16.828125 94.046875 -16.824219 94.089844 -16.828125 C 93.929688 -16.816406 93.722656 -16.789062 93.476562 -16.742188 C 92.417969 -16.53125 91.273438 -16.074219 90.046875 -15.371094 C 91.585938 -16.269531 94.167969 -17.597656 97.796875 -19.359375 C 97.84375 -19.382812 97.875 -19.398438 97.894531 -19.40625 C 97.851562 -19.386719 97.792969 -19.355469 97.71875 -19.3125 C 97.304688 -19.078125 96.847656 -18.785156 96.355469 -18.433594 C 95.253906 -17.648438 94.191406 -16.722656 93.171875 -15.664062 C 91.082031 -13.5 89.363281 -10.957031 88.015625 -8.035156 C 88.625 -9.375 89.300781 -10.933594 90.039062 -12.699219 C 89.128906 -10.605469 88.671875 -8.371094 88.671875 -6.007812 L 88.671875 -31.335938 L 113.65625 -35.5 C 111.976562 -35.21875 110.320312 -34.753906 108.691406 -34.101562 C 109.605469 -34.464844 110.5625 -34.816406 111.5625 -35.148438 L 121.019531 -6.785156 L 110.746094 -34.863281 C 112.230469 -35.40625 114.03125 -36.277344 116.15625 -37.480469 C 115.199219 -36.960938 114.289062 -36.261719 113.425781 -35.382812 C 112.414062 -34.359375 111.59375 -33.210938 110.960938 -31.945312 L 137.703125 -18.574219 L 110.523438 -31.03125 C 110.015625 -29.925781 109.675781 -28.960938 109.5 -28.136719 C 109.527344 -28.28125 109.570312 -28.632812 109.621094 -29.191406 C 109.824219 -31.476562 109.859375 -34.5625 109.722656 -38.445312 C 109.703125 -38.898438 109.675781 -39.261719 109.640625 -39.542969 C 109.636719 -39.574219 109.632812 -39.597656 109.628906 -39.621094 L 109.628906 -39.609375 C 109.644531 -39.53125 109.664062 -39.4375 109.695312 -39.320312 C 110.09375 -37.726562 110.898438 -36.050781 112.113281 -34.296875 C 114.488281 -30.859375 117.667969 -28.277344 121.648438 -26.542969 C 125.238281 -24.980469 129.042969 -24.410156 133.070312 -24.835938 C 133.761719 -24.921875 134.304688 -25.042969 134.699219 -25.199219 L 129.695312 -23.308594 L 119.128906 -51.277344 L 130.558594 -23.648438 C 127.480469 -22.375 124.34375 -21.261719 121.15625 -20.304688 L 92.394531 -11.675781 L 83.890625 -40.476562 C 83.285156 -42.523438 82.824219 -43.851562 82.507812 -44.464844 C 82.820312 -43.855469 83.296875 -43.164062 83.925781 -42.378906 C 85.589844 -40.3125 87.675781 -38.546875 90.175781 -37.074219 L 105.335938 -62.84375 L 91.019531 -36.597656 C 92.613281 -35.726562 94.171875 -35.101562 95.691406 -34.714844 C 96.15625 -34.597656 96.484375 -34.527344 96.679688 -34.507812 C 95.714844 -34.609375 94.246094 -34.621094 92.273438 -34.542969 C 92.769531 -34.566406 93.453125 -34.707031 94.328125 -34.960938 C 96.652344 -35.640625 98.875 -36.808594 101 -38.476562 C 104.132812 -40.929688 106.488281 -44.007812 108.066406 -47.707031 C 109.347656 -50.714844 109.949219 -53.742188 109.863281 -56.789062 L 109.875 -56.371094 L 109.875 -55.949219 C 109.875 -56.183594 109.871094 -56.378906 109.863281 -56.53125 C 109.863281 -56.492188 109.871094 -56.410156 109.878906 -56.285156 C 109.917969 -55.789062 109.984375 -55.125 110.078125 -54.300781 C 110.304688 -52.28125 110.652344 -49.609375 111.128906 -46.273438 L 115.449219 -16.039062 L 85.128906 -12.363281 C 76.445312 -11.3125 66.492188 -10.867188 55.277344 -11.039062 L 30.882812 -11.40625 L 26.347656 -35.378906 C 22.722656 -54.558594 20.589844 -74.566406 19.949219 -95.402344 C 19.203125 -116.996094 20.601562 -136.683594 24.140625 -154.472656 C 24.601562 -156.859375 25.144531 -159.355469 25.773438 -161.960938 L 54.835938 -154.945312 L 25.601562 -161.207031 C 25.445312 -160.488281 25.394531 -159.832031 25.4375 -159.234375 C 25.558594 -157.296875 25.960938 -155.367188 26.65625 -153.441406 C 27.507812 -151.066406 28.734375 -148.886719 30.328125 -146.902344 C 31.820312 -145.042969 33.539062 -143.476562 35.484375 -142.207031 C 36.878906 -141.292969 38.304688 -140.589844 39.761719 -140.09375 L 49.386719 -168.402344 L 40.4375 -139.875 C 40.371094 -139.894531 40.222656 -139.917969 39.992188 -139.945312 C 39.445312 -140.007812 38.933594 -140.027344 38.460938 -140.007812 C 35.804688 -139.84375 33.183594 -139.398438 30.597656 -138.679688 C 29.347656 -138.335938 28.429688 -138.046875 27.84375 -137.816406 C 27.910156 -137.84375 28.046875 -137.910156 28.253906 -138.015625 C 28.9375 -138.363281 29.550781 -138.726562 30.085938 -139.109375 C 31.085938 -139.796875 31.964844 -140.648438 32.726562 -141.660156 C 33.398438 -142.546875 33.910156 -143.5 34.265625 -144.515625 C 33.425781 -142.078125 32.84375 -139.863281 32.527344 -137.875 L 32.472656 -137.535156 L 32.410156 -137.195312 C 31.414062 -131.78125 30.949219 -124.5 31.011719 -115.347656 C 31.011719 -105.199219 31.457031 -94.757812 32.355469 -84.015625 C 33.242188 -73.351562 34.546875 -63.136719 36.265625 -53.367188 C 37.753906 -44.5625 39.382812 -37.667969 41.15625 -32.695312 C 41.742188 -31 42.320312 -29.582031 42.886719 -28.4375 C 43.1875 -27.832031 43.40625 -27.4375 43.542969 -27.257812 L 43.855469 -26.84375 L 44.152344 -26.421875 C 43.3125 -27.617188 42.207031 -28.730469 40.832031 -29.765625 C 38.78125 -31.3125 36.476562 -32.414062 33.917969 -33.074219 L 34.792969 -32.847656 L 35.652344 -32.570312 C 35.242188 -32.703125 34.914062 -32.773438 34.667969 -32.777344 L 38.417969 -32.671875 L 42.027344 -31.640625 C 41.070312 -31.914062 40.125 -32.109375 39.191406 -32.226562 L 40.984375 -32.003906 L 42.734375 -31.5625 C 42.160156 -31.707031 41.570312 -31.816406 40.972656 -31.890625 L 41.726562 -31.796875 L 42.476562 -31.664062 C 48.191406 -30.652344 54.976562 -30.019531 62.835938 -29.761719 C 70.824219 -29.4375 78.8125 -29.566406 86.800781 -30.152344 L 113.125 -32.078125 L 118.300781 -6.199219 C 119.128906 -2.058594 119.765625 0.96875 120.214844 2.882812 C 120.296875 3.234375 120.367188 3.519531 120.421875 3.734375 C 120.433594 3.78125 120.441406 3.8125 120.445312 3.828125 C 120.425781 3.765625 120.402344 3.683594 120.375 3.589844 C 120.121094 2.742188 119.792969 1.855469 119.386719 0.917969 C 118.613281 -0.863281 117.660156 -2.566406 116.527344 -4.183594 C 114.9375 -6.457031 113.0625 -8.46875 110.898438 -10.222656 C 108.792969 -11.929688 106.496094 -13.328125 104.007812 -14.410156 C 100.207031 -16.058594 96.238281 -16.886719 92.097656 -16.886719 Z M 92.097656 -16.886719 "/></g></g></g><g fill="#45377f" fill-opacity="1"><g transform="translate(334.282626, 233.334804)"><g/></g></g><g fill="#45377f" fill-opacity="1"><g transform="translate(388.281953, 233.334804)"><g><path d="M 139.597656 -195.878906 C 149.726562 -193.558594 158.195312 -190.390625 165.007812 -186.375 C 171.289062 -182.570312 176.246094 -178.050781 179.886719 -172.808594 C 182.195312 -169.492188 183.953125 -165.945312 185.171875 -162.167969 C 186.433594 -158.238281 187.066406 -154.199219 187.066406 -150.050781 C 187.066406 -143.605469 186.515625 -137.167969 185.410156 -130.746094 C 184 -122.539062 181.238281 -114.832031 177.121094 -107.632812 C 173.875 -101.914062 170.25 -97.234375 166.253906 -93.59375 C 163.164062 -90.785156 159.824219 -88.546875 156.234375 -86.886719 C 151.441406 -84.664062 146.449219 -83.554688 141.261719 -83.554688 C 134.972656 -83.554688 128.847656 -84.601562 122.898438 -86.691406 L 115.007812 -89.355469 C 114.386719 -89.5625 113.273438 -89.75 111.671875 -89.914062 C 109.21875 -90.167969 106.265625 -90.242188 102.8125 -90.132812 C 97.285156 -89.917969 92.105469 -88.71875 87.269531 -86.535156 C 85.859375 -85.90625 84.703125 -85.183594 83.800781 -84.367188 C 82.929688 -83.582031 82.15625 -82.59375 81.476562 -81.40625 C 81.679688 -81.75 81.832031 -82.136719 81.9375 -82.566406 C 81.957031 -82.648438 81.96875 -82.699219 81.972656 -82.726562 C 81.960938 -82.625 81.953125 -82.488281 81.953125 -82.3125 C 81.953125 -80.363281 82.554688 -77.65625 83.757812 -74.1875 C 83.980469 -73.535156 84.226562 -73.074219 84.492188 -72.800781 C 85.023438 -72.257812 85.964844 -71.707031 87.3125 -71.15625 C 93.113281 -68.734375 98.859375 -67.800781 104.554688 -68.355469 C 108.125 -68.710938 112.457031 -70.445312 117.542969 -73.558594 C 122.820312 -76.785156 128.324219 -78.96875 134.054688 -80.105469 C 140.335938 -81.351562 146.613281 -81.300781 152.882812 -79.953125 C 163.332031 -77.707031 172.914062 -72.046875 181.625 -62.976562 C 185.238281 -59.160156 188.046875 -55.109375 190.046875 -50.828125 C 192.625 -45.316406 193.875 -39.59375 193.792969 -33.65625 C 193.714844 -27.746094 192.320312 -22.078125 189.617188 -16.648438 C 187.523438 -12.445312 184.691406 -8.539062 181.125 -4.921875 C 174.484375 1.71875 168.515625 6.953125 163.21875 10.78125 C 159.109375 13.699219 155.042969 16.191406 151.027344 18.253906 C 140.117188 24.03125 128.832031 27.433594 117.171875 28.449219 C 107.789062 29.269531 98.445312 29.269531 89.136719 28.449219 C 76.058594 27.199219 63.554688 24.1875 51.628906 19.417969 C 42.054688 15.644531 32.910156 10.617188 24.207031 4.328125 C 14.992188 -2.152344 6.859375 -10.191406 -0.1875 -19.792969 C -12.253906 -36.007812 -20.328125 -54.113281 -24.402344 -74.117188 C -27.964844 -90.945312 -27.585938 -106.800781 -23.261719 -121.683594 C -18.84375 -136.890625 -10.503906 -150.382812 1.757812 -162.160156 C 13.105469 -173.109375 26.019531 -181.347656 40.496094 -186.878906 C 52.96875 -191.675781 65.179688 -195.054688 77.132812 -197.015625 C 87.074219 -198.613281 97.179688 -199.414062 107.449219 -199.414062 C 118.320312 -199.414062 128.984375 -198.246094 139.433594 -195.914062 Z M 126.40625 -137.554688 C 120.246094 -138.929688 113.925781 -139.617188 107.449219 -139.617188 C 100.363281 -139.617188 93.488281 -139.082031 86.820312 -138.007812 C 78.902344 -136.710938 70.574219 -134.378906 61.835938 -131.019531 C 54.957031 -128.390625 48.738281 -124.394531 43.179688 -119.03125 C 38.609375 -114.640625 35.605469 -109.96875 34.164062 -105.003906 C 32.628906 -99.71875 32.636719 -93.402344 34.191406 -86.054688 C 36.492188 -74.765625 41.101562 -64.472656 48.015625 -55.175781 C 51.203125 -50.835938 54.933594 -47.160156 59.21875 -44.148438 C 63.859375 -40.796875 68.730469 -38.113281 73.839844 -36.101562 C 80.449219 -33.457031 87.300781 -31.796875 94.394531 -31.117188 C 100.214844 -30.605469 106.070312 -30.605469 111.964844 -31.121094 C 115.582031 -31.4375 119.496094 -32.710938 123.710938 -34.9375 C 125.183594 -35.695312 126.679688 -36.613281 128.207031 -37.695312 C 130.917969 -39.652344 134.363281 -42.726562 138.550781 -46.910156 C 137.65625 -46.003906 136.835938 -44.804688 136.09375 -43.316406 C 134.742188 -40.605469 134.046875 -37.65625 134.003906 -34.472656 C 133.957031 -31.261719 134.585938 -28.265625 135.882812 -25.488281 C 136.609375 -23.941406 137.480469 -22.632812 138.496094 -21.558594 C 138.132812 -21.933594 137.816406 -22.238281 137.535156 -22.46875 C 137.464844 -22.527344 137.410156 -22.574219 137.363281 -22.609375 C 137.371094 -22.601562 137.394531 -22.589844 137.429688 -22.566406 C 138.164062 -22.105469 139.125 -21.746094 140.320312 -21.488281 C 142.105469 -21.105469 143.894531 -21.09375 145.6875 -21.449219 C 146.933594 -21.695312 147.953125 -22.0625 148.742188 -22.542969 C 135.882812 -14.679688 123.085938 -10.113281 110.34375 -8.839844 C 94.679688 -7.316406 79.441406 -9.644531 64.625 -15.828125 C 55.667969 -19.5 48.042969 -24.550781 41.753906 -30.976562 C 35.199219 -37.675781 30.363281 -45.554688 27.253906 -54.617188 C 23.855469 -64.421875 22.15625 -73.65625 22.15625 -82.3125 C 22.15625 -92.96875 24.613281 -102.539062 29.53125 -111.023438 C 33.375 -117.769531 38.109375 -123.679688 43.726562 -128.75 C 49.3125 -133.792969 55.625 -137.890625 62.667969 -141.039062 C 74.59375 -146.421875 87.355469 -149.375 100.960938 -149.902344 C 114.078125 -150.308594 125.140625 -149.011719 134.148438 -146.007812 L 142.71875 -143.109375 C 142.257812 -143.273438 141.769531 -143.355469 141.261719 -143.355469 C 137.671875 -143.355469 134.289062 -142.621094 131.117188 -141.152344 C 129.148438 -140.242188 127.445312 -139.128906 126.003906 -137.820312 C 125.410156 -137.277344 124.957031 -136.796875 124.648438 -136.382812 C 124.75 -136.519531 124.933594 -136.824219 125.203125 -137.296875 C 125.832031 -138.402344 126.257812 -139.59375 126.480469 -140.878906 C 127.007812 -143.945312 127.269531 -147.003906 127.269531 -150.050781 C 127.269531 -147.941406 127.597656 -145.871094 128.25 -143.839844 C 128.855469 -141.964844 129.695312 -140.25 130.777344 -138.691406 C 131.539062 -137.601562 132.355469 -136.664062 133.238281 -135.886719 C 133.660156 -135.511719 134.132812 -135.167969 134.648438 -134.859375 C 134.167969 -135.140625 133.390625 -135.476562 132.3125 -135.867188 C 130.640625 -136.472656 128.617188 -137.046875 126.242188 -137.589844 Z M 126.40625 -137.554688 "/></g></g></g><g fill="#45377f" fill-opacity="1"><g transform="translate(557.627317, 233.334804)"><g><path d="M 108.457031 -13.691406 C 100.988281 -11.003906 91.355469 -8.808594 79.5625 -7.113281 C 67.726562 -5.421875 57.484375 -4.816406 48.839844 -5.296875 L 50.5 -35.148438 L 79.753906 -28.976562 C 78.195312 -21.601562 77.023438 -15.007812 76.230469 -9.195312 C 75.132812 -2 73.101562 4.15625 70.132812 9.273438 C 67.957031 13.019531 65.304688 16.273438 62.164062 19.027344 C 58.453125 22.292969 54.265625 24.699219 49.609375 26.25 C 41.3125 28.957031 32.214844 29.421875 22.3125 27.652344 C 17.105469 26.746094 11.5625 25.171875 5.6875 22.925781 C -1.265625 20.449219 -7.4375 17.027344 -12.824219 12.65625 C -16.886719 9.253906 -20.183594 5.382812 -22.710938 1.050781 C -24.972656 -2.828125 -26.652344 -7.050781 -27.746094 -11.621094 C -28.894531 -16.082031 -29.535156 -20.886719 -29.667969 -26.039062 L 0.222656 -26.804688 L -29.636719 -25.234375 C -29.839844 -29.128906 -29.839844 -32.949219 -29.628906 -36.695312 C -29.175781 -45.675781 -27.457031 -56.691406 -24.472656 -69.734375 C -21.683594 -81.929688 -18.226562 -94.414062 -14.101562 -107.183594 C -10.085938 -119.871094 -5.601562 -132.113281 -0.660156 -143.917969 C 4.511719 -156.460938 9.738281 -166.835938 15.023438 -175.035156 C 17.953125 -179.6875 21.53125 -184.375 25.757812 -189.105469 C 29.496094 -193.199219 33.585938 -196.546875 38.027344 -199.148438 C 42.660156 -201.863281 47.617188 -203.777344 52.902344 -204.890625 C 60.738281 -206.539062 69.960938 -206.519531 80.570312 -204.824219 C 92.929688 -202.851562 102.949219 -198.679688 110.636719 -192.300781 L 91.542969 -169.292969 L 105.679688 -195.636719 C 111.96875 -192.261719 117.90625 -187.34375 123.488281 -180.882812 C 127.886719 -175.785156 132.207031 -169.570312 136.449219 -162.230469 C 143.6875 -149.566406 150.339844 -135.753906 156.402344 -120.796875 C 162.300781 -106.160156 167.382812 -91.867188 171.640625 -77.910156 C 176.046875 -63.199219 178.796875 -51.8125 179.898438 -43.75 C 181.148438 -34.558594 181.300781 -26.410156 180.355469 -19.296875 L 180.265625 -18.621094 L 180.144531 -17.949219 C 179.3125 -13.332031 177.929688 -9.0625 176 -5.152344 C 173.601562 -0.289062 170.441406 3.894531 166.515625 7.398438 L 146.601562 -14.90625 L 167.433594 6.539062 C 162.457031 11.375 156.503906 15.429688 149.570312 18.699219 C 144.011719 21.320312 138.691406 23.308594 133.617188 24.664062 C 123.753906 27.351562 114.53125 27.601562 105.949219 25.410156 C 101.527344 24.378906 97.3125 22.402344 93.308594 19.480469 C 89.847656 16.957031 86.851562 13.867188 84.332031 10.21875 C 80.878906 5.226562 78.398438 -0.738281 76.894531 -7.679688 L 106.113281 -14.015625 L 77.0625 -6.949219 C 75.203125 -14.585938 72.773438 -23.265625 69.765625 -32.988281 L 98.328125 -41.824219 Z M 88.199219 -69.953125 L 117.644531 -80.554688 L 126.890625 -50.660156 C 130.261719 -39.765625 133.019531 -29.90625 135.164062 -21.082031 L 135.253906 -20.71875 L 135.332031 -20.351562 C 135.347656 -20.296875 135.355469 -20.246094 135.367188 -20.207031 L 135.363281 -20.21875 C 135.324219 -20.359375 135.261719 -20.527344 135.1875 -20.726562 C 134.804688 -21.710938 134.246094 -22.730469 133.515625 -23.789062 C 132.195312 -25.695312 130.542969 -27.375 128.554688 -28.824219 C 126.023438 -30.671875 123.417969 -31.90625 120.742188 -32.527344 C 119.535156 -32.835938 118.460938 -32.964844 117.515625 -32.914062 C 117.429688 -32.910156 117.359375 -32.90625 117.296875 -32.898438 L 117.324219 -32.902344 C 117.507812 -32.933594 117.804688 -33.007812 118.210938 -33.117188 C 119.804688 -33.542969 121.757812 -34.296875 124.058594 -35.382812 C 124.667969 -35.671875 125.167969 -35.945312 125.558594 -36.207031 C 125.65625 -36.273438 125.738281 -36.332031 125.796875 -36.378906 C 125.808594 -36.386719 125.8125 -36.390625 125.8125 -36.390625 C 125.800781 -36.382812 125.785156 -36.367188 125.769531 -36.351562 L 126.21875 -36.789062 L 126.6875 -37.207031 C 124.839844 -35.554688 123.402344 -33.691406 122.375 -31.609375 C 121.816406 -30.476562 121.457031 -29.457031 121.292969 -28.542969 L 150.71875 -23.246094 L 121.082031 -27.199219 C 121.320312 -28.984375 121.175781 -31.808594 120.648438 -35.667969 C 119.96875 -40.65625 117.898438 -48.921875 114.445312 -60.460938 C 110.695312 -72.753906 106.207031 -85.378906 100.984375 -98.328125 C 95.925781 -110.808594 90.488281 -122.132812 84.675781 -132.308594 C 82.320312 -136.390625 80.167969 -139.550781 78.230469 -141.796875 C 77.636719 -142.484375 77.136719 -143 76.738281 -143.34375 L 76.742188 -143.347656 C 76.921875 -143.21875 77.144531 -143.085938 77.40625 -142.945312 L 74.761719 -144.367188 L 72.449219 -146.285156 C 72.96875 -145.851562 73.472656 -145.5 73.960938 -145.226562 C 74.140625 -145.125 74.261719 -145.0625 74.316406 -145.042969 C 73.640625 -145.300781 72.582031 -145.546875 71.148438 -145.773438 C 69.027344 -146.113281 67.257812 -146.296875 65.839844 -146.324219 C 65.425781 -146.332031 65.097656 -146.328125 64.851562 -146.308594 L 64.855469 -146.308594 C 64.960938 -146.324219 65.082031 -146.347656 65.222656 -146.375 C 66.28125 -146.597656 67.292969 -146.992188 68.253906 -147.554688 C 69.027344 -148.007812 69.722656 -148.574219 70.347656 -149.257812 C 68.339844 -147.015625 66.65625 -144.808594 65.285156 -142.640625 C 61.96875 -137.492188 58.371094 -130.214844 54.496094 -120.8125 C 50.242188 -110.664062 46.34375 -99.996094 42.800781 -88.804688 C 39.210938 -77.695312 36.21875 -66.894531 33.816406 -56.398438 C 31.609375 -46.753906 30.363281 -39.078125 30.074219 -33.378906 C 29.988281 -31.785156 29.988281 -30.117188 30.078125 -28.378906 L 30.101562 -27.976562 L 30.113281 -27.574219 C 30.128906 -26.941406 30.226562 -26.261719 30.414062 -25.527344 C 30.136719 -26.6875 29.644531 -27.871094 28.941406 -29.082031 C 27.96875 -30.742188 26.601562 -32.3125 24.835938 -33.789062 C 24.757812 -33.855469 24.691406 -33.90625 24.644531 -33.9375 C 24.675781 -33.917969 24.730469 -33.882812 24.808594 -33.84375 C 25.210938 -33.625 25.945312 -33.324219 27.015625 -32.9375 C 29.296875 -32.066406 31.242188 -31.492188 32.855469 -31.210938 C 33.191406 -31.148438 33.472656 -31.109375 33.699219 -31.089844 C 33.742188 -31.085938 33.773438 -31.085938 33.792969 -31.085938 C 33.761719 -31.085938 33.71875 -31.085938 33.660156 -31.082031 C 32.859375 -31.0625 31.871094 -30.859375 30.699219 -30.476562 C 27.710938 -29.480469 25.046875 -27.953125 22.703125 -25.898438 C 20.9375 -24.347656 19.503906 -22.625 18.40625 -20.730469 C 17.820312 -19.71875 17.386719 -18.765625 17.109375 -17.878906 C 17.0625 -17.71875 17.027344 -17.59375 17.007812 -17.5 C 17.015625 -17.550781 17.007812 -17.476562 16.980469 -17.277344 C 17.96875 -24.515625 19.390625 -32.53125 21.242188 -41.320312 L 26.542969 -66.425781 L 52.15625 -65 C 56.859375 -64.742188 63.15625 -65.171875 71.042969 -66.300781 C 78.828125 -67.421875 84.546875 -68.636719 88.199219 -69.953125 Z M 56.230469 -86.734375 C 65.089844 -86.621094 74.5 -87.753906 84.46875 -90.140625 L 91.429688 -61.066406 L 63.492188 -50.414062 C 58.222656 -64.246094 52.277344 -77.402344 45.660156 -89.886719 L 72.078125 -103.890625 L 99.585938 -92.179688 C 93.953125 -78.941406 88.976562 -64.503906 84.65625 -48.875 L 55.835938 -56.839844 Z M 55.445312 -26.941406 L 16.699219 -27.449219 L 27.019531 -64.800781 C 32.042969 -82.988281 37.894531 -99.917969 44.566406 -115.597656 L 69.125 -173.296875 L 98.496094 -117.890625 C 106.261719 -103.234375 113.222656 -87.84375 119.371094 -71.714844 L 131.492188 -39.917969 L 98.394531 -31.988281 C 83.59375 -28.445312 69.277344 -26.761719 55.445312 -26.941406 Z M 55.445312 -26.941406 "/></g></g></g><g fill="#45377f" fill-opacity="1"><g transform="translate(714.292403, 233.334804)"><g><path d="M -27.808594 -132.097656 C -27.5 -136.117188 -27.054688 -139.644531 -26.46875 -142.683594 C -25.523438 -147.609375 -24.066406 -151.898438 -22.097656 -155.550781 L 4.226562 -141.375 L -22.515625 -154.746094 C -20.015625 -159.746094 -16.105469 -164.320312 -10.78125 -168.464844 C -7.980469 -170.648438 -4.488281 -172.960938 -0.3125 -175.40625 C 20.15625 -187.183594 43.949219 -193.835938 71.0625 -195.363281 C 85.988281 -196.15625 99.914062 -194.449219 112.835938 -190.242188 C 126.140625 -185.914062 138.152344 -179.039062 148.875 -169.617188 C 159.347656 -160.355469 167.542969 -148.753906 173.457031 -134.808594 C 177.160156 -125.863281 178.921875 -116.953125 178.746094 -108.082031 C 178.566406 -98.910156 176.371094 -90.082031 172.164062 -81.597656 C 168.226562 -73.5625 162.726562 -66.917969 155.664062 -61.660156 C 154.792969 -60.988281 153.929688 -60.097656 153.082031 -58.992188 C 154.144531 -60.382812 154.957031 -61.976562 155.527344 -63.761719 C 156.1875 -65.851562 156.445312 -67.964844 156.296875 -70.105469 L 156.335938 -69.558594 L 156.351562 -69.007812 C 156.320312 -70.085938 156.078125 -71.195312 155.632812 -72.332031 L 155.917969 -71.601562 L 156.167969 -70.855469 C 156.085938 -71.101562 155.972656 -71.339844 155.828125 -71.574219 L 156.105469 -71.125 L 156.371094 -70.667969 C 156.171875 -71.015625 155.882812 -71.375 155.507812 -71.75 L 155.742188 -71.515625 L 155.972656 -71.277344 C 156.570312 -70.652344 157.09375 -70.164062 157.542969 -69.820312 L 157.976562 -69.480469 L 158.402344 -69.128906 C 158.863281 -68.746094 159.804688 -68.085938 161.226562 -67.152344 C 162.164062 -66.546875 163.859375 -65.496094 166.308594 -63.996094 L 167.035156 -63.554688 L 167.734375 -63.066406 C 167.535156 -63.207031 167.320312 -63.332031 167.089844 -63.449219 L 168.269531 -62.859375 L 169.390625 -62.167969 C 170.078125 -61.746094 170.800781 -61.316406 171.558594 -60.886719 C 174.234375 -59.402344 176.304688 -58.226562 177.777344 -57.359375 C 181.882812 -54.839844 185.265625 -51.972656 187.925781 -48.761719 C 191.652344 -44.269531 194.097656 -39.214844 195.261719 -33.597656 C 196.425781 -27.980469 196.191406 -22.371094 194.558594 -16.765625 C 193.390625 -12.761719 191.539062 -8.945312 189.003906 -5.324219 C 185.601562 -0.398438 181.148438 4.550781 175.636719 9.523438 C 170.585938 14.179688 165.601562 18.015625 160.683594 21.035156 C 154.40625 25 147.496094 27.1875 139.949219 27.601562 C 133.097656 27.976562 126.285156 26.777344 119.5 24.007812 C 106.964844 19.039062 94.808594 9.800781 83.023438 -3.707031 C 74.621094 -13.1875 67.945312 -20.578125 63 -25.882812 L 84.867188 -46.273438 L 63.996094 -24.863281 C 63.867188 -24.988281 63.765625 -25.085938 63.679688 -25.152344 C 63.695312 -25.140625 63.738281 -25.109375 63.808594 -25.066406 C 64.28125 -24.75 64.875 -24.460938 65.585938 -24.199219 C 68.203125 -23.265625 70.832031 -22.796875 73.476562 -22.796875 C 75.863281 -22.796875 78.15625 -23.160156 80.355469 -23.882812 C 81.863281 -24.378906 83.226562 -25.015625 84.441406 -25.785156 C 85.058594 -26.179688 85.566406 -26.558594 85.960938 -26.921875 C 87.597656 -28.460938 88.855469 -30.0625 89.730469 -31.722656 C 90.261719 -32.730469 90.628906 -33.671875 90.832031 -34.546875 C 90.867188 -34.699219 90.890625 -34.8125 90.898438 -34.890625 C 90.890625 -34.808594 90.878906 -34.679688 90.871094 -34.511719 C 90.839844 -33.796875 90.871094 -32.898438 90.964844 -31.8125 C 91.632812 -23.265625 92.308594 -17.195312 92.996094 -13.601562 L 93.09375 -13.082031 L 93.175781 -12.554688 C 93.902344 -7.820312 93.890625 -3.355469 93.132812 0.847656 C 92.484375 4.460938 91.304688 7.839844 89.601562 10.988281 C 87.289062 15.253906 84.191406 18.8125 80.304688 21.664062 C 75.023438 25.625 68.511719 28.074219 60.769531 29.015625 C 56.859375 29.53125 52.507812 29.789062 47.71875 29.789062 C 43.582031 29.878906 39.605469 29.773438 35.800781 29.472656 C 32.453125 29.226562 29.074219 28.722656 25.660156 27.964844 L 32.144531 -1.222656 L 26.890625 28.210938 C 22.433594 27.414062 18.269531 25.902344 14.386719 23.671875 C 10.578125 21.484375 7.210938 18.699219 4.289062 15.316406 L 26.917969 -4.226562 L 5.265625 16.394531 C 1.289062 12.214844 -2.222656 6.546875 -5.269531 -0.621094 C -7.363281 -5.550781 -9.46875 -11.644531 -11.578125 -18.898438 C -15.410156 -31.722656 -17.894531 -40.839844 -19.027344 -46.253906 L 10.234375 -52.390625 L -18.613281 -44.523438 C -19.101562 -46.3125 -19.5 -48.148438 -19.816406 -50.03125 L 9.675781 -54.949219 L -19.167969 -47.082031 C -19.65625 -48.871094 -20.058594 -50.707031 -20.371094 -52.589844 L 9.121094 -57.507812 L -20.101562 -51.1875 C -22.644531 -62.941406 -24.820312 -75.59375 -26.632812 -89.136719 C -28.628906 -104 -29.015625 -118.429688 -27.78125 -132.429688 Z M 31.785156 -127.183594 C 30.941406 -117.601562 31.226562 -107.5625 32.636719 -97.0625 C 34.238281 -85.097656 36.140625 -74.019531 38.34375 -63.824219 L 38.496094 -63.125 L 38.613281 -62.421875 C 38.59375 -62.527344 38.566406 -62.65625 38.523438 -62.816406 L 38.921875 -61.355469 L 39.167969 -59.863281 C 39.152344 -59.96875 39.121094 -60.097656 39.078125 -60.257812 L 39.3125 -59.398438 L 39.496094 -58.523438 C 40.289062 -54.746094 42.402344 -47.101562 45.839844 -35.601562 C 47.285156 -30.625 48.59375 -26.761719 49.761719 -24.015625 C 50.101562 -23.214844 50.359375 -22.664062 50.53125 -22.367188 C 50.121094 -23.078125 49.464844 -23.902344 48.570312 -24.847656 L 49.070312 -24.320312 L 49.546875 -23.769531 C 48.035156 -25.519531 46.242188 -26.988281 44.175781 -28.179688 C 42.039062 -29.40625 39.78125 -30.230469 37.402344 -30.65625 L 38.019531 -30.546875 L 38.632812 -30.410156 C 39.222656 -30.277344 39.847656 -30.1875 40.503906 -30.140625 C 42.332031 -29.996094 44.738281 -29.953125 47.71875 -30.011719 C 49.898438 -30.011719 51.851562 -30.121094 53.574219 -30.347656 C 52.863281 -30.261719 52.035156 -30.066406 51.089844 -29.757812 C 48.863281 -29.03125 46.8125 -27.964844 44.941406 -26.558594 C 41.613281 -24.117188 38.972656 -21.09375 37.019531 -17.492188 C 35.679688 -15.015625 34.765625 -12.429688 34.28125 -9.746094 C 33.859375 -7.398438 33.789062 -5.304688 34.074219 -3.460938 L 63.625 -8.007812 L 34.253906 -2.414062 C 33.15625 -8.167969 32.203125 -16.257812 31.386719 -26.695312 C 30.710938 -34.578125 31.105469 -41.691406 32.578125 -48.042969 C 34.699219 -57.195312 39.011719 -64.835938 45.511719 -70.960938 C 50.492188 -75.535156 55.867188 -78.773438 61.632812 -80.675781 C 65.515625 -81.953125 69.460938 -82.59375 73.476562 -82.59375 C 77.738281 -82.59375 81.957031 -81.847656 86.132812 -80.355469 C 93.183594 -77.777344 99.71875 -73.550781 105.742188 -67.679688 L 106.25 -67.183594 L 106.738281 -66.660156 C 112.023438 -60.992188 119.140625 -53.105469 128.089844 -43.011719 C 131.132812 -39.519531 134.007812 -36.722656 136.707031 -34.617188 C 138.660156 -33.09375 140.460938 -32.003906 142.113281 -31.347656 C 140.59375 -31.96875 138.785156 -32.222656 136.683594 -32.105469 C 133.882812 -31.953125 131.457031 -31.230469 129.40625 -29.933594 C 131.015625 -30.917969 133.074219 -32.570312 135.585938 -34.882812 C 137.640625 -36.734375 139.117188 -38.3125 140.015625 -39.613281 C 138.777344 -37.84375 137.820312 -35.800781 137.144531 -33.484375 C 136.003906 -29.566406 135.859375 -25.558594 136.707031 -21.460938 C 137.554688 -17.363281 139.28125 -13.746094 141.886719 -10.605469 C 143.425781 -8.75 145.28125 -7.152344 147.460938 -5.820312 C 146.410156 -6.4375 144.554688 -7.484375 141.890625 -8.96875 C 140.570312 -9.722656 139.289062 -10.480469 138.050781 -11.242188 L 153.71875 -36.707031 L 140.347656 -9.964844 C 138.042969 -11.117188 135.828125 -12.429688 133.699219 -13.902344 L 150.71875 -38.484375 L 135.125 -12.972656 C 132.238281 -14.738281 130 -16.132812 128.417969 -17.160156 C 125.09375 -19.339844 122.328125 -21.351562 120.121094 -23.191406 L 139.261719 -46.160156 L 120.980469 -22.503906 C 118.164062 -24.675781 115.425781 -27.15625 112.761719 -29.941406 L 134.367188 -50.609375 L 113.226562 -29.46875 C 109.882812 -32.808594 107 -36.582031 104.574219 -40.785156 L 130.472656 -55.726562 L 105.121094 -39.878906 C 102.75 -43.671875 100.855469 -47.691406 99.4375 -51.945312 L 127.804688 -61.398438 L 99.976562 -50.464844 C 97.898438 -55.757812 96.765625 -61.316406 96.585938 -67.140625 L 126.46875 -68.074219 L 96.640625 -66.039062 C 96.269531 -71.445312 96.898438 -76.710938 98.523438 -81.835938 C 100.054688 -86.664062 102.429688 -91.1875 105.640625 -95.398438 C 109.6875 -100.667969 114.460938 -105.410156 119.964844 -109.632812 C 119.28125 -109.125 118.824219 -108.632812 118.59375 -108.164062 C 118.832031 -108.648438 118.957031 -109.015625 118.960938 -109.261719 C 118.972656 -109.808594 118.789062 -110.539062 118.410156 -111.457031 C 116.019531 -117.085938 113.019531 -121.5 109.402344 -124.699219 C 104.851562 -128.699219 99.824219 -131.59375 94.332031 -133.382812 C 88.457031 -135.292969 81.820312 -136.050781 74.425781 -135.660156 C 56.753906 -134.664062 41.910156 -130.710938 29.898438 -123.800781 C 27.996094 -122.6875 26.683594 -121.851562 25.964844 -121.289062 C 26.21875 -121.488281 26.5625 -121.8125 26.996094 -122.261719 C 28.53125 -123.863281 29.855469 -125.777344 30.96875 -128.003906 L 30.765625 -127.597656 L 30.550781 -127.199219 C 31.21875 -128.4375 31.726562 -129.628906 32.082031 -130.773438 C 32.175781 -131.085938 32.234375 -131.289062 32.253906 -131.390625 C 32.09375 -130.570312 31.949219 -129.277344 31.8125 -127.511719 Z M 80.882812 -98.832031 C 78.714844 -99.453125 76.148438 -99.238281 73.191406 -98.183594 C 75.3125 -98.984375 77.113281 -100.109375 78.601562 -101.558594 C 80.1875 -103.105469 81.355469 -104.835938 82.109375 -106.75 L 54.28125 -117.683594 L 82.378906 -107.464844 C 83.03125 -109.261719 83.378906 -110.808594 83.414062 -112.113281 C 83.40625 -111.769531 83.46875 -111.078125 83.601562 -110.039062 C 83.667969 -109.507812 83.738281 -109.078125 83.808594 -108.746094 C 83.820312 -108.691406 83.828125 -108.65625 83.828125 -108.644531 C 83.808594 -108.730469 83.773438 -108.835938 83.734375 -108.964844 C 83.519531 -109.621094 83.214844 -110.332031 82.820312 -111.097656 C 82.042969 -112.597656 81.050781 -114.035156 79.839844 -115.410156 C 78.171875 -117.332031 76.058594 -118.742188 73.5 -119.640625 C 72.527344 -119.984375 71.582031 -120.203125 70.671875 -120.300781 C 70.195312 -120.351562 69.808594 -120.363281 69.511719 -120.339844 C 71.214844 -120.507812 73.1875 -120.820312 75.429688 -121.28125 C 76.214844 -121.445312 76.949219 -121.6875 77.632812 -122.011719 C 76.476562 -121.472656 75.414062 -120.667969 74.445312 -119.601562 C 73.6875 -118.769531 73.152344 -117.964844 72.851562 -117.195312 C 71.945312 -114.933594 71.691406 -112.398438 72.09375 -109.589844 C 72.460938 -107.023438 73.289062 -104.875 74.585938 -103.140625 L 98.550781 -121.019531 L 75.152344 -102.40625 C 75.679688 -101.742188 76.359375 -101.121094 77.191406 -100.542969 C 78.21875 -99.832031 79.324219 -99.296875 80.503906 -98.945312 Z M 97.6875 -156.21875 C 102.574219 -154.753906 107.109375 -152.570312 111.289062 -149.667969 C 115.273438 -146.902344 118.828125 -143.558594 121.949219 -139.632812 L 122.238281 -139.269531 L 122.515625 -138.898438 C 127.292969 -132.488281 130.21875 -125.539062 131.289062 -118.046875 C 132.398438 -110.304688 131.457031 -102.707031 128.476562 -95.257812 C 126.097656 -89.21875 122.820312 -83.910156 118.652344 -79.335938 C 114.269531 -74.523438 109.128906 -70.734375 103.230469 -67.96875 C 98.277344 -65.625 93.003906 -63.867188 87.414062 -62.695312 C 83.128906 -61.820312 78.796875 -61.167969 74.421875 -60.742188 C 67.035156 -60.136719 60.125 -60.960938 53.691406 -63.222656 C 46.277344 -65.824219 40.027344 -70.054688 34.949219 -75.90625 C 31.421875 -79.914062 28.734375 -84.75 26.886719 -90.414062 C 25.730469 -93.957031 24.863281 -97.957031 24.292969 -102.414062 C 23.757812 -106.5625 23.542969 -110.375 23.644531 -113.851562 C 23.792969 -118.972656 24.640625 -123.65625 26.183594 -127.898438 L 26.3125 -128.257812 L 26.453125 -128.613281 C 28.835938 -134.679688 32.304688 -139.933594 36.855469 -144.371094 C 41.308594 -148.714844 46.746094 -152.097656 53.167969 -154.53125 C 60.4375 -157.113281 67.707031 -158.578125 74.976562 -158.921875 C 82.566406 -159.277344 90.011719 -158.414062 97.308594 -156.328125 Z M 97.6875 -156.21875 "/></g></g></g><g clip-path="url(#7f0dcec592)"><g fill="#45377f" fill-opacity="1"><g transform="translate(888.531967, 233.334804)"><g><path d="M -15.863281 -169.402344 C -13.367188 -177.417969 -9.285156 -184.007812 -3.617188 -189.167969 C -0.210938 -192.277344 3.617188 -194.707031 7.867188 -196.46875 C 11.839844 -198.117188 16.03125 -199.105469 20.433594 -199.441406 L 20.800781 -199.46875 L 21.167969 -199.488281 C 37.179688 -200.304688 53.148438 -199.9375 69.082031 -198.382812 C 87.359375 -196.59375 105.414062 -191.007812 123.253906 -181.628906 C 143.679688 -170.8125 160.074219 -156.792969 172.441406 -139.574219 C 183.5 -124.074219 190.511719 -107.085938 193.476562 -88.605469 C 194.730469 -80.265625 194.648438 -72.070312 193.234375 -64.015625 C 191.863281 -56.199219 189.269531 -48.5625 185.453125 -41.105469 C 179.230469 -29.035156 172.285156 -18.824219 164.617188 -10.472656 C 155.429688 -0.480469 145.011719 7.480469 133.351562 13.410156 C 122.128906 19.269531 109.800781 23.269531 96.359375 25.410156 C 81.015625 27.894531 65.304688 28.339844 49.222656 26.75 C 35.445312 25.464844 21.6875 23.90625 7.949219 22.074219 L 11.902344 -7.5625 L 8.773438 22.171875 C 3.566406 21.621094 -1.15625 20.417969 -5.394531 18.550781 C -12.113281 15.59375 -17.421875 11.195312 -21.316406 5.351562 C -25.847656 -1.441406 -28.222656 -9.160156 -28.441406 -17.808594 C -29.207031 -38.59375 -28.902344 -63.53125 -27.53125 -92.621094 C -26.074219 -123.324219 -22.195312 -148.890625 -15.890625 -169.324219 Z M 41.25 -151.6875 C 36.433594 -136.082031 33.417969 -115.453125 32.203125 -89.796875 C 30.90625 -62.382812 30.617188 -38.894531 31.335938 -19.34375 C 31.304688 -20.445312 31.117188 -21.613281 30.761719 -22.84375 C 30.257812 -24.589844 29.484375 -26.25 28.4375 -27.820312 C 26.996094 -29.976562 25.277344 -31.84375 23.277344 -33.410156 C 21.816406 -34.554688 20.289062 -35.476562 18.6875 -36.183594 C 17.230469 -36.824219 16.011719 -37.195312 15.03125 -37.296875 L 15.441406 -37.253906 L 15.851562 -37.199219 C 28.8125 -35.472656 41.898438 -33.992188 55.109375 -32.757812 C 66.023438 -31.675781 76.632812 -31.972656 86.945312 -33.640625 C 93.976562 -34.761719 100.40625 -36.84375 106.238281 -39.882812 C 111.488281 -42.554688 116.269531 -46.234375 120.578125 -50.925781 C 124.625 -55.332031 128.503906 -61.136719 132.21875 -68.34375 C 133.300781 -70.453125 134.003906 -72.457031 134.339844 -74.355469 C 134.628906 -76.015625 134.660156 -77.605469 134.433594 -79.132812 C 132.949219 -88.382812 129.429688 -96.902344 123.875 -104.6875 C 116.960938 -114.3125 107.480469 -122.316406 95.425781 -128.703125 C 84.492188 -134.453125 73.777344 -137.839844 63.28125 -138.867188 C 50.292969 -140.132812 37.273438 -140.433594 24.214844 -139.765625 L 22.691406 -169.625 L 24.949219 -139.8125 C 26.90625 -139.960938 28.84375 -140.433594 30.757812 -141.226562 C 32.949219 -142.132812 34.914062 -143.382812 36.652344 -144.96875 C 38.066406 -146.253906 39.222656 -147.664062 40.117188 -149.195312 C 40.625 -150.0625 40.992188 -150.867188 41.226562 -151.609375 Z M 84.757812 -82.210938 C 84.929688 -80.039062 85.519531 -78.167969 86.53125 -76.601562 C 86.710938 -76.324219 86.84375 -76.140625 86.933594 -76.046875 C 86.730469 -76.257812 86.410156 -76.53125 85.980469 -76.863281 L 104.222656 -100.550781 L 87.128906 -76.023438 C 85.5625 -77.113281 83.691406 -78.253906 81.519531 -79.445312 L 95.878906 -105.667969 L 82.597656 -78.882812 C 76.652344 -81.832031 70.613281 -83.6875 64.476562 -84.453125 C 63.300781 -84.621094 62.496094 -84.699219 62.0625 -84.683594 L 61.066406 -114.566406 L 63.617188 -84.777344 C 65.332031 -84.925781 67.039062 -85.34375 68.746094 -86.039062 C 70.75 -86.851562 72.5625 -87.972656 74.191406 -89.398438 C 77.351562 -92.265625 79.683594 -95.375 81.183594 -98.730469 C 81.605469 -99.667969 81.917969 -100.511719 82.125 -101.265625 C 82.054688 -101.003906 81.921875 -100.238281 81.726562 -98.964844 C 80.992188 -94.523438 80.394531 -89.789062 79.945312 -84.753906 C 79.402344 -79.378906 79.066406 -74.527344 78.9375 -70.199219 C 78.886719 -68.46875 78.878906 -67.253906 78.914062 -66.5625 C 78.898438 -66.84375 78.851562 -67.25 78.769531 -67.78125 C 78.371094 -70.386719 77.527344 -72.976562 76.238281 -75.550781 L 77.191406 -73.648438 L 77.863281 -71.632812 C 77.074219 -74 75.953125 -76.234375 74.496094 -78.335938 C 72.5 -81.222656 70.027344 -83.648438 67.082031 -85.609375 L 50.5 -60.730469 L 64.070312 -87.371094 C 65.660156 -86.5625 67.617188 -85.914062 69.9375 -85.417969 C 72.117188 -84.984375 74.277344 -84.820312 76.417969 -84.921875 C 80.257812 -85.066406 84.546875 -85.828125 89.289062 -87.210938 C 89.457031 -87.257812 89.554688 -87.289062 89.582031 -87.296875 L 89.566406 -87.289062 C 89.476562 -87.253906 89.363281 -87.207031 89.234375 -87.140625 C 88.71875 -86.886719 88.1875 -86.535156 87.640625 -86.09375 C 86.117188 -84.859375 84.980469 -83.351562 84.230469 -81.566406 C 84.550781 -82.324219 84.699219 -83.015625 84.683594 -83.644531 L 114.566406 -84.535156 Z M 144.375 -86.859375 L 144.429688 -86.144531 L 144.453125 -85.425781 C 144.730469 -76.117188 143.027344 -67.097656 139.34375 -58.363281 C 136.21875 -50.941406 131.539062 -44.707031 125.308594 -39.652344 C 119.78125 -35.167969 113.355469 -31.886719 106.03125 -29.804688 C 96.535156 -27.035156 87.628906 -25.5 79.304688 -25.195312 C 72.25 -24.855469 64.992188 -25.429688 57.53125 -26.921875 C 50.066406 -28.507812 43.199219 -30.894531 36.925781 -34.089844 L 35.367188 -34.882812 L 33.914062 -35.855469 C 30.527344 -38.113281 27.664062 -40.925781 25.332031 -44.296875 C 23.542969 -46.878906 22.144531 -49.6875 21.132812 -52.722656 L 49.496094 -62.179688 L 22.753906 -48.808594 C 21.246094 -51.824219 20.21875 -55.117188 19.667969 -58.6875 C 19.4375 -60.183594 19.28125 -61.8125 19.191406 -63.578125 C 19.078125 -65.851562 19.070312 -68.644531 19.167969 -71.957031 C 19.335938 -77.710938 19.742188 -83.757812 20.386719 -90.101562 C 20.972656 -96.636719 21.710938 -102.574219 22.605469 -107.921875 C 23.15625 -111.546875 23.78125 -114.636719 24.488281 -117.191406 C 26.414062 -124.160156 29.855469 -129.894531 34.816406 -134.398438 C 38.222656 -137.378906 42.019531 -139.722656 46.210938 -141.429688 C 50.105469 -143.011719 54.203125 -143.988281 58.511719 -144.355469 L 59.289062 -144.421875 L 60.070312 -144.449219 C 64.085938 -144.582031 68.027344 -144.363281 71.894531 -143.789062 C 84.738281 -142.183594 97.164062 -138.40625 109.164062 -132.457031 L 109.707031 -132.183594 L 110.242188 -131.894531 C 114.296875 -129.671875 117.992188 -127.402344 121.320312 -125.082031 L 121.902344 -124.675781 L 122.464844 -124.242188 C 128.410156 -119.660156 133.175781 -114.597656 136.765625 -109.042969 C 141.222656 -102.136719 143.761719 -94.742188 144.375 -86.859375 Z M 144.375 -86.859375 "/></g></g></g></g><g fill="#ffeea2" fill-opacity="1"><g transform="translate(34.967474, 233.334804)"><g><path d="M 144.9375 -30.25 C 145.601562 -26.914062 145.710938 -22.800781 145.265625 -17.90625 C 144.816406 -13.007812 143.851562 -9.003906 142.375 -5.890625 C 141.78125 -4.484375 140.703125 -3.078125 139.140625 -1.671875 L 138.921875 -1.453125 L 138.921875 -1.328125 L 138.8125 -1.21875 C 138.738281 -1.21875 138.703125 -1.21875 138.703125 -1.21875 L 138.375 -0.890625 C 138.289062 -0.890625 138.25 -0.890625 138.25 -0.890625 L 137.921875 -0.5625 C 137.773438 -0.5625 137.703125 -0.484375 137.703125 -0.328125 C 137.628906 -0.328125 137.59375 -0.328125 137.59375 -0.328125 L 137.484375 -0.21875 C 132.953125 -0.144531 124.203125 -0.476562 111.234375 -1.21875 C 98.179688 -1.957031 84.425781 -3.179688 69.96875 -4.890625 C 55.5 -6.523438 42.078125 -8.640625 29.703125 -11.234375 C 17.316406 -13.828125 9.566406 -16.90625 6.453125 -20.46875 C -0.222656 -28.03125 -1.484375 -38.265625 2.671875 -51.171875 C 6.742188 -64.066406 11.226562 -74.113281 16.125 -81.3125 C 18.875 -85.3125 22.320312 -88.6875 26.46875 -91.4375 C 30.550781 -94.101562 34.851562 -96.328125 39.375 -98.109375 C 45.226562 -100.328125 51.71875 -102.4375 58.84375 -104.4375 C 65.882812 -106.363281 71.742188 -109.40625 76.421875 -113.5625 C 79.234375 -116.007812 80.414062 -118.976562 79.96875 -122.46875 C 79.53125 -125.875 77.421875 -128.316406 73.640625 -129.796875 C 71.410156 -130.617188 68.738281 -131.101562 65.625 -131.25 C 62.882812 -131.320312 60.03125 -131.25 57.0625 -131.03125 C 54.394531 -130.800781 51.171875 -130.539062 47.390625 -130.25 C 43.597656 -129.875 40.519531 -130.316406 38.15625 -131.578125 C 37.257812 -132.023438 36.296875 -132.769531 35.265625 -133.8125 L 35.265625 -133.921875 C 35.179688 -133.921875 35.140625 -133.957031 35.140625 -134.03125 L 35.140625 -134.140625 L 35.03125 -134.140625 C 34.957031 -134.210938 34.921875 -134.285156 34.921875 -134.359375 C 34.847656 -134.359375 34.8125 -134.394531 34.8125 -134.46875 C 32.4375 -137.738281 32.210938 -141.5625 34.140625 -145.9375 C 35.992188 -150.3125 38.222656 -153.679688 40.828125 -156.046875 C 40.828125 -156.128906 40.898438 -156.242188 41.046875 -156.390625 L 41.375 -156.71875 C 41.445312 -156.71875 41.519531 -156.71875 41.59375 -156.71875 C 41.59375 -156.863281 41.671875 -156.9375 41.828125 -156.9375 C 43.085938 -158.050781 44.492188 -159.054688 46.046875 -159.953125 C 49.972656 -162.242188 54.90625 -163.984375 60.84375 -165.171875 C 68.40625 -166.578125 75.859375 -167.132812 83.203125 -166.84375 C 90.617188 -166.46875 97.625 -165.207031 104.21875 -163.0625 C 111.039062 -160.757812 117.378906 -157.535156 123.234375 -153.390625 C 132.140625 -146.929688 138.78125 -140.441406 143.15625 -133.921875 C 147.53125 -127.316406 147.53125 -118.378906 143.15625 -107.109375 C 141.300781 -102.210938 138.40625 -97.765625 134.46875 -93.765625 C 131.65625 -90.796875 128.25 -88.085938 124.25 -85.640625 C 120.976562 -83.566406 117.191406 -81.753906 112.890625 -80.203125 C 110.296875 -79.234375 106.332031 -78.007812 101 -76.53125 C 95.65625 -75.1875 91.6875 -74.144531 89.09375 -73.40625 C 84.71875 -72.300781 80.972656 -71.15625 77.859375 -69.96875 C 73.929688 -68.332031 70.554688 -66.625 67.734375 -64.84375 C 64.398438 -62.46875 61.65625 -59.910156 59.5 -57.171875 C 56.46875 -53.171875 54.394531 -49.425781 53.28125 -45.9375 C 52.09375 -42.375 54.164062 -39.816406 59.5 -38.265625 C 61.945312 -37.453125 65.769531 -36.597656 70.96875 -35.703125 C 75.863281 -34.816406 80.789062 -34.113281 85.75 -33.59375 C 90.71875 -33 95.6875 -32.515625 100.65625 -32.140625 C 107.78125 -31.472656 114.269531 -31.328125 120.125 -31.703125 C 125.90625 -32.066406 132.394531 -32.921875 139.59375 -34.265625 C 139.882812 -34.335938 140.289062 -34.375 140.8125 -34.375 C 141.332031 -34.375 141.742188 -34.335938 142.046875 -34.265625 C 142.484375 -34.109375 142.816406 -33.957031 143.046875 -33.8125 L 143.8125 -33.03125 C 144.113281 -32.664062 144.335938 -32.257812 144.484375 -31.8125 C 144.628906 -31.4375 144.78125 -30.914062 144.9375 -30.25 Z M 144.9375 -30.25 "/></g></g></g><g fill="#ffeea2" fill-opacity="1"><g transform="translate(189.630424, 233.334804)"><g><path d="M 92.09375 13.015625 C 91.800781 13.015625 90.765625 8.566406 88.984375 -0.328125 C 79.859375 0.335938 70.738281 0.484375 61.625 0.109375 C 52.5 -0.179688 44.378906 -0.957031 37.265625 -2.21875 C 36.671875 -2.289062 36.078125 -2.40625 35.484375 -2.5625 C 34.890625 -2.632812 34.332031 -2.742188 33.8125 -2.890625 C 31.21875 -2.960938 28.769531 -3.367188 26.46875 -4.109375 C 23.875 -4.773438 21.613281 -6.484375 19.6875 -9.234375 C 17.164062 -12.566406 14.90625 -17.125 12.90625 -22.90625 C 10.601562 -29.363281 8.5625 -37.859375 6.78125 -48.390625 C 4.925781 -58.910156 3.519531 -69.957031 2.5625 -81.53125 C 1.59375 -93.09375 1.109375 -104.363281 1.109375 -115.34375 C 1.035156 -126.238281 1.664062 -135.320312 3 -142.59375 C 3.59375 -146.300781 4.59375 -150.195312 6 -154.28125 C 7.414062 -158.28125 9.789062 -161.429688 13.125 -163.734375 C 14.90625 -164.992188 18.09375 -166.253906 22.6875 -167.515625 C 27.207031 -168.773438 31.84375 -169.550781 36.59375 -169.84375 C 41.34375 -170.070312 45.609375 -169.59375 49.390625 -168.40625 C 53.097656 -167.144531 55.0625 -164.695312 55.28125 -161.0625 C 55.425781 -159.0625 55.273438 -157.019531 54.828125 -154.9375 C 54.316406 -152.789062 53.875 -150.753906 53.5 -148.828125 C 50.382812 -133.179688 49.160156 -115.71875 49.828125 -96.4375 C 50.421875 -77.082031 52.382812 -58.582031 55.71875 -40.9375 C 65.582031 -40.78125 74.1875 -41.148438 81.53125 -42.046875 C 80.488281 -49.304688 79.96875 -53.941406 79.96875 -55.953125 C 79.820312 -61.210938 83.421875 -64.03125 90.765625 -64.40625 C 98.023438 -64.695312 102.878906 -64.175781 105.328125 -62.84375 C 107.847656 -61.363281 110.257812 -56.726562 112.5625 -48.9375 C 114.789062 -49.601562 116.976562 -50.382812 119.125 -51.28125 C 120.6875 -51.875 122.351562 -52.503906 124.125 -53.171875 C 125.832031 -53.835938 127.578125 -54.28125 129.359375 -54.5 C 135.734375 -55.164062 139.144531 -50.234375 139.59375 -39.703125 C 139.96875 -29.179688 139.335938 -22.140625 137.703125 -18.578125 C 136.140625 -15.460938 133.726562 -13.015625 130.46875 -11.234375 C 127.207031 -9.378906 124.054688 -7.894531 121.015625 -6.78125 C 120.566406 -6.632812 120.160156 -6.488281 119.796875 -6.34375 C 119.421875 -6.195312 119.007812 -6.082031 118.5625 -6 C 118.5625 -4.226562 118.191406 -2.488281 117.453125 -0.78125 C 116.710938 1 115.972656 2.707031 115.234375 4.34375 C 114.785156 5.300781 113.226562 6.410156 110.5625 7.671875 C 107.820312 9.003906 106.003906 9.929688 105.109375 10.453125 C 101.628906 12.453125 97.289062 13.304688 92.09375 13.015625 Z M 92.09375 13.015625 "/></g></g></g><g fill="#ffeea2" fill-opacity="1"><g transform="translate(334.282626, 233.334804)"><g/></g></g><g fill="#ffeea2" fill-opacity="1"><g transform="translate(388.281953, 233.334804)"><g><path d="M 132.921875 -166.734375 C 140.035156 -165.097656 145.671875 -163.054688 149.828125 -160.609375 C 154.722656 -157.648438 157.171875 -154.128906 157.171875 -150.046875 C 157.171875 -145.296875 156.757812 -140.550781 155.9375 -135.8125 C 155.125 -131.0625 153.53125 -126.613281 151.15625 -122.46875 C 147.75 -116.457031 144.453125 -113.453125 141.265625 -113.453125 C 138.367188 -113.453125 135.550781 -113.9375 132.8125 -114.90625 C 129.988281 -115.863281 127.242188 -116.789062 124.578125 -117.6875 C 119.015625 -119.539062 111.453125 -120.316406 101.890625 -120.015625 C 92.316406 -119.640625 83.34375 -117.5625 74.96875 -113.78125 C 66.507812 -110 60.019531 -104.144531 55.5 -96.21875 C 50.90625 -88.28125 50.90625 -77.675781 55.5 -64.40625 C 58.84375 -54.6875 65.664062 -47.710938 75.96875 -43.484375 C 86.28125 -39.191406 96.773438 -37.5625 107.453125 -38.59375 C 115.609375 -39.40625 124.171875 -42.554688 133.140625 -48.046875 C 142.109375 -53.535156 151.082031 -51.609375 160.0625 -42.265625 C 165.25 -36.773438 165.175781 -31.328125 159.84375 -25.921875 C 154.425781 -20.503906 149.710938 -16.347656 145.703125 -13.453125 C 142.890625 -11.453125 140.113281 -9.75 137.375 -8.34375 C 129.800781 -4.332031 122.195312 -1.992188 114.5625 -1.328125 C 106.925781 -0.660156 99.328125 -0.660156 91.765625 -1.328125 C 81.679688 -2.296875 72.003906 -4.632812 62.734375 -8.34375 C 55.390625 -11.238281 48.378906 -15.09375 41.703125 -19.90625 C 34.960938 -24.65625 29.035156 -30.515625 23.921875 -37.484375 C 14.421875 -50.234375 8.078125 -64.429688 4.890625 -80.078125 C -0.222656 -104.253906 5.632812 -124.425781 22.46875 -140.59375 C 30.914062 -148.75 40.484375 -154.867188 51.171875 -158.953125 C 61.773438 -163.023438 72.039062 -165.878906 81.96875 -167.515625 C 90.28125 -168.847656 98.773438 -169.515625 107.453125 -169.515625 C 116.128906 -169.515625 124.617188 -168.585938 132.921875 -166.734375 Z M 132.921875 -166.734375 "/></g></g></g><g fill="#ffeea2" fill-opacity="1"><g transform="translate(557.627317, 233.334804)"><g><path d="M 98.328125 -41.828125 C 92.765625 -39.816406 85.085938 -38.109375 75.296875 -36.703125 C 65.441406 -35.296875 57.175781 -34.773438 50.5 -35.140625 C 48.789062 -27.066406 47.492188 -19.765625 46.609375 -13.234375 C 45.640625 -6.929688 43.488281 -3.222656 40.15625 -2.109375 C 36.738281 -0.992188 32.546875 -0.882812 27.578125 -1.78125 C 24.171875 -2.375 20.425781 -3.445312 16.34375 -5 C 12.195312 -6.488281 8.75 -8.34375 6 -10.5625 C 3.707031 -12.488281 2.148438 -15.160156 1.328125 -18.578125 C 0.660156 -21.171875 0.289062 -23.914062 0.21875 -26.8125 C 0.0703125 -29.625 0.0703125 -32.363281 0.21875 -35.03125 C 0.59375 -42.375 2.078125 -51.71875 4.671875 -63.0625 C 7.265625 -74.40625 10.488281 -86.050781 14.34375 -98 C 18.125 -109.9375 22.316406 -121.390625 26.921875 -132.359375 C 31.441406 -143.335938 35.851562 -152.160156 40.15625 -158.828125 C 42.300781 -162.242188 44.929688 -165.691406 48.046875 -169.171875 C 51.160156 -172.585938 54.832031 -174.738281 59.0625 -175.625 C 63.289062 -176.519531 68.890625 -176.410156 75.859375 -175.296875 C 82.828125 -174.179688 88.054688 -172.179688 91.546875 -169.296875 C 97.617188 -166.023438 103.957031 -158.679688 110.5625 -147.265625 C 117.082031 -135.847656 123.125 -123.28125 128.6875 -109.5625 C 134.25 -95.769531 139.035156 -82.3125 143.046875 -69.1875 C 146.972656 -56.0625 149.378906 -46.234375 150.265625 -39.703125 C 151.160156 -33.179688 151.3125 -27.695312 150.71875 -23.25 C 150.050781 -19.539062 148.675781 -16.757812 146.59375 -14.90625 C 144 -12.382812 140.738281 -10.195312 136.8125 -8.34375 C 132.882812 -6.488281 129.25 -5.117188 125.90625 -4.234375 C 121.007812 -2.890625 116.820312 -2.664062 113.34375 -3.5625 C 109.851562 -4.375 107.441406 -7.859375 106.109375 -14.015625 C 104.109375 -22.242188 101.515625 -31.515625 98.328125 -41.828125 Z M 55.84375 -56.84375 C 67.1875 -56.6875 79.050781 -58.09375 91.4375 -61.0625 C 85.71875 -76.039062 79.265625 -90.316406 72.078125 -103.890625 C 65.921875 -89.429688 60.507812 -73.75 55.84375 -56.84375 Z M 55.84375 -56.84375 "/></g></g></g><g fill="#ffeea2" fill-opacity="1"><g transform="translate(714.292403, 233.334804)"><g><path d="M 2 -129.796875 C 2.445312 -135.585938 3.191406 -139.445312 4.234375 -141.375 C 5.191406 -143.300781 8.710938 -146.046875 14.796875 -149.609375 C 31.035156 -158.953125 50.351562 -164.253906 72.75 -165.515625 C 95.0625 -166.691406 113.859375 -160.570312 129.140625 -147.15625 C 136.179688 -140.925781 141.78125 -132.914062 145.9375 -123.125 C 150.007812 -113.269531 149.820312 -103.851562 145.375 -94.875 C 143.519531 -91.09375 141 -88.015625 137.8125 -85.640625 C 134.625 -83.191406 131.804688 -80.375 129.359375 -77.1875 C 127.210938 -74.375 126.25 -71.335938 126.46875 -68.078125 C 126.539062 -65.703125 126.984375 -63.472656 127.796875 -61.390625 C 128.460938 -59.390625 129.351562 -57.5 130.46875 -55.71875 C 131.582031 -53.789062 132.878906 -52.085938 134.359375 -50.609375 C 135.992188 -48.898438 137.628906 -47.414062 139.265625 -46.15625 C 140.597656 -45.039062 142.445312 -43.707031 144.8125 -42.15625 C 146.082031 -41.34375 148.050781 -40.117188 150.71875 -38.484375 C 151.675781 -37.816406 152.675781 -37.222656 153.71875 -36.703125 C 154.6875 -36.109375 155.6875 -35.515625 156.71875 -34.921875 C 159.382812 -33.441406 161.347656 -32.332031 162.609375 -31.59375 C 166.472656 -29.21875 167.101562 -26.175781 164.5 -22.46875 C 162.351562 -19.351562 159.390625 -16.09375 155.609375 -12.6875 C 151.828125 -9.195312 148.304688 -6.453125 145.046875 -4.453125 C 140.816406 -1.773438 136.070312 -1.515625 130.8125 -3.671875 C 122.570312 -6.929688 114.15625 -13.492188 105.5625 -23.359375 C 96.882812 -33.148438 89.988281 -40.785156 84.875 -46.265625 C 81.90625 -49.160156 78.898438 -51.164062 75.859375 -52.28125 C 72.742188 -53.394531 69.367188 -52.28125 65.734375 -48.9375 C 61.878906 -45.300781 60.359375 -38.738281 61.171875 -29.25 C 61.910156 -19.757812 62.726562 -12.679688 63.625 -8.015625 C 64.070312 -5.117188 63.738281 -3.265625 62.625 -2.453125 C 61.4375 -1.554688 59.617188 -0.960938 57.171875 -0.671875 C 54.347656 -0.296875 51.195312 -0.109375 47.71875 -0.109375 C 44.15625 -0.0351562 40.96875 -0.109375 38.15625 -0.328125 C 36.144531 -0.484375 34.140625 -0.78125 32.140625 -1.21875 C 30.066406 -1.59375 28.328125 -2.597656 26.921875 -4.234375 C 23.953125 -7.335938 20.6875 -15.007812 17.125 -27.25 C 13.488281 -39.414062 11.191406 -47.796875 10.234375 -52.390625 C 10.015625 -53.203125 9.828125 -54.054688 9.671875 -54.953125 C 9.453125 -55.765625 9.269531 -56.613281 9.125 -57.5 C 6.75 -68.476562 4.707031 -80.34375 3 -93.09375 C 1.289062 -105.78125 0.957031 -118.015625 2 -129.796875 Z M 89.09375 -127.578125 C 80.789062 -129.953125 72.148438 -129.546875 63.171875 -126.359375 C 58.878906 -124.722656 55.914062 -121.832031 54.28125 -117.6875 C 53.382812 -115.238281 53.273438 -111.414062 53.953125 -106.21875 C 54.617188 -101.03125 55.765625 -97.507812 57.390625 -95.65625 C 60.804688 -91.726562 65.664062 -90.023438 71.96875 -90.546875 C 75.007812 -90.835938 78.160156 -91.316406 81.421875 -91.984375 C 84.609375 -92.648438 87.609375 -93.648438 90.421875 -94.984375 C 95.171875 -97.210938 98.582031 -100.957031 100.65625 -106.21875 C 102.738281 -111.414062 102.035156 -116.347656 98.546875 -121.015625 C 95.953125 -124.273438 92.800781 -126.460938 89.09375 -127.578125 Z M 89.09375 -127.578125 "/></g></g></g><g clip-path="url(#35778a0b78)"><g fill="#ffeea2" fill-opacity="1"><g transform="translate(888.531967, 233.334804)"><g><path d="M 12.6875 -160.5 C 14.457031 -166.207031 17.789062 -169.25 22.6875 -169.625 C 37.21875 -170.363281 51.71875 -170.03125 66.1875 -168.625 C 80.570312 -167.21875 94.957031 -162.734375 109.34375 -155.171875 C 125.582031 -146.566406 138.519531 -135.550781 148.15625 -122.125 C 156.457031 -110.488281 161.722656 -97.734375 163.953125 -83.859375 C 165.429688 -74.003906 163.722656 -64.289062 158.828125 -54.71875 C 153.859375 -45.082031 148.445312 -37.078125 142.59375 -30.703125 C 135.84375 -23.359375 128.242188 -17.535156 119.796875 -13.234375 C 111.265625 -8.785156 101.882812 -5.742188 91.65625 -4.109375 C 78.820312 -2.035156 65.660156 -1.664062 52.171875 -3 C 38.671875 -4.257812 25.25 -5.78125 11.90625 -7.5625 C 7.675781 -8.007812 4.894531 -9.234375 3.5625 -11.234375 C 2.226562 -13.234375 1.523438 -15.679688 1.453125 -18.578125 C 0.703125 -38.742188 0.992188 -62.953125 2.328125 -91.203125 C 3.671875 -119.378906 7.125 -142.476562 12.6875 -160.5 Z M 114.5625 -84.53125 C 114.125 -90.238281 110.675781 -95.578125 104.21875 -100.546875 C 101.769531 -102.253906 98.988281 -103.960938 95.875 -105.671875 C 86.90625 -110.117188 77.675781 -112.9375 68.1875 -114.125 C 65.664062 -114.488281 63.289062 -114.632812 61.0625 -114.5625 C 58.46875 -114.34375 56.28125 -113.453125 54.5 -111.890625 C 53.6875 -111.148438 52.910156 -108.332031 52.171875 -103.4375 C 51.347656 -98.550781 50.679688 -93.210938 50.171875 -87.421875 C 49.578125 -81.566406 49.203125 -76.117188 49.046875 -71.078125 C 48.898438 -66.035156 49.050781 -63.066406 49.5 -62.171875 C 49.71875 -61.503906 50.050781 -61.023438 50.5 -60.734375 C 54.425781 -58.734375 58.835938 -57.210938 63.734375 -56.171875 C 68.554688 -55.203125 73.265625 -54.832031 77.859375 -55.0625 C 83.941406 -55.28125 90.539062 -56.425781 97.65625 -58.5 C 104.695312 -60.507812 109.40625 -64.332031 111.78125 -69.96875 C 113.78125 -74.707031 114.707031 -79.5625 114.5625 -84.53125 Z M 114.5625 -84.53125 "/></g></g></g></g></g></g></g></svg>