<svg xmlns="http://www.w3.org/2000/svg" xmlns:xlink="http://www.w3.org/1999/xlink" width="2520" zoomAndPan="magnify" viewBox="0 0 1440 547.92" height="720" preserveAspectRatio="xMidYMid meet" version="1.0"><defs><g/><clipPath id="7c12093639"><path d="M 0.105469 0 L 1439.894531 0 L 1439.894531 539.921875 L 0.105469 539.921875 Z M 0.105469 0 " clip-rule="nonzero"/></clipPath><clipPath id="11547d6cc5"><path d="M 393 123 L 1439.894531 123 L 1439.894531 417 L 393 417 Z M 393 123 " clip-rule="nonzero"/></clipPath><clipPath id="5f67fc6227"><path d="M 868 32 L 1046.894531 32 L 1046.894531 263 L 868 263 Z M 868 32 " clip-rule="nonzero"/></clipPath><clipPath id="72e0c1b938"><path d="M 898 62 L 1046.894531 62 L 1046.894531 233 L 898 233 Z M 898 62 " clip-rule="nonzero"/></clipPath><clipPath id="56df1037bf"><rect x="0" width="1047" y="0" height="294"/></clipPath></defs><g clip-path="url(#7c12093639)"><path fill="#ffffff" d="M 0.105469 0 L 1889.828125 0 L 1889.828125 539.921875 L 0.105469 539.921875 Z M 0.105469 0 " fill-opacity="1" fill-rule="nonzero"/><path fill="#ffffff" d="M 0.105469 0 L 1889.828125 0 L 1889.828125 539.921875 L 0.105469 539.921875 Z M 0.105469 0 " fill-opacity="1" fill-rule="nonzero"/></g><g clip-path="url(#11547d6cc5)"><g transform="matrix(1, 0, 0, 1, 393, 123)"><g clip-path="url(#56df1037bf)"><g fill="#45377f" fill-opacity="1"><g transform="translate(31.352964, 233.334687)"><g><path d="M -23.6875 -155.558594 L -23.132812 -156.5625 L -21.03125 -160.34375 L -17.234375 -166.3125 L -14.800781 -168.746094 L 6.339844 -147.601562 L -16.628906 -166.742188 L -14.402344 -169.414062 L 8.566406 -150.273438 L -18.175781 -163.644531 L -15.894531 -168.207031 L -11.082031 -173.019531 L -7.28125 -176.632812 L -0.617188 -181.59375 L 17.242188 -157.613281 L -3.902344 -178.753906 L -1.242188 -181.414062 L 5.625 -185.582031 L 18.953125 -192.742188 L 26.695312 -192.742188 L 26.695312 -162.839844 L 14.507812 -190.144531 L 21.8125 -193.40625 L 34.8125 -198.019531 L 51.472656 -201.945312 L 59.566406 -203.054688 L 69.71875 -203.753906 L 77.5625 -203.753906 L 87.363281 -203 L 103.125 -200.257812 L 110.792969 -198.066406 L 126.050781 -191.960938 L 136.015625 -186.574219 L 150.117188 -176.464844 L 132.699219 -152.164062 L 132.699219 -182.0625 L 145.652344 -182.0625 L 165.039062 -161.640625 L 175.171875 -144.972656 L 180.058594 -131.332031 L 180.058594 -125.800781 L 150.160156 -125.800781 L 179.832031 -129.476562 L 182.222656 -110.195312 L 179.972656 -103.445312 L 151.605469 -112.898438 L 181.507812 -112.898438 L 181.507812 -106.601562 L 179.859375 -101.664062 L 151.496094 -111.121094 L 181.394531 -111.121094 L 181.394531 -105.488281 L 179.75 -100.550781 L 151.382812 -110.007812 L 181.285156 -110.007812 L 181.285156 -104.820312 L 179.636719 -99.886719 L 151.273438 -109.339844 L 180.523438 -103.152344 L 179.300781 -97.367188 L 150.050781 -103.554688 L 179.949219 -103.554688 L 179.949219 -96.164062 L 176.570312 -89.40625 L 149.828125 -102.777344 L 179.726562 -102.777344 L 179.726562 -95.988281 L 176.308594 -88.578125 L 149.160156 -101.109375 L 179.058594 -101.109375 L 179.058594 -93.828125 L 173.742188 -83.191406 L 165.835938 -72.125 L 158.972656 -68.695312 L 145.601562 -95.4375 L 172.34375 -82.066406 L 170.0625 -77.503906 L 160.753906 -68.195312 L 156.191406 -65.914062 L 142.820312 -92.65625 L 163.960938 -71.511719 L 161.941406 -69.492188 L 154.78125 -64.316406 L 137.257812 -88.539062 L 158.398438 -67.398438 L 154.746094 -63.746094 L 149.738281 -61.242188 L 136.367188 -87.984375 L 157.511719 -66.839844 L 153.855469 -63.1875 L 149.292969 -60.90625 L 135.921875 -87.648438 L 157.066406 -66.507812 L 154.347656 -63.789062 L 139.25 -54.523438 L 130.695312 -54.523438 L 130.695312 -84.425781 L 151.835938 -63.28125 L 151.613281 -63.058594 L 130.472656 -84.203125 L 153.175781 -103.660156 L 161.039062 -94.484375 L 161.039062 -83.3125 L 131.140625 -83.3125 L 152.28125 -104.453125 L 154.339844 -102.394531 L 158.210938 -97.234375 L 159.335938 -95.359375 L 133.699219 -79.976562 L 157.617188 -97.914062 L 159.542969 -95.34375 L 160.671875 -93.464844 L 135.035156 -78.082031 L 158.953125 -96.023438 L 160.902344 -93.421875 L 162.332031 -90.566406 L 135.589844 -77.195312 L 161.226562 -92.578125 L 162.152344 -91.035156 L 162.886719 -89.5625 L 136.144531 -76.191406 L 161.785156 -91.574219 L 162.707031 -90.035156 L 164 -87.449219 L 164.683594 -85.738281 L 136.925781 -74.636719 L 162.5625 -90.019531 L 163.988281 -87.640625 L 165.703125 -83.570312 L 138.148438 -71.964844 L 164.890625 -85.335938 L 165.667969 -83.78125 L 167.375 -79.519531 L 168.023438 -76.273438 L 138.703125 -70.410156 L 166.464844 -81.511719 L 167.929688 -77.851562 L 168.578125 -74.605469 L 139.261719 -68.742188 L 167.019531 -79.84375 L 168.261719 -76.738281 L 169.136719 -72.378906 L 139.816406 -66.515625 L 160.957031 -87.65625 L 168.015625 -80.597656 L 170.046875 -67.214844 L 140.484375 -62.734375 L 169.492188 -69.984375 L 170.496094 -65.96875 L 170.496094 -61.511719 L 140.59375 -61.511719 L 169.601562 -68.761719 L 170.605469 -64.746094 L 170.605469 -58.953125 L 140.707031 -58.953125 L 169.070312 -68.40625 L 170.714844 -63.46875 L 170.714844 -54.492188 L 169.710938 -50.476562 L 140.707031 -57.730469 L 170.605469 -57.730469 L 170.605469 -52.046875 L 169.601562 -48.03125 L 140.59375 -55.28125 L 170.117188 -50.558594 L 169.230469 -44.996094 L 139.707031 -49.71875 L 169.605469 -49.71875 L 169.605469 -44.421875 L 167.957031 -39.488281 L 139.59375 -48.941406 L 168.601562 -41.691406 L 168.210938 -40.132812 L 167.613281 -38.34375 L 165.148438 -31.53125 L 137.035156 -41.710938 L 165.402344 -32.257812 L 164.617188 -29.90625 L 160.832031 -22.335938 L 158.910156 -19.453125 L 134.03125 -36.039062 L 162.398438 -26.582031 L 161.09375 -22.667969 L 155.09375 -13.371094 L 152.503906 -10.78125 L 131.363281 -31.921875 L 156.242188 -15.339844 L 154.152344 -12.207031 L 151.835938 -9.890625 L 130.695312 -31.035156 L 155.574219 -14.449219 L 153.484375 -11.316406 L 151.058594 -8.890625 L 129.917969 -30.03125 L 154.792969 -13.449219 L 152.484375 -9.984375 L 149.835938 -7.332031 L 128.695312 -28.476562 L 153.570312 -11.890625 L 151.707031 -9.09375 L 149.277344 -6.664062 L 128.136719 -27.808594 L 150.175781 -7.605469 L 142.839844 0.402344 L 139.496094 2.632812 L 122.910156 -22.246094 L 142.742188 0.128906 L 137.847656 4.464844 L 118.015625 -17.90625 L 139.15625 3.234375 L 137.210938 5.179688 L 135.066406 6.789062 L 117.125 -17.128906 L 138.265625 4.011719 L 136.429688 5.847656 L 131.683594 9.40625 L 128.828125 10.835938 L 115.457031 -15.90625 L 136.597656 5.234375 L 132.722656 9.113281 L 127.9375 11.503906 L 114.566406 -15.238281 L 132.507812 8.679688 L 130.15625 10.445312 L 128.1875 11.671875 L 112.34375 -13.679688 L 133.484375 7.460938 L 130.546875 10.398438 L 126.835938 12.625 L 116.894531 18.390625 L 114.324219 19.417969 L 103.222656 -8.34375 L 116.59375 18.398438 L 114.144531 19.625 L 112.433594 20.308594 L 101.332031 -7.453125 L 114.703125 19.289062 L 112.699219 20.289062 L 110.988281 20.976562 L 99.886719 -6.785156 L 113.257812 19.957031 L 110.914062 21.128906 L 100.28125 25.074219 L 97.40625 25.648438 L 91.542969 -3.671875 L 104.914062 23.070312 L 100.886719 25.085938 L 96.40625 25.980469 L 90.542969 -3.335938 L 98.289062 25.539062 L 93.730469 26.765625 L 91.746094 27.265625 L 79.234375 29.453125 L 76.191406 29.453125 L 76.191406 -0.445312 L 78.820312 29.339844 L 75.039062 29.671875 L 72.410156 -0.109375 L 79.664062 28.894531 L 75.648438 29.898438 L 58.796875 29.898438 L 56.199219 29.640625 L 59.175781 -0.109375 L 59.175781 29.789062 L 56.539062 29.789062 L 47.835938 28.898438 L 45.125 28.296875 L 51.609375 -0.890625 L 48.636719 28.859375 L 46.070312 28.605469 L 43.523438 28.09375 L 49.386719 -1.222656 L 46.085938 28.492188 L 43.792969 28.238281 L 40.296875 27.539062 L 38.671875 27.183594 L 31.78125 25.574219 L 28.476562 24.472656 L 23.203125 22.59375 L 33.257812 -5.5625 L 33.257812 24.335938 L 24.09375 24.335938 L 16.226562 19.09375 L 32.8125 -5.785156 L 19.75 21.109375 L 15.855469 19.21875 L 28.921875 -7.675781 L 17.816406 20.085938 L 13.972656 18.546875 L 3.675781 11.253906 L 1.085938 8.664062 L -4.648438 2.535156 L -6.617188 -0.746094 L -13.769531 -12.292969 L -13.769531 -21.023438 L 16.128906 -21.023438 L -11.261719 -9.039062 L -12.042969 -10.816406 L 15.351562 -22.800781 L -11.390625 -9.429688 L -14.769531 -16.1875 L -14.769531 -23.46875 L 15.128906 -23.46875 L -13.585938 -15.132812 L -15.773438 -22.664062 L -15.773438 -27.585938 L 14.125 -27.585938 L -12.617188 -14.214844 L -15.882812 -20.75 L -15.882812 -28.699219 L 14.015625 -28.699219 L -12.726562 -15.328125 L -15.996094 -21.863281 L -15.996094 -35.550781 L -14.347656 -40.488281 L 14.015625 -31.035156 L -15.449219 -36.113281 L -14.144531 -43.683594 L -11.726562 -48.519531 L 15.015625 -35.148438 L -14.882812 -35.148438 L -14.882812 -42.429688 L -10.023438 -52.144531 L -5.0625 -58.65625 L -0.246094 -63.207031 L 5.246094 -67.480469 L 14.683594 -73.214844 L 19.265625 -74.976562 L 22.335938 -76 L 25.941406 -76.902344 L 32.230469 -77.949219 L 37.285156 -77.949219 L 43.882812 -77.351562 L 52.035156 -75.019531 L 59.75 -70.867188 L 64.8125 -67.070312 L 70.65625 -60.523438 L 73.523438 -56.511719 L 76.609375 -50.34375 L 77.886719 -46.933594 L 78.980469 -43.1875 L 50.277344 -34.816406 L 71.417969 -55.957031 L 74.960938 -52.414062 L 77.242188 -47.851562 L 50.5 -34.480469 L 64.816406 -60.730469 L 66.039062 -60.0625 L 51.722656 -33.8125 L 57.585938 -63.132812 L 59.253906 -62.796875 L 53.390625 -33.480469 L 57.617188 -63.078125 L 58.398438 -62.96875 L 54.167969 -33.371094 L 54.167969 -63.269531 L 56.960938 -63.269531 L 59.84375 -62.855469 L 55.617188 -33.257812 L 55.617188 -63.15625 L 58.285156 -63.15625 L 58.285156 -33.257812 L 54.578125 -62.925781 L 58.203125 -63.378906 L 61.066406 -63.378906 L 61.066406 -33.480469 L 57.296875 -63.140625 L 70.421875 -64.808594 L 74.191406 -35.148438 L 66.9375 -64.15625 L 71.84375 -65.382812 L 75.96875 -65.382812 L 75.96875 -35.484375 L 68.71875 -64.488281 L 71.386719 -65.15625 L 73.21875 -65.664062 L 81.085938 -36.816406 L 70.933594 -64.9375 L 75.285156 -66.511719 L 76.304688 -66.851562 L 85.757812 -38.484375 L 72.160156 -65.113281 L 77.390625 -67.785156 L 90.988281 -41.15625 L 74.742188 -66.257812 L 76.636719 -67.480469 L 92.878906 -42.378906 L 74.199219 -65.726562 L 77.785156 -68.59375 L 81.285156 -70.34375 L 94.65625 -43.601562 L 75.980469 -66.949219 L 77.09375 -67.839844 L 95.769531 -44.492188 L 72.421875 -63.167969 L 74.941406 -66.320312 L 78.648438 -69.285156 L 97.328125 -45.9375 L 74.527344 -65.28125 L 77.644531 -68.953125 L 100.441406 -49.609375 L 74.804688 -64.992188 L 75.804688 -66.660156 L 101.441406 -51.277344 L 74.699219 -64.648438 L 75.546875 -66.34375 L 76.472656 -67.882812 L 102.109375 -52.5 L 74.113281 -63 L 75.117188 -65.667969 L 103.109375 -55.171875 L 73.792969 -61.035156 L 74.460938 -64.371094 L 103.777344 -58.507812 L 73.878906 -58.507812 L 73.878906 -60.175781 L 103.777344 -60.175781 L 74.179688 -55.949219 L 73.847656 -58.285156 L 103.445312 -62.511719 L 74.695312 -54.296875 L 74.25 -55.855469 L 103 -64.070312 L 74.636719 -54.613281 L 74.414062 -55.28125 L 102.777344 -64.734375 L 75.296875 -52.957031 L 74.628906 -54.515625 L 102.109375 -66.292969 L 76.832031 -50.328125 L 75.496094 -52.441406 L 100.773438 -68.40625 L 77.804688 -49.265625 L 76.136719 -51.269531 L 99.105469 -70.410156 L 77.964844 -49.265625 L 76.628906 -50.601562 L 97.773438 -71.742188 L 78.632812 -48.773438 L 76.921875 -50.199219 L 75.296875 -51.824219 L 96.4375 -72.96875 L 79.058594 -48.636719 L 77.5 -49.75 L 94.878906 -74.078125 L 80.4375 -47.902344 L 77.210938 -49.679688 L 91.652344 -75.859375 L 80.953125 -47.941406 L 74.277344 -50.5 L 84.980469 -78.417969 L 76.765625 -49.667969 L 74.429688 -50.335938 L 82.644531 -79.085938 L 82.644531 -49.1875 L 79.980469 -49.1875 L 72.003906 -50.4375 L 76.636719 -79.976562 L 76.636719 -50.074219 L 72.632812 -50.074219 L 72.632812 -79.976562 L 74.390625 -50.128906 L 63.636719 -49.496094 L 57.34375 -51.292969 L 56.058594 -51.722656 L 65.515625 -80.085938 L 57.300781 -51.335938 L 52.734375 -52.644531 L 48.796875 -55.003906 L 64.179688 -80.640625 L 50.808594 -53.898438 L 47.308594 -55.648438 L 41.875 -59.996094 L 38.824219 -63.046875 L 32.828125 -70.933594 L 29.148438 -80.753906 L 28.273438 -86.859375 L 28.273438 -91.734375 L 29.054688 -97.964844 L 30.867188 -102.796875 L 32.378906 -106.328125 L 35.957031 -112.054688 L 40.535156 -116.632812 L 44.617188 -119.691406 L 48.320312 -121.8125 L 53.074219 -123.921875 L 58.792969 -125.351562 L 63.246094 -126.011719 L 67.628906 -96.4375 L 60.90625 -125.570312 L 62.835938 -126.015625 L 68.992188 -127.222656 L 74.746094 -97.882812 L 66.308594 -126.566406 L 70.09375 -127.679688 L 78.527344 -98.996094 L 67.886719 -126.933594 L 70.222656 -127.824219 L 80.863281 -99.886719 L 67.070312 -126.410156 L 72.632812 -129.304688 L 86.425781 -102.777344 L 69.839844 -127.65625 L 71.507812 -128.765625 L 88.09375 -103.890625 L 66.953125 -125.03125 L 69.269531 -127.347656 L 75.398438 -131.433594 L 79.53125 -132.808594 L 88.984375 -104.445312 L 67.84375 -125.585938 L 68.683594 -126.429688 L 73.203125 -130.710938 L 93.765625 -109.007812 L 72.625 -130.148438 L 73.515625 -131.039062 L 94.65625 -109.894531 L 69.78125 -126.480469 L 70.003906 -126.8125 L 94.878906 -110.230469 L 69.242188 -125.613281 L 71.242188 -128.949219 L 96.882812 -113.566406 L 70.140625 -126.9375 L 70.695312 -128.050781 L 97.4375 -114.679688 L 69.441406 -125.175781 L 70.109375 -126.957031 L 98.105469 -116.457031 L 69.097656 -123.710938 L 69.441406 -125.082031 L 69.800781 -126.339844 L 98.550781 -118.125 L 68.882812 -121.835938 L 68.992188 -122.726562 L 69.175781 -124.023438 L 98.773438 -119.796875 L 68.875 -119.796875 L 68.875 -121.464844 L 98.773438 -121.464844 L 69.175781 -117.234375 L 68.839844 -119.570312 L 98.4375 -123.800781 L 69.691406 -115.585938 L 69.023438 -117.921875 L 97.773438 -126.136719 L 71.710938 -111.476562 L 69.710938 -115.035156 L 95.769531 -129.695312 L 72.800781 -110.554688 L 71.132812 -112.554688 L 94.101562 -131.695312 L 72.960938 -110.554688 L 71.625 -111.890625 L 92.765625 -133.03125 L 73.625 -110.0625 L 71.917969 -111.488281 L 70.289062 -113.113281 L 91.429688 -134.253906 L 74.054688 -109.925781 L 72.496094 -111.039062 L 89.875 -135.367188 L 74.753906 -109.574219 L 71.527344 -111.464844 L 86.648438 -137.257812 L 75.714844 -109.429688 L 69.488281 -111.878906 L 80.417969 -139.707031 L 73.167969 -110.699219 L 72.722656 -110.8125 L 69.417969 -111.558594 L 76.082031 -140.707031 L 76.082031 -110.808594 L 73.078125 -110.808594 L 67.332031 -111.796875 L 72.410156 -141.261719 L 70.421875 -111.429688 L 67.085938 -111.652344 L 69.074219 -141.484375 L 69.074219 -111.585938 L 65.738281 -111.585938 L 65.738281 -141.484375 L 67.035156 -111.613281 L 64.476562 -111.503906 L 63.179688 -141.375 L 67.59375 -111.804688 L 60.140625 -110.691406 L 55.726562 -140.261719 L 63.730469 -111.453125 L 59.722656 -110.339844 L 51.722656 -139.148438 L 61.175781 -110.785156 L 58.839844 -110.007812 L 49.386719 -138.371094 L 61.53125 -111.050781 L 59.527344 -110.160156 L 47.382812 -137.480469 L 60.445312 -110.585938 L 56.554688 -108.695312 L 43.492188 -135.589844 L 59.226562 -110.167969 L 54.558594 -107.277344 L 38.820312 -132.699219 L 59.960938 -111.554688 L 57.644531 -109.242188 L 53.847656 -106.707031 L 37.261719 -131.585938 L 56.542969 -108.734375 L 52.984375 -105.730469 L 33.703125 -128.582031 L 62.214844 -119.578125 L 61.546875 -117.464844 L 33.035156 -126.46875 L 62.222656 -119.984375 L 61.664062 -117.476562 L 60.84375 -115.011719 L 32.480469 -124.46875 L 61.667969 -117.980469 L 60.988281 -114.933594 L 59.917969 -112.078125 L 31.921875 -122.574219 L 60.929688 -115.324219 L 60.292969 -112.78125 L 59.121094 -109.652344 L 57.839844 -106.667969 L 55.59375 -102.734375 L 53.246094 -99.210938 L 49.925781 -95.230469 L 45.277344 -91.355469 L 41.492188 -88.832031 L 34.964844 -85.722656 L 29.832031 -84.257812 L 24.480469 -83.492188 L 15.5625 -83.292969 L 5.273438 -84.527344 L -2.21875 -86.808594 L -8.421875 -89.910156 L -14.332031 -94.179688 L -18.625 -98.472656 L -22.664062 -103.617188 L -26.496094 -110.960938 L -29.34375 -119.96875 L -29.34375 -124.800781 L 0.554688 -124.800781 L -28.878906 -119.542969 L -29.898438 -125.265625 L -29.898438 -137.976562 L -26.632812 -144.511719 L 0.109375 -131.140625 L -29.605469 -134.441406 L -29.332031 -136.910156 L -28.625 -141.84375 L -27.460938 -145.804688 L 1.222656 -137.371094 L -28.675781 -137.371094 L -28.675781 -143.253906 L -25.382812 -151.640625 L 2.445312 -140.707031 L -27.453125 -140.707031 L -27.453125 -148.789062 Z M 28.582031 -126.519531 L 2.445312 -141.039062 L 32.347656 -141.039062 L 32.347656 -135.042969 L 29.050781 -126.660156 L 1.222656 -137.59375 L 31.121094 -137.59375 L 31.121094 -133.0625 L 29.351562 -127.042969 L 0.667969 -135.480469 L 30.265625 -131.25 L 29.933594 -128.914062 L 0.332031 -133.144531 L 30.050781 -129.839844 L 29.238281 -122.539062 L 26.742188 -117.546875 L 0 -130.917969 L 29.898438 -130.917969 L 29.898438 -127.914062 L 0 -127.914062 L 29.433594 -133.171875 L 30.453125 -127.449219 L 30.453125 -124.578125 L 0.554688 -124.578125 L 29.066406 -133.582031 L 29.734375 -131.46875 L 1.222656 -122.464844 L 27.730469 -136.296875 L 29.066406 -133.738281 L 2.558594 -119.90625 L 26.066406 -138.378906 L 27.292969 -136.820312 L 3.78125 -118.347656 L 24.921875 -139.492188 L 26.257812 -138.15625 L 5.117188 -117.015625 L 22.621094 -141.253906 L 24.625 -139.808594 L 7.117188 -115.570312 L 20.488281 -142.3125 L 22.269531 -141.421875 L 8.898438 -114.679688 L 17.605469 -143.28125 L 20.164062 -142.503906 L 11.457031 -113.898438 L 15.019531 -143.585938 L 20.582031 -142.917969 L 17.019531 -113.234375 L 16.355469 -143.125 L 21.359375 -143.234375 L 22.023438 -113.34375 L 17.796875 -142.941406 L 19.351562 -143.164062 L 23.582031 -113.566406 L 15.367188 -142.316406 L 16.144531 -142.539062 L 24.359375 -113.789062 L 11.503906 -140.785156 L 13.839844 -141.894531 L 26.695312 -114.902344 L 10.109375 -139.777344 L 10.777344 -140.222656 L 27.363281 -115.347656 L 8.222656 -138.316406 L 9.558594 -139.425781 L 28.699219 -116.457031 L 5.730469 -135.597656 L 6.285156 -136.265625 L 29.253906 -117.125 L 4.375 -133.710938 L 5.265625 -135.046875 L 30.144531 -118.460938 L 4.183594 -133.292969 L 5.074219 -134.851562 L 31.035156 -120.019531 L 3.550781 -131.796875 L 3.886719 -132.574219 L 31.367188 -120.796875 L 3.371094 -131.292969 L 3.707031 -132.183594 L 31.699219 -121.6875 L 2.695312 -128.9375 L 3.332031 -131.480469 L 4.261719 -133.964844 L 32.257812 -123.464844 L 3.070312 -129.953125 L 3.628906 -132.457031 L 4.449219 -134.921875 L 32.8125 -125.46875 L 3.625 -131.953125 L 4.132812 -134.230469 L 7.800781 -145.847656 L 19.273438 -155.527344 L 22.011719 -157.351562 L 38.597656 -132.476562 L 17.457031 -153.617188 L 20.132812 -156.292969 L 29.054688 -161.816406 L 34.777344 -164.597656 L 38.5625 -166.277344 L 42.988281 -167.753906 L 49.496094 -169.5625 L 60.316406 -171.175781 L 65.085938 -171.382812 L 70.070312 -171.382812 L 75.957031 -170.992188 L 80.714844 -170.171875 L 75.636719 -140.707031 L 75.636719 -170.605469 L 79.457031 -170.605469 L 87.226562 -168.824219 L 89.550781 -168.242188 L 99.753906 -164.234375 L 106.15625 -160.480469 L 110.824219 -157.148438 L 113.242188 -154.730469 L 92.097656 -133.585938 L 111.238281 -156.558594 L 112.949219 -155.132812 L 116.203125 -151.878906 L 120.488281 -146.734375 L 125.554688 -137.730469 L 127.75 -130.050781 L 128.671875 -123.589844 L 128.671875 -117.671875 L 128.328125 -115.308594 L 127.933594 -112.128906 L 127.078125 -109.132812 L 98.328125 -117.347656 L 127.332031 -110.097656 L 126.699219 -107.554688 L 124.882812 -102.710938 L 123.109375 -99.167969 L 120.152344 -94.238281 L 117.890625 -90.847656 L 114.625 -87.578125 L 110.101562 -83.296875 L 89.539062 -105 L 110.683594 -83.859375 L 105.136719 -78.3125 L 98.105469 -75.96875 L 88.652344 -104.335938 L 105.234375 -79.457031 L 104.902344 -79.234375 L 88.316406 -104.113281 L 109.457031 -82.96875 L 107.144531 -80.652344 L 101.660156 -77 L 93.125 -72.5625 L 88.082031 -70.640625 L 81.855469 -68.808594 L 74.828125 -67.429688 L 69.074219 -96.769531 L 75.796875 -67.636719 L 73.1875 -67.035156 L 69.007812 -66.414062 L 64.625 -95.992188 L 71.875 -66.984375 L 70.097656 -66.539062 L 62.84375 -95.546875 L 74.988281 -68.226562 L 73.988281 -67.78125 L 61.84375 -95.101562 L 76.679688 -69.144531 L 75.898438 -68.699219 L 61.066406 -94.65625 L 79.003906 -70.738281 L 78.113281 -70.070312 L 60.175781 -93.988281 L 81.316406 -72.847656 L 80.648438 -72.179688 L 59.507812 -93.324219 L 84.863281 -77.476562 L 84.304688 -76.585938 L 58.953125 -92.433594 L 86.433594 -80.65625 L 86.101562 -79.875 L 58.617188 -91.652344 L 86.613281 -81.15625 L 86.28125 -80.265625 L 58.285156 -90.765625 L 87.953125 -87.054688 L 87.839844 -86.164062 L 58.171875 -89.875 L 88.074219 -89.875 L 88.074219 -88.984375 L 58.171875 -88.984375 L 87.773438 -93.210938 L 87.882812 -92.433594 L 58.285156 -88.207031 L 86.28125 -98.703125 L 87.28125 -96.035156 L 59.285156 -85.535156 L 83.089844 -103.628906 L 85.203125 -100.847656 L 61.398438 -82.753906 L 82.539062 -103.898438 L 82.984375 -103.453125 L 61.84375 -82.3125 L 80.523438 -105.65625 L 82.191406 -104.324219 L 63.511719 -80.976562 L 76.882812 -107.71875 L 78.578125 -106.871094 L 80.117188 -105.945312 L 64.734375 -80.308594 L 72.949219 -109.058594 L 74.351562 -108.65625 L 75.636719 -108.226562 L 66.183594 -79.863281 L 74.394531 -108.613281 L 75.175781 -108.390625 L 66.960938 -79.640625 L 65.203125 -109.488281 L 71.753906 -109.875 L 78.96875 -109.875 L 86.945312 -108.621094 L 82.3125 -79.085938 L 82.3125 -108.984375 L 86.832031 -108.984375 L 94.457031 -106.804688 L 104.285156 -103.035156 L 110.84375 -99.417969 L 115.828125 -95.859375 L 118.246094 -93.441406 L 97.105469 -72.300781 L 116.246094 -95.269531 L 117.953125 -93.84375 L 121.207031 -90.589844 L 125.003906 -86.035156 L 128.65625 -80.253906 L 130.75 -75.371094 L 131.570312 -72.90625 L 132.753906 -68.761719 L 133.675781 -62.300781 L 133.675781 -55.546875 L 131.953125 -46.9375 L 129.148438 -39.453125 L 127.414062 -36.5625 L 101.777344 -51.945312 L 128.519531 -38.574219 L 127.671875 -36.878906 L 124.820312 -32.128906 L 118.257812 -24.394531 L 114.890625 -21.703125 L 96.214844 -45.046875 L 119.5625 -26.371094 L 117.042969 -23.21875 L 110.863281 -18.277344 L 107.359375 -16.527344 L 93.988281 -43.269531 L 112.667969 -19.921875 L 110.382812 -18.09375 L 105.945312 -15.222656 L 97.351562 -10.832031 L 94.546875 -9.898438 L 85.089844 -38.261719 L 95.246094 -10.140625 L 90.113281 -8.289062 L 85.890625 -7.144531 L 79.652344 -5.582031 L 75.527344 -5.582031 L 75.527344 -35.484375 L 82.777344 -6.476562 L 79.722656 -5.710938 L 62.957031 -3.582031 L 60.066406 -3.582031 L 60.066406 -33.480469 L 63.773438 -3.8125 L 60.144531 -3.359375 L 53.492188 -3.359375 L 50.609375 -3.769531 L 54.835938 -33.371094 L 54.835938 -3.46875 L 52.042969 -3.46875 L 48.339844 -4 L 41.398438 -5.386719 L 27.949219 -12.722656 L 23.644531 -21.332031 L 50.386719 -34.703125 L 29.246094 -13.5625 L 23.71875 -19.089844 L 20.792969 -29.113281 L 49.496094 -37.484375 L 21.503906 -26.988281 L 21.167969 -27.875 L 49.164062 -38.375 L 22.421875 -25.003906 L 21.085938 -27.671875 L 47.828125 -41.042969 L 23.5 -23.664062 L 22.941406 -24.445312 L 47.273438 -41.824219 L 24.96875 -21.910156 L 22.191406 -25.023438 L 44.492188 -44.9375 L 26.554688 -21.019531 L 25.664062 -21.683594 L 43.601562 -45.605469 L 29.425781 -19.28125 L 26.535156 -20.835938 L 40.710938 -47.160156 L 32.496094 -18.414062 L 30.160156 -19.082031 L 38.375 -47.828125 L 35.667969 -18.054688 L 33.21875 -18.277344 L 35.925781 -48.050781 L 35.925781 -18.152344 L 34.703125 -18.152344 L 34.703125 -48.050781 L 39.621094 -18.558594 L 36.949219 -18.113281 L 32.035156 -47.605469 L 39.285156 -18.601562 L 37.949219 -18.265625 L 30.699219 -47.273438 L 40.15625 -18.910156 L 38.820312 -18.464844 L 29.363281 -46.828125 L 40.097656 -18.921875 L 38.652344 -18.367188 L 27.917969 -46.273438 L 43.449219 -20.722656 L 37.777344 -17.273438 L 22.246094 -42.824219 L 40.601562 -19.222656 L 37.597656 -16.886719 L 19.242188 -40.488281 L 39.773438 -18.75 L 37.769531 -16.859375 L 17.242188 -38.597656 L 41.023438 -20.476562 L 39.242188 -18.140625 L 15.460938 -36.261719 L 42.203125 -22.890625 L 41.757812 -22 L 15.015625 -35.371094 L 44.914062 -35.371094 L 44.914062 -28.089844 L 41.3125 -20.886719 L 14.570312 -34.257812 L 44.035156 -29.179688 L 43.09375 -23.722656 L 42.269531 -21.246094 L 13.902344 -30.699219 L 43.800781 -30.699219 L 43.800781 -28.921875 L 13.902344 -28.921875 L 40.644531 -42.292969 L 43.914062 -35.753906 L 43.914062 -27.808594 L 14.015625 -27.808594 L 40.757812 -41.179688 L 44.023438 -34.644531 L 44.023438 -26.917969 L 14.125 -26.917969 L 42.839844 -35.253906 L 45.027344 -27.722656 L 45.027344 -23.246094 L 15.128906 -23.246094 L 41.871094 -36.617188 L 42.433594 -35.488281 L 46.027344 -27.277344 L 46.027344 -20.800781 L 16.128906 -20.800781 L 41.550781 -36.539062 L 44.660156 -31.511719 L 44.992188 -30.953125 L 19.355469 -15.574219 L 41.1875 -35.996094 L 44.414062 -32.550781 L 22.578125 -12.125 L 43.722656 -33.265625 L 44.167969 -32.820312 L 23.023438 -11.679688 L 40.308594 -36.078125 L 45.644531 -32.296875 L 28.363281 -7.898438 L 39.46875 -35.65625 L 41.019531 -35.039062 L 47.707031 -31.789062 L 49.730469 -30.4375 L 33.148438 -5.5625 L 33.148438 -35.460938 L 38.4375 -35.460938 L 47.382812 -32.257812 L 49.386719 -31.589844 L 39.933594 -3.226562 L 46.746094 -32.335938 L 51.644531 -31.1875 L 52.023438 -31.097656 L 54.25 -30.652344 L 48.386719 -1.335938 L 51.6875 -31.050781 L 53.976562 -30.796875 L 56.363281 -30.320312 L 50.5 -1 L 53.472656 -30.75 L 56.359375 -30.464844 L 59.097656 -29.855469 L 52.613281 -0.667969 L 55.648438 -30.410156 L 61.097656 -29.855469 L 58.0625 -0.109375 L 58.0625 -30.011719 L 60.664062 -30.011719 L 63.261719 -29.75 L 60.285156 0 L 60.285156 -29.898438 L 71.964844 -29.898438 L 71.964844 0 L 64.714844 -29.007812 L 67.441406 -29.6875 L 74.875 -30.34375 L 76.636719 -30.34375 L 76.636719 -0.445312 L 71.484375 -29.894531 L 80.382812 -31.453125 L 85.535156 -2.003906 L 78.285156 -31.007812 L 78.234375 -30.992188 L 83.730469 -32.464844 L 85.234375 -32.765625 L 91.097656 -3.449219 L 77.726562 -30.191406 L 81.753906 -32.203125 L 86.234375 -33.101562 L 92.097656 -3.78125 L 81.699219 -31.8125 L 88.597656 -34.371094 L 98.996094 -6.339844 L 85.625 -33.082031 L 87.625 -34.082031 L 89.335938 -34.769531 L 100.441406 -7.007812 L 87.070312 -33.75 L 89.070312 -34.75 L 90.78125 -35.433594 L 101.886719 -7.675781 L 88.515625 -34.417969 L 90.964844 -35.640625 L 92.675781 -36.324219 L 103.777344 -8.566406 L 88.78125 -34.429688 L 96.070312 -38.652344 L 96.625 -38.984375 L 112.007812 -13.347656 L 90.867188 -34.488281 L 93.609375 -37.230469 L 97.386719 -39.589844 L 113.234375 -14.238281 L 95.292969 -38.15625 L 98.785156 -40.773438 L 101.640625 -42.203125 L 115.011719 -15.460938 L 93.871094 -36.601562 L 97.746094 -40.476562 L 102.53125 -42.871094 L 115.902344 -16.128906 L 97.964844 -40.046875 L 98.851562 -40.714844 L 116.792969 -16.796875 L 95.652344 -37.9375 L 97.488281 -39.773438 L 99.632812 -41.382812 L 117.570312 -17.464844 L 96.429688 -38.605469 L 97.511719 -39.6875 L 104.617188 -45.984375 L 106.660156 -47.347656 L 123.242188 -22.46875 L 101.203125 -42.671875 L 106.535156 -48.488281 L 107.328125 -49.28125 L 128.472656 -28.140625 L 103.59375 -44.726562 L 105.457031 -47.523438 L 108.109375 -50.171875 L 129.25 -29.03125 L 104.371094 -45.617188 L 106.683594 -49.082031 L 109.109375 -51.507812 L 130.25 -30.367188 L 105.375 -46.949219 L 107.460938 -50.082031 L 109.777344 -52.398438 L 130.917969 -31.253906 L 106.042969 -47.839844 L 108.128906 -50.972656 L 110.554688 -53.398438 L 131.695312 -32.257812 L 106.574219 -48.464844 L 108.796875 -51.914062 L 133.921875 -35.703125 L 105.558594 -45.160156 L 106.933594 -49.292969 L 110.046875 -53.957031 L 134.921875 -37.375 L 108.179688 -50.746094 L 110.183594 -54.75 L 136.925781 -41.378906 L 108.558594 -50.832031 L 108.792969 -51.53125 L 111.257812 -58.339844 L 139.371094 -48.164062 L 111.007812 -57.617188 L 111.117188 -57.953125 L 139.484375 -48.496094 L 110.476562 -55.746094 L 110.867188 -57.308594 L 111.339844 -58.730469 L 139.707031 -49.273438 L 109.808594 -49.273438 L 109.808594 -52.097656 L 111.277344 -61.28125 L 111.699219 -62.976562 L 140.707031 -55.726562 L 110.808594 -55.726562 L 110.808594 -61.410156 L 111.8125 -65.425781 L 140.816406 -58.171875 L 110.917969 -58.171875 L 110.917969 -58.617188 L 140.816406 -58.617188 L 112.453125 -49.164062 L 110.808594 -54.101562 L 110.808594 -61.066406 L 140.707031 -61.066406 L 111.699219 -53.8125 L 110.695312 -57.828125 L 110.695312 -62.289062 L 140.59375 -62.289062 L 111.589844 -55.039062 L 111.136719 -56.855469 L 110.367188 -61.925781 L 139.929688 -66.40625 L 118.785156 -45.261719 L 112.273438 -51.777344 L 110.164062 -62.320312 L 139.484375 -68.183594 L 111.722656 -57.082031 L 110.480469 -60.183594 L 109.832031 -63.433594 L 139.148438 -69.296875 L 111.390625 -58.191406 L 109.925781 -61.855469 L 109.273438 -65.101562 L 138.59375 -70.964844 L 110.832031 -59.859375 L 110.609375 -60.417969 L 138.371094 -71.519531 L 111.628906 -58.148438 L 110.96875 -59.464844 L 109.703125 -62.476562 L 137.257812 -74.078125 L 111.621094 -58.695312 L 110.054688 -61.308594 L 108.941406 -64.085938 L 136.703125 -75.191406 L 109.960938 -61.820312 L 109.738281 -62.265625 L 136.480469 -75.636719 L 110.84375 -60.253906 L 109.917969 -61.792969 L 109.179688 -63.265625 L 135.921875 -76.636719 L 110.285156 -61.253906 L 109.359375 -62.796875 L 108.625 -64.269531 L 135.367188 -77.640625 L 111.449219 -59.699219 L 110.1875 -61.378906 L 109.0625 -63.257812 L 134.699219 -78.640625 L 110.78125 -60.699219 L 108.855469 -63.269531 L 107.726562 -65.148438 L 133.367188 -80.53125 L 109.445312 -62.589844 L 107.777344 -64.816406 L 131.695312 -82.753906 L 110.554688 -61.613281 L 101.242188 -70.925781 L 101.242188 -83.421875 L 131.140625 -83.421875 L 108.441406 -63.964844 L 89.753906 -85.765625 L 118.3125 -114.324219 L 130.808594 -114.324219 L 130.808594 -84.425781 L 115.167969 -109.90625 L 120.0625 -112.910156 L 135.703125 -87.425781 L 114.558594 -108.570312 L 118.214844 -112.222656 L 122.773438 -114.503906 L 136.144531 -87.761719 L 115.003906 -108.902344 L 118.65625 -112.554688 L 123.664062 -115.058594 L 137.035156 -88.316406 L 115.894531 -109.457031 L 117.800781 -111.367188 L 124.960938 -116.546875 L 142.484375 -92.320312 L 121.34375 -113.464844 L 125.109375 -117.226562 L 129.671875 -119.507812 L 143.042969 -92.765625 L 121.902344 -113.90625 L 123.234375 -115.242188 L 124.347656 -116.355469 L 145.488281 -95.214844 L 118.746094 -108.585938 L 123.316406 -117.722656 L 132.453125 -122.289062 L 145.824219 -95.546875 L 121.492188 -112.925781 L 123.71875 -116.039062 L 148.046875 -98.660156 L 121.304688 -112.03125 L 122.417969 -114.257812 L 149.160156 -100.886719 L 119.261719 -100.886719 L 119.261719 -107.675781 L 122.679688 -115.082031 L 149.828125 -102.554688 L 119.929688 -102.554688 L 119.929688 -109.835938 L 123.308594 -116.59375 L 150.050781 -103.222656 L 120.152344 -103.222656 L 120.152344 -106.683594 L 122.371094 -117.1875 L 123.019531 -119.128906 L 151.382812 -109.671875 L 121.484375 -109.671875 L 121.484375 -114.859375 L 123.132812 -119.796875 L 151.496094 -110.339844 L 121.597656 -110.339844 L 121.597656 -115.972656 L 123.242188 -120.90625 L 151.605469 -111.453125 L 121.707031 -111.453125 L 121.707031 -117.75 L 123.355469 -122.6875 L 151.71875 -113.234375 L 122.046875 -109.554688 L 120.261719 -123.957031 L 120.261719 -126.136719 L 150.160156 -126.136719 L 122.015625 -116.046875 L 119.902344 -121.941406 L 148.046875 -132.03125 L 122.5 -116.5 L 115.601562 -127.847656 L 141.152344 -143.375 L 119.46875 -122.789062 L 111.125 -131.578125 L 132.808594 -152.164062 L 132.808594 -122.265625 L 123.089844 -122.265625 L 102.710938 -136.871094 L 120.128906 -161.171875 L 105.902344 -134.875 L 99.117188 -138.546875 L 113.34375 -164.84375 L 102.238281 -137.082031 L 90.003906 -141.976562 L 101.109375 -169.738281 L 92.894531 -140.988281 L 88.222656 -142.324219 L 96.4375 -171.074219 L 91.3125 -141.617188 L 78.523438 -143.839844 L 83.644531 -173.296875 L 81.351562 -143.488281 L 74.121094 -144.042969 L 76.414062 -173.851562 L 76.414062 -143.953125 L 70.742188 -143.953125 L 70.742188 -173.851562 L 72.785156 -144.023438 L 64.664062 -143.46875 L 62.621094 -173.296875 L 66.6875 -143.675781 L 61.015625 -142.898438 L 56.949219 -172.519531 L 63.8125 -143.417969 L 50.128906 -140.191406 L 43.269531 -169.292969 L 53.265625 -141.117188 L 42.921875 -137.445312 L 32.925781 -165.621094 L 45.113281 -138.320312 L 33.066406 -132.941406 L 26.472656 -132.941406 L 26.472656 -162.839844 L 40.617188 -136.5 L 34.613281 -133.273438 L 20.464844 -159.617188 L 35.984375 -134.058594 L 32.867188 -132.167969 L 17.351562 -157.726562 L 38.492188 -136.582031 L 36.84375 -134.933594 L 29.871094 -129.742188 L 12.011719 -153.71875 L 32.605469 -132.042969 L 30.382812 -129.929688 L 9.789062 -151.605469 L 30.929688 -130.464844 L 29.816406 -129.351562 L 8.675781 -150.496094 L 35.417969 -137.125 L 33.753906 -133.796875 L 28.441406 -127.421875 L 27.371094 -126.351562 L 6.230469 -147.492188 L 31.453125 -131.441406 L 29.894531 -128.992188 L 4.671875 -145.042969 L 30.808594 -130.523438 L 29.140625 -127.519531 Z M 28.582031 -126.519531 "/></g></g></g><g fill="#45377f" fill-opacity="1"><g transform="translate(188.129295, 233.334687)"><g><path d="M 5 -9.097656 C 0.214844 -14.945312 -4.210938 -21.097656 -8.277344 -27.550781 C -12.855469 -34.8125 -16.585938 -42.476562 -19.472656 -50.542969 L 8.675781 -60.621094 L -19.132812 -49.644531 C -20.621094 -53.40625 -21.832031 -56.960938 -22.777344 -60.3125 L 6.007812 -68.40625 L -22.585938 -59.667969 C -28.894531 -80.3125 -30.171875 -100.984375 -26.414062 -121.683594 C -22.664062 -141.378906 -14.566406 -158.085938 -2.125 -171.804688 C 4.660156 -179.304688 13.257812 -185.601562 23.675781 -190.699219 C 34.148438 -195.878906 44.71875 -198.769531 55.382812 -199.367188 C 62.554688 -199.621094 69.558594 -198.996094 76.398438 -197.488281 C 81.753906 -196.289062 86.914062 -194.863281 91.875 -193.207031 L 92.234375 -193.089844 L 92.585938 -192.960938 C 100.207031 -190.207031 107.664062 -186.824219 114.960938 -182.808594 C 123.023438 -178.375 130.355469 -173.113281 136.960938 -167.015625 C 144.222656 -160.257812 150.683594 -152.433594 156.355469 -143.539062 C 161.46875 -135.289062 165.71875 -127.285156 169.105469 -119.527344 C 174.386719 -106.824219 177.691406 -93.769531 179.023438 -80.371094 C 180.507812 -65.324219 178.660156 -50.667969 173.484375 -36.40625 C 168.390625 -22.296875 160.332031 -9.832031 149.296875 0.988281 C 141.566406 8.71875 132.808594 15.207031 123.019531 20.457031 C 111.5 26.75 99.007812 29.898438 85.535156 29.898438 C 73.332031 29.898438 61.082031 27.449219 48.777344 22.546875 C 30.878906 15.429688 16.246094 4.832031 4.878906 -9.246094 Z M 51.402344 -46.8125 C 56.203125 -40.871094 62.703125 -36.265625 70.90625 -33.003906 C 76.105469 -30.933594 80.980469 -29.898438 85.535156 -29.898438 C 88.824219 -29.898438 91.902344 -30.679688 94.769531 -32.246094 C 99.367188 -34.710938 103.585938 -37.863281 107.421875 -41.699219 C 111.960938 -46.152344 115.246094 -51.1875 117.273438 -56.804688 C 119.363281 -62.5625 120.113281 -68.449219 119.519531 -74.460938 C 118.773438 -81.972656 117.035156 -89.015625 114.308594 -95.59375 C 112.0625 -100.738281 109.269531 -106.007812 105.929688 -111.398438 C 102.996094 -116.003906 99.820312 -119.894531 96.402344 -123.074219 C 93.367188 -125.875 89.945312 -128.324219 86.144531 -130.414062 C 81.578125 -132.925781 76.949219 -135.03125 72.257812 -136.726562 L 82.421875 -164.84375 L 72.96875 -136.480469 C 69.921875 -137.496094 66.773438 -138.367188 63.53125 -139.09375 C 61.621094 -139.515625 60.023438 -139.703125 58.738281 -139.664062 C 56.207031 -139.519531 53.28125 -138.628906 49.960938 -136.988281 C 46.433594 -135.261719 43.835938 -133.476562 42.167969 -131.632812 C 37.257812 -126.21875 34.011719 -119.34375 32.421875 -111.011719 C 30.394531 -99.824219 31.117188 -88.535156 34.601562 -77.144531 L 34.699219 -76.824219 L 34.789062 -76.5 C 35.179688 -75.105469 35.746094 -73.472656 36.488281 -71.597656 L 36.664062 -71.152344 L 36.824219 -70.699219 C 38.238281 -66.75 40.066406 -62.996094 42.3125 -59.429688 C 45.066406 -55.058594 48.058594 -50.902344 51.28125 -46.964844 Z M 80.453125 -83.671875 C 79.644531 -84.042969 78.855469 -84.292969 78.089844 -84.417969 C 77.761719 -84.472656 77.542969 -84.5 77.4375 -84.492188 C 78.632812 -84.558594 80.417969 -85.042969 82.800781 -85.9375 C 83.199219 -86.085938 83.496094 -86.207031 83.695312 -86.308594 C 83.726562 -86.324219 83.75 -86.332031 83.757812 -86.339844 C 83.71875 -86.316406 83.671875 -86.285156 83.613281 -86.25 C 82.917969 -85.789062 82.222656 -85.125 81.53125 -84.253906 C 80.511719 -82.972656 79.746094 -81.535156 79.242188 -79.941406 C 78.832031 -78.660156 78.644531 -77.457031 78.671875 -76.335938 C 78.722656 -74.984375 79.078125 -73.585938 79.746094 -72.144531 C 80.8125 -69.832031 82.363281 -67.898438 84.390625 -66.347656 C 84.660156 -66.140625 84.921875 -65.988281 85.183594 -65.882812 C 85.210938 -65.871094 85.238281 -65.863281 85.257812 -65.855469 C 85.253906 -65.855469 85.246094 -65.859375 85.234375 -65.863281 C 85.128906 -65.890625 84.988281 -65.917969 84.816406 -65.941406 C 85.113281 -65.902344 85.25 -65.878906 85.226562 -65.878906 C 85.265625 -65.882812 85.3125 -65.886719 85.367188 -65.894531 C 85.417969 -65.90625 85.453125 -65.914062 85.480469 -65.921875 C 85.441406 -65.910156 85.375 -65.878906 85.289062 -65.835938 C 84.632812 -65.496094 84.15625 -65.203125 83.859375 -64.949219 C 83.933594 -65.011719 84.042969 -65.152344 84.183594 -65.367188 C 84.863281 -66.40625 85.355469 -67.660156 85.65625 -69.132812 C 86.007812 -70.855469 86.023438 -72.523438 85.695312 -74.136719 C 85.386719 -75.785156 84.761719 -77.46875 83.824219 -79.179688 C 83.070312 -80.546875 82.195312 -81.734375 81.195312 -82.746094 C 80.652344 -83.296875 80.148438 -83.722656 79.683594 -84.023438 C 79.648438 -84.042969 79.621094 -84.0625 79.601562 -84.074219 C 79.609375 -84.070312 79.625 -84.058594 79.648438 -84.046875 C 79.773438 -83.980469 79.9375 -83.902344 80.132812 -83.816406 Z M 55.792969 -29.195312 C 48.964844 -32.238281 43.269531 -36.0625 38.710938 -40.664062 C 35.78125 -43.621094 33.351562 -46.863281 31.414062 -50.390625 C 29.285156 -54.261719 27.84375 -58.210938 27.09375 -62.234375 C 25.800781 -68.589844 25.796875 -74.894531 27.074219 -81.136719 C 28.304688 -87.132812 30.667969 -92.800781 34.164062 -98.140625 C 39.867188 -106.84375 47.804688 -113.808594 57.972656 -119.03125 C 63.367188 -121.800781 68.980469 -123.707031 74.804688 -124.753906 C 80.652344 -125.800781 86.765625 -125.9375 93.15625 -125.152344 C 103.59375 -123.683594 112.78125 -119.914062 120.714844 -113.847656 C 126.527344 -109.402344 130.96875 -103.855469 134.039062 -97.203125 C 136.707031 -91.421875 138.179688 -84.964844 138.449219 -77.828125 C 138.589844 -72.257812 137.847656 -66.921875 136.226562 -61.820312 C 134.503906 -56.410156 131.863281 -51.46875 128.304688 -47 C 122.3125 -39.472656 114.15625 -33.796875 103.84375 -29.964844 C 95.769531 -26.929688 88.101562 -25.207031 80.84375 -24.792969 C 71.664062 -24.269531 63.207031 -25.785156 55.472656 -29.339844 Z M 55.792969 -29.195312 "/></g></g></g><g fill="#45377f" fill-opacity="1"><g transform="translate(343.904551, 233.334687)"><g/></g></g><g fill="#45377f" fill-opacity="1"><g transform="translate(397.903878, 233.334687)"><g><path d="M 139.597656 -195.878906 C 149.726562 -193.558594 158.195312 -190.390625 165.007812 -186.375 C 171.289062 -182.570312 176.246094 -178.050781 179.886719 -172.808594 C 182.195312 -169.492188 183.953125 -165.945312 185.171875 -162.167969 C 186.433594 -158.238281 187.066406 -154.199219 187.066406 -150.050781 C 187.066406 -143.605469 186.515625 -137.167969 185.410156 -130.746094 C 184 -122.539062 181.238281 -114.832031 177.121094 -107.632812 C 173.875 -101.914062 170.25 -97.234375 166.253906 -93.59375 C 163.164062 -90.785156 159.824219 -88.546875 156.234375 -86.886719 C 151.441406 -84.664062 146.449219 -83.554688 141.261719 -83.554688 C 134.972656 -83.554688 128.847656 -84.601562 122.898438 -86.691406 L 115.007812 -89.355469 C 114.386719 -89.5625 113.273438 -89.75 111.671875 -89.914062 C 109.21875 -90.167969 106.265625 -90.242188 102.8125 -90.132812 C 97.285156 -89.917969 92.105469 -88.71875 87.269531 -86.535156 C 85.859375 -85.90625 84.703125 -85.183594 83.800781 -84.367188 C 82.929688 -83.582031 82.15625 -82.59375 81.476562 -81.40625 C 81.679688 -81.75 81.832031 -82.136719 81.9375 -82.566406 C 81.957031 -82.648438 81.96875 -82.699219 81.972656 -82.726562 C 81.960938 -82.625 81.953125 -82.488281 81.953125 -82.3125 C 81.953125 -80.363281 82.554688 -77.65625 83.757812 -74.1875 C 83.980469 -73.535156 84.226562 -73.074219 84.492188 -72.800781 C 85.023438 -72.257812 85.964844 -71.707031 87.3125 -71.15625 C 93.113281 -68.734375 98.859375 -67.800781 104.554688 -68.355469 C 108.125 -68.710938 112.457031 -70.445312 117.542969 -73.558594 C 122.820312 -76.785156 128.324219 -78.96875 134.054688 -80.105469 C 140.335938 -81.351562 146.613281 -81.300781 152.882812 -79.953125 C 163.332031 -77.707031 172.914062 -72.046875 181.625 -62.976562 C 185.238281 -59.160156 188.046875 -55.109375 190.046875 -50.828125 C 192.625 -45.316406 193.875 -39.59375 193.792969 -33.65625 C 193.714844 -27.746094 192.320312 -22.078125 189.617188 -16.648438 C 187.523438 -12.445312 184.691406 -8.539062 181.125 -4.921875 C 174.484375 1.71875 168.515625 6.953125 163.21875 10.78125 C 159.109375 13.699219 155.042969 16.191406 151.027344 18.253906 C 140.117188 24.03125 128.832031 27.433594 117.171875 28.449219 C 107.789062 29.269531 98.445312 29.269531 89.136719 28.449219 C 76.058594 27.199219 63.554688 24.1875 51.628906 19.417969 C 42.054688 15.644531 32.910156 10.617188 24.207031 4.328125 C 14.992188 -2.152344 6.859375 -10.191406 -0.1875 -19.792969 C -12.253906 -36.007812 -20.328125 -54.113281 -24.402344 -74.117188 C -27.964844 -90.945312 -27.585938 -106.800781 -23.261719 -121.683594 C -18.84375 -136.890625 -10.503906 -150.382812 1.757812 -162.160156 C 13.105469 -173.109375 26.019531 -181.347656 40.496094 -186.878906 C 52.96875 -191.675781 65.179688 -195.054688 77.132812 -197.015625 C 87.074219 -198.613281 97.179688 -199.414062 107.449219 -199.414062 C 118.320312 -199.414062 128.984375 -198.246094 139.433594 -195.914062 Z M 126.40625 -137.554688 C 120.246094 -138.929688 113.925781 -139.617188 107.449219 -139.617188 C 100.363281 -139.617188 93.488281 -139.082031 86.820312 -138.007812 C 78.902344 -136.710938 70.574219 -134.378906 61.835938 -131.019531 C 54.957031 -128.390625 48.738281 -124.394531 43.179688 -119.03125 C 38.609375 -114.640625 35.605469 -109.96875 34.164062 -105.003906 C 32.628906 -99.71875 32.636719 -93.402344 34.191406 -86.054688 C 36.492188 -74.765625 41.101562 -64.472656 48.015625 -55.175781 C 51.203125 -50.835938 54.933594 -47.160156 59.21875 -44.148438 C 63.859375 -40.796875 68.730469 -38.113281 73.839844 -36.101562 C 80.449219 -33.457031 87.300781 -31.796875 94.394531 -31.117188 C 100.214844 -30.605469 106.070312 -30.605469 111.964844 -31.121094 C 115.582031 -31.4375 119.496094 -32.710938 123.710938 -34.9375 C 125.183594 -35.695312 126.679688 -36.613281 128.207031 -37.695312 C 130.917969 -39.652344 134.363281 -42.726562 138.550781 -46.910156 C 137.65625 -46.003906 136.835938 -44.804688 136.09375 -43.316406 C 134.742188 -40.605469 134.046875 -37.65625 134.003906 -34.472656 C 133.957031 -31.261719 134.585938 -28.265625 135.882812 -25.488281 C 136.609375 -23.941406 137.480469 -22.632812 138.496094 -21.558594 C 138.132812 -21.933594 137.816406 -22.238281 137.535156 -22.46875 C 137.464844 -22.527344 137.410156 -22.574219 137.363281 -22.609375 C 137.371094 -22.601562 137.394531 -22.589844 137.429688 -22.566406 C 138.164062 -22.105469 139.125 -21.746094 140.320312 -21.488281 C 142.105469 -21.105469 143.894531 -21.09375 145.6875 -21.449219 C 146.933594 -21.695312 147.953125 -22.0625 148.742188 -22.542969 C 135.882812 -14.679688 123.085938 -10.113281 110.34375 -8.839844 C 94.679688 -7.316406 79.441406 -9.644531 64.625 -15.828125 C 55.667969 -19.5 48.042969 -24.550781 41.753906 -30.976562 C 35.199219 -37.675781 30.363281 -45.554688 27.253906 -54.617188 C 23.855469 -64.421875 22.15625 -73.65625 22.15625 -82.3125 C 22.15625 -92.96875 24.613281 -102.539062 29.53125 -111.023438 C 33.375 -117.769531 38.109375 -123.679688 43.726562 -128.75 C 49.3125 -133.792969 55.625 -137.890625 62.667969 -141.039062 C 74.59375 -146.421875 87.355469 -149.375 100.960938 -149.902344 C 114.078125 -150.308594 125.140625 -149.011719 134.148438 -146.007812 L 142.71875 -143.109375 C 142.257812 -143.273438 141.769531 -143.355469 141.261719 -143.355469 C 137.671875 -143.355469 134.289062 -142.621094 131.117188 -141.152344 C 129.148438 -140.242188 127.445312 -139.128906 126.003906 -137.820312 C 125.410156 -137.277344 124.957031 -136.796875 124.648438 -136.382812 C 124.75 -136.519531 124.933594 -136.824219 125.203125 -137.296875 C 125.832031 -138.402344 126.257812 -139.59375 126.480469 -140.878906 C 127.007812 -143.945312 127.269531 -147.003906 127.269531 -150.050781 C 127.269531 -147.941406 127.597656 -145.871094 128.25 -143.839844 C 128.855469 -141.964844 129.695312 -140.25 130.777344 -138.691406 C 131.539062 -137.601562 132.355469 -136.664062 133.238281 -135.886719 C 133.660156 -135.511719 134.132812 -135.167969 134.648438 -134.859375 C 134.167969 -135.140625 133.390625 -135.476562 132.3125 -135.867188 C 130.640625 -136.472656 128.617188 -137.046875 126.242188 -137.589844 Z M 126.40625 -137.554688 "/></g></g></g><g fill="#45377f" fill-opacity="1"><g transform="translate(567.249242, 233.334687)"><g><path d="M 108.457031 -13.691406 C 100.988281 -11.003906 91.355469 -8.808594 79.5625 -7.113281 C 67.726562 -5.421875 57.484375 -4.816406 48.839844 -5.296875 L 50.5 -35.148438 L 79.753906 -28.976562 C 78.195312 -21.601562 77.023438 -15.007812 76.230469 -9.195312 C 75.132812 -2 73.101562 4.15625 70.132812 9.273438 C 67.957031 13.019531 65.304688 16.273438 62.164062 19.027344 C 58.453125 22.292969 54.265625 24.699219 49.609375 26.25 C 41.3125 28.957031 32.214844 29.421875 22.3125 27.652344 C 17.105469 26.746094 11.5625 25.171875 5.6875 22.925781 C -1.265625 20.449219 -7.4375 17.027344 -12.824219 12.65625 C -16.886719 9.253906 -20.183594 5.382812 -22.710938 1.050781 C -24.972656 -2.828125 -26.652344 -7.050781 -27.746094 -11.621094 C -28.894531 -16.082031 -29.535156 -20.886719 -29.667969 -26.039062 L 0.222656 -26.804688 L -29.636719 -25.234375 C -29.839844 -29.128906 -29.839844 -32.949219 -29.628906 -36.695312 C -29.175781 -45.675781 -27.457031 -56.691406 -24.472656 -69.734375 C -21.683594 -81.929688 -18.226562 -94.414062 -14.101562 -107.183594 C -10.085938 -119.871094 -5.601562 -132.113281 -0.660156 -143.917969 C 4.511719 -156.460938 9.738281 -166.835938 15.023438 -175.035156 C 17.953125 -179.6875 21.53125 -184.375 25.757812 -189.105469 C 29.496094 -193.199219 33.585938 -196.546875 38.027344 -199.148438 C 42.660156 -201.863281 47.617188 -203.777344 52.902344 -204.890625 C 60.738281 -206.539062 69.960938 -206.519531 80.570312 -204.824219 C 92.929688 -202.851562 102.949219 -198.679688 110.636719 -192.300781 L 91.542969 -169.292969 L 105.679688 -195.636719 C 111.96875 -192.261719 117.90625 -187.34375 123.488281 -180.882812 C 127.886719 -175.785156 132.207031 -169.570312 136.449219 -162.230469 C 143.6875 -149.566406 150.339844 -135.753906 156.402344 -120.796875 C 162.300781 -106.160156 167.382812 -91.867188 171.640625 -77.910156 C 176.046875 -63.199219 178.796875 -51.8125 179.898438 -43.75 C 181.148438 -34.558594 181.300781 -26.410156 180.355469 -19.296875 L 180.265625 -18.621094 L 180.144531 -17.949219 C 179.3125 -13.332031 177.929688 -9.0625 176 -5.152344 C 173.601562 -0.289062 170.441406 3.894531 166.515625 7.398438 L 146.601562 -14.90625 L 167.433594 6.539062 C 162.457031 11.375 156.503906 15.429688 149.570312 18.699219 C 144.011719 21.320312 138.691406 23.308594 133.617188 24.664062 C 123.753906 27.351562 114.53125 27.601562 105.949219 25.410156 C 101.527344 24.378906 97.3125 22.402344 93.308594 19.480469 C 89.847656 16.957031 86.851562 13.867188 84.332031 10.21875 C 80.878906 5.226562 78.398438 -0.738281 76.894531 -7.679688 L 106.113281 -14.015625 L 77.0625 -6.949219 C 75.203125 -14.585938 72.773438 -23.265625 69.765625 -32.988281 L 98.328125 -41.824219 Z M 88.199219 -69.953125 L 117.644531 -80.554688 L 126.890625 -50.660156 C 130.261719 -39.765625 133.019531 -29.90625 135.164062 -21.082031 L 135.253906 -20.71875 L 135.332031 -20.351562 C 135.347656 -20.296875 135.355469 -20.246094 135.367188 -20.207031 L 135.363281 -20.21875 C 135.324219 -20.359375 135.261719 -20.527344 135.1875 -20.726562 C 134.804688 -21.710938 134.246094 -22.730469 133.515625 -23.789062 C 132.195312 -25.695312 130.542969 -27.375 128.554688 -28.824219 C 126.023438 -30.671875 123.417969 -31.90625 120.742188 -32.527344 C 119.535156 -32.835938 118.460938 -32.964844 117.515625 -32.914062 C 117.429688 -32.910156 117.359375 -32.90625 117.296875 -32.898438 L 117.324219 -32.902344 C 117.507812 -32.933594 117.804688 -33.007812 118.210938 -33.117188 C 119.804688 -33.542969 121.757812 -34.296875 124.058594 -35.382812 C 124.667969 -35.671875 125.167969 -35.945312 125.558594 -36.207031 C 125.65625 -36.273438 125.738281 -36.332031 125.796875 -36.378906 C 125.808594 -36.386719 125.8125 -36.390625 125.8125 -36.390625 C 125.800781 -36.382812 125.785156 -36.367188 125.769531 -36.351562 L 126.21875 -36.789062 L 126.6875 -37.207031 C 124.839844 -35.554688 123.402344 -33.691406 122.375 -31.609375 C 121.816406 -30.476562 121.457031 -29.457031 121.292969 -28.542969 L 150.71875 -23.246094 L 121.082031 -27.199219 C 121.320312 -28.984375 121.175781 -31.808594 120.648438 -35.667969 C 119.96875 -40.65625 117.898438 -48.921875 114.445312 -60.460938 C 110.695312 -72.753906 106.207031 -85.378906 100.984375 -98.328125 C 95.925781 -110.808594 90.488281 -122.132812 84.675781 -132.308594 C 82.320312 -136.390625 80.167969 -139.550781 78.230469 -141.796875 C 77.636719 -142.484375 77.136719 -143 76.738281 -143.34375 L 76.742188 -143.347656 C 76.921875 -143.21875 77.144531 -143.085938 77.40625 -142.945312 L 74.761719 -144.367188 L 72.449219 -146.285156 C 72.96875 -145.851562 73.472656 -145.5 73.960938 -145.226562 C 74.140625 -145.125 74.261719 -145.0625 74.316406 -145.042969 C 73.640625 -145.300781 72.582031 -145.546875 71.148438 -145.773438 C 69.027344 -146.113281 67.257812 -146.296875 65.839844 -146.324219 C 65.425781 -146.332031 65.097656 -146.328125 64.851562 -146.308594 L 64.855469 -146.308594 C 64.960938 -146.324219 65.082031 -146.347656 65.222656 -146.375 C 66.28125 -146.597656 67.292969 -146.992188 68.253906 -147.554688 C 69.027344 -148.007812 69.722656 -148.574219 70.347656 -149.257812 C 68.339844 -147.015625 66.65625 -144.808594 65.285156 -142.640625 C 61.96875 -137.492188 58.371094 -130.214844 54.496094 -120.8125 C 50.242188 -110.664062 46.34375 -99.996094 42.800781 -88.804688 C 39.210938 -77.695312 36.21875 -66.894531 33.816406 -56.398438 C 31.609375 -46.753906 30.363281 -39.078125 30.074219 -33.378906 C 29.988281 -31.785156 29.988281 -30.117188 30.078125 -28.378906 L 30.101562 -27.976562 L 30.113281 -27.574219 C 30.128906 -26.941406 30.226562 -26.261719 30.414062 -25.527344 C 30.136719 -26.6875 29.644531 -27.871094 28.941406 -29.082031 C 27.96875 -30.742188 26.601562 -32.3125 24.835938 -33.789062 C 24.757812 -33.855469 24.691406 -33.90625 24.644531 -33.9375 C 24.675781 -33.917969 24.730469 -33.882812 24.808594 -33.84375 C 25.210938 -33.625 25.945312 -33.324219 27.015625 -32.9375 C 29.296875 -32.066406 31.242188 -31.492188 32.855469 -31.210938 C 33.191406 -31.148438 33.472656 -31.109375 33.699219 -31.089844 C 33.742188 -31.085938 33.773438 -31.085938 33.792969 -31.085938 C 33.761719 -31.085938 33.71875 -31.085938 33.660156 -31.082031 C 32.859375 -31.0625 31.871094 -30.859375 30.699219 -30.476562 C 27.710938 -29.480469 25.046875 -27.953125 22.703125 -25.898438 C 20.9375 -24.347656 19.503906 -22.625 18.40625 -20.730469 C 17.820312 -19.71875 17.386719 -18.765625 17.109375 -17.878906 C 17.0625 -17.71875 17.027344 -17.59375 17.007812 -17.5 C 17.015625 -17.550781 17.007812 -17.476562 16.980469 -17.277344 C 17.96875 -24.515625 19.390625 -32.53125 21.242188 -41.320312 L 26.542969 -66.425781 L 52.15625 -65 C 56.859375 -64.742188 63.15625 -65.171875 71.042969 -66.300781 C 78.828125 -67.421875 84.546875 -68.636719 88.199219 -69.953125 Z M 56.230469 -86.734375 C 65.089844 -86.621094 74.5 -87.753906 84.46875 -90.140625 L 91.429688 -61.066406 L 63.492188 -50.414062 C 58.222656 -64.246094 52.277344 -77.402344 45.660156 -89.886719 L 72.078125 -103.890625 L 99.585938 -92.179688 C 93.953125 -78.941406 88.976562 -64.503906 84.65625 -48.875 L 55.835938 -56.839844 Z M 55.445312 -26.941406 L 16.699219 -27.449219 L 27.019531 -64.800781 C 32.042969 -82.988281 37.894531 -99.917969 44.566406 -115.597656 L 69.125 -173.296875 L 98.496094 -117.890625 C 106.261719 -103.234375 113.222656 -87.84375 119.371094 -71.714844 L 131.492188 -39.917969 L 98.394531 -31.988281 C 83.59375 -28.445312 69.277344 -26.761719 55.445312 -26.941406 Z M 55.445312 -26.941406 "/></g></g></g><g fill="#45377f" fill-opacity="1"><g transform="translate(723.914328, 233.334687)"><g><path d="M -27.808594 -132.097656 C -27.5 -136.117188 -27.054688 -139.644531 -26.46875 -142.683594 C -25.523438 -147.609375 -24.066406 -151.898438 -22.097656 -155.550781 L 4.226562 -141.375 L -22.515625 -154.746094 C -20.015625 -159.746094 -16.105469 -164.320312 -10.78125 -168.464844 C -7.980469 -170.648438 -4.488281 -172.960938 -0.3125 -175.40625 C 20.15625 -187.183594 43.949219 -193.835938 71.0625 -195.363281 C 85.988281 -196.15625 99.914062 -194.449219 112.835938 -190.242188 C 126.140625 -185.914062 138.152344 -179.039062 148.875 -169.617188 C 159.347656 -160.355469 167.542969 -148.753906 173.457031 -134.808594 C 177.160156 -125.863281 178.921875 -116.953125 178.746094 -108.082031 C 178.566406 -98.910156 176.371094 -90.082031 172.164062 -81.597656 C 168.226562 -73.5625 162.726562 -66.917969 155.664062 -61.660156 C 154.792969 -60.988281 153.929688 -60.097656 153.082031 -58.992188 C 154.144531 -60.382812 154.957031 -61.976562 155.527344 -63.761719 C 156.1875 -65.851562 156.445312 -67.964844 156.296875 -70.105469 L 156.335938 -69.558594 L 156.351562 -69.007812 C 156.320312 -70.085938 156.078125 -71.195312 155.632812 -72.332031 L 155.917969 -71.601562 L 156.167969 -70.855469 C 156.085938 -71.101562 155.972656 -71.339844 155.828125 -71.574219 L 156.105469 -71.125 L 156.371094 -70.667969 C 156.171875 -71.015625 155.882812 -71.375 155.507812 -71.75 L 155.742188 -71.515625 L 155.972656 -71.277344 C 156.570312 -70.652344 157.09375 -70.164062 157.542969 -69.820312 L 157.976562 -69.480469 L 158.402344 -69.128906 C 158.863281 -68.746094 159.804688 -68.085938 161.226562 -67.152344 C 162.164062 -66.546875 163.859375 -65.496094 166.308594 -63.996094 L 167.035156 -63.554688 L 167.734375 -63.066406 C 167.535156 -63.207031 167.320312 -63.332031 167.089844 -63.449219 L 168.269531 -62.859375 L 169.390625 -62.167969 C 170.078125 -61.746094 170.800781 -61.316406 171.558594 -60.886719 C 174.234375 -59.402344 176.304688 -58.226562 177.777344 -57.359375 C 181.882812 -54.839844 185.265625 -51.972656 187.925781 -48.761719 C 191.652344 -44.269531 194.097656 -39.214844 195.261719 -33.597656 C 196.425781 -27.980469 196.191406 -22.371094 194.558594 -16.765625 C 193.390625 -12.761719 191.539062 -8.945312 189.003906 -5.324219 C 185.601562 -0.398438 181.148438 4.550781 175.636719 9.523438 C 170.585938 14.179688 165.601562 18.015625 160.683594 21.035156 C 154.40625 25 147.496094 27.1875 139.949219 27.601562 C 133.097656 27.976562 126.285156 26.777344 119.5 24.007812 C 106.964844 19.039062 94.808594 9.800781 83.023438 -3.707031 C 74.621094 -13.1875 67.945312 -20.578125 63 -25.882812 L 84.867188 -46.273438 L 63.996094 -24.863281 C 63.867188 -24.988281 63.765625 -25.085938 63.679688 -25.152344 C 63.695312 -25.140625 63.738281 -25.109375 63.808594 -25.066406 C 64.28125 -24.75 64.875 -24.460938 65.585938 -24.199219 C 68.203125 -23.265625 70.832031 -22.796875 73.476562 -22.796875 C 75.863281 -22.796875 78.15625 -23.160156 80.355469 -23.882812 C 81.863281 -24.378906 83.226562 -25.015625 84.441406 -25.785156 C 85.058594 -26.179688 85.566406 -26.558594 85.960938 -26.921875 C 87.597656 -28.460938 88.855469 -30.0625 89.730469 -31.722656 C 90.261719 -32.730469 90.628906 -33.671875 90.832031 -34.546875 C 90.867188 -34.699219 90.890625 -34.8125 90.898438 -34.890625 C 90.890625 -34.808594 90.878906 -34.679688 90.871094 -34.511719 C 90.839844 -33.796875 90.871094 -32.898438 90.964844 -31.8125 C 91.632812 -23.265625 92.308594 -17.195312 92.996094 -13.601562 L 93.09375 -13.082031 L 93.175781 -12.554688 C 93.902344 -7.820312 93.890625 -3.355469 93.132812 0.847656 C 92.484375 4.460938 91.304688 7.839844 89.601562 10.988281 C 87.289062 15.253906 84.191406 18.8125 80.304688 21.664062 C 75.023438 25.625 68.511719 28.074219 60.769531 29.015625 C 56.859375 29.53125 52.507812 29.789062 47.71875 29.789062 C 43.582031 29.878906 39.605469 29.773438 35.800781 29.472656 C 32.453125 29.226562 29.074219 28.722656 25.660156 27.964844 L 32.144531 -1.222656 L 26.890625 28.210938 C 22.433594 27.414062 18.269531 25.902344 14.386719 23.671875 C 10.578125 21.484375 7.210938 18.699219 4.289062 15.316406 L 26.917969 -4.226562 L 5.265625 16.394531 C 1.289062 12.214844 -2.222656 6.546875 -5.269531 -0.621094 C -7.363281 -5.550781 -9.46875 -11.644531 -11.578125 -18.898438 C -15.410156 -31.722656 -17.894531 -40.839844 -19.027344 -46.253906 L 10.234375 -52.390625 L -18.613281 -44.523438 C -19.101562 -46.3125 -19.5 -48.148438 -19.816406 -50.03125 L 9.675781 -54.949219 L -19.167969 -47.082031 C -19.65625 -48.871094 -20.058594 -50.707031 -20.371094 -52.589844 L 9.121094 -57.507812 L -20.101562 -51.1875 C -22.644531 -62.941406 -24.820312 -75.59375 -26.632812 -89.136719 C -28.628906 -104 -29.015625 -118.429688 -27.78125 -132.429688 Z M 31.785156 -127.183594 C 30.941406 -117.601562 31.226562 -107.5625 32.636719 -97.0625 C 34.238281 -85.097656 36.140625 -74.019531 38.34375 -63.824219 L 38.496094 -63.125 L 38.613281 -62.421875 C 38.59375 -62.527344 38.566406 -62.65625 38.523438 -62.816406 L 38.921875 -61.355469 L 39.167969 -59.863281 C 39.152344 -59.96875 39.121094 -60.097656 39.078125 -60.257812 L 39.3125 -59.398438 L 39.496094 -58.523438 C 40.289062 -54.746094 42.402344 -47.101562 45.839844 -35.601562 C 47.285156 -30.625 48.59375 -26.761719 49.761719 -24.015625 C 50.101562 -23.214844 50.359375 -22.664062 50.53125 -22.367188 C 50.121094 -23.078125 49.464844 -23.902344 48.570312 -24.847656 L 49.070312 -24.320312 L 49.546875 -23.769531 C 48.035156 -25.519531 46.242188 -26.988281 44.175781 -28.179688 C 42.039062 -29.40625 39.78125 -30.230469 37.402344 -30.65625 L 38.019531 -30.546875 L 38.632812 -30.410156 C 39.222656 -30.277344 39.847656 -30.1875 40.503906 -30.140625 C 42.332031 -29.996094 44.738281 -29.953125 47.71875 -30.011719 C 49.898438 -30.011719 51.851562 -30.121094 53.574219 -30.347656 C 52.863281 -30.261719 52.035156 -30.066406 51.089844 -29.757812 C 48.863281 -29.03125 46.8125 -27.964844 44.941406 -26.558594 C 41.613281 -24.117188 38.972656 -21.09375 37.019531 -17.492188 C 35.679688 -15.015625 34.765625 -12.429688 34.28125 -9.746094 C 33.859375 -7.398438 33.789062 -5.304688 34.074219 -3.460938 L 63.625 -8.007812 L 34.253906 -2.414062 C 33.15625 -8.167969 32.203125 -16.257812 31.386719 -26.695312 C 30.710938 -34.578125 31.105469 -41.691406 32.578125 -48.042969 C 34.699219 -57.195312 39.011719 -64.835938 45.511719 -70.960938 C 50.492188 -75.535156 55.867188 -78.773438 61.632812 -80.675781 C 65.515625 -81.953125 69.460938 -82.59375 73.476562 -82.59375 C 77.738281 -82.59375 81.957031 -81.847656 86.132812 -80.355469 C 93.183594 -77.777344 99.71875 -73.550781 105.742188 -67.679688 L 106.25 -67.183594 L 106.738281 -66.660156 C 112.023438 -60.992188 119.140625 -53.105469 128.089844 -43.011719 C 131.132812 -39.519531 134.007812 -36.722656 136.707031 -34.617188 C 138.660156 -33.09375 140.460938 -32.003906 142.113281 -31.347656 C 140.59375 -31.96875 138.785156 -32.222656 136.683594 -32.105469 C 133.882812 -31.953125 131.457031 -31.230469 129.40625 -29.933594 C 131.015625 -30.917969 133.074219 -32.570312 135.585938 -34.882812 C 137.640625 -36.734375 139.117188 -38.3125 140.015625 -39.613281 C 138.777344 -37.84375 137.820312 -35.800781 137.144531 -33.484375 C 136.003906 -29.566406 135.859375 -25.558594 136.707031 -21.460938 C 137.554688 -17.363281 139.28125 -13.746094 141.886719 -10.605469 C 143.425781 -8.75 145.28125 -7.152344 147.460938 -5.820312 C 146.410156 -6.4375 144.554688 -7.484375 141.890625 -8.96875 C 140.570312 -9.722656 139.289062 -10.480469 138.050781 -11.242188 L 153.71875 -36.707031 L 140.347656 -9.964844 C 138.042969 -11.117188 135.828125 -12.429688 133.699219 -13.902344 L 150.71875 -38.484375 L 135.125 -12.972656 C 132.238281 -14.738281 130 -16.132812 128.417969 -17.160156 C 125.09375 -19.339844 122.328125 -21.351562 120.121094 -23.191406 L 139.261719 -46.160156 L 120.980469 -22.503906 C 118.164062 -24.675781 115.425781 -27.15625 112.761719 -29.941406 L 134.367188 -50.609375 L 113.226562 -29.46875 C 109.882812 -32.808594 107 -36.582031 104.574219 -40.785156 L 130.472656 -55.726562 L 105.121094 -39.878906 C 102.75 -43.671875 100.855469 -47.691406 99.4375 -51.945312 L 127.804688 -61.398438 L 99.976562 -50.464844 C 97.898438 -55.757812 96.765625 -61.316406 96.585938 -67.140625 L 126.46875 -68.074219 L 96.640625 -66.039062 C 96.269531 -71.445312 96.898438 -76.710938 98.523438 -81.835938 C 100.054688 -86.664062 102.429688 -91.1875 105.640625 -95.398438 C 109.6875 -100.667969 114.460938 -105.410156 119.964844 -109.632812 C 119.28125 -109.125 118.824219 -108.632812 118.59375 -108.164062 C 118.832031 -108.648438 118.957031 -109.015625 118.960938 -109.261719 C 118.972656 -109.808594 118.789062 -110.539062 118.410156 -111.457031 C 116.019531 -117.085938 113.019531 -121.5 109.402344 -124.699219 C 104.851562 -128.699219 99.824219 -131.59375 94.332031 -133.382812 C 88.457031 -135.292969 81.820312 -136.050781 74.425781 -135.660156 C 56.753906 -134.664062 41.910156 -130.710938 29.898438 -123.800781 C 27.996094 -122.6875 26.683594 -121.851562 25.964844 -121.289062 C 26.21875 -121.488281 26.5625 -121.8125 26.996094 -122.261719 C 28.53125 -123.863281 29.855469 -125.777344 30.96875 -128.003906 L 30.765625 -127.597656 L 30.550781 -127.199219 C 31.21875 -128.4375 31.726562 -129.628906 32.082031 -130.773438 C 32.175781 -131.085938 32.234375 -131.289062 32.253906 -131.390625 C 32.09375 -130.570312 31.949219 -129.277344 31.8125 -127.511719 Z M 80.882812 -98.832031 C 78.714844 -99.453125 76.148438 -99.238281 73.191406 -98.183594 C 75.3125 -98.984375 77.113281 -100.109375 78.601562 -101.558594 C 80.1875 -103.105469 81.355469 -104.835938 82.109375 -106.75 L 54.28125 -117.683594 L 82.378906 -107.464844 C 83.03125 -109.261719 83.378906 -110.808594 83.414062 -112.113281 C 83.40625 -111.769531 83.46875 -111.078125 83.601562 -110.039062 C 83.667969 -109.507812 83.738281 -109.078125 83.808594 -108.746094 C 83.820312 -108.691406 83.828125 -108.65625 83.828125 -108.644531 C 83.808594 -108.730469 83.773438 -108.835938 83.734375 -108.964844 C 83.519531 -109.621094 83.214844 -110.332031 82.820312 -111.097656 C 82.042969 -112.597656 81.050781 -114.035156 79.839844 -115.410156 C 78.171875 -117.332031 76.058594 -118.742188 73.5 -119.640625 C 72.527344 -119.984375 71.582031 -120.203125 70.671875 -120.300781 C 70.195312 -120.351562 69.808594 -120.363281 69.511719 -120.339844 C 71.214844 -120.507812 73.1875 -120.820312 75.429688 -121.28125 C 76.214844 -121.445312 76.949219 -121.6875 77.632812 -122.011719 C 76.476562 -121.472656 75.414062 -120.667969 74.445312 -119.601562 C 73.6875 -118.769531 73.152344 -117.964844 72.851562 -117.195312 C 71.945312 -114.933594 71.691406 -112.398438 72.09375 -109.589844 C 72.460938 -107.023438 73.289062 -104.875 74.585938 -103.140625 L 98.550781 -121.019531 L 75.152344 -102.40625 C 75.679688 -101.742188 76.359375 -101.121094 77.191406 -100.542969 C 78.21875 -99.832031 79.324219 -99.296875 80.503906 -98.945312 Z M 97.6875 -156.21875 C 102.574219 -154.753906 107.109375 -152.570312 111.289062 -149.667969 C 115.273438 -146.902344 118.828125 -143.558594 121.949219 -139.632812 L 122.238281 -139.269531 L 122.515625 -138.898438 C 127.292969 -132.488281 130.21875 -125.539062 131.289062 -118.046875 C 132.398438 -110.304688 131.457031 -102.707031 128.476562 -95.257812 C 126.097656 -89.21875 122.820312 -83.910156 118.652344 -79.335938 C 114.269531 -74.523438 109.128906 -70.734375 103.230469 -67.96875 C 98.277344 -65.625 93.003906 -63.867188 87.414062 -62.695312 C 83.128906 -61.820312 78.796875 -61.167969 74.421875 -60.742188 C 67.035156 -60.136719 60.125 -60.960938 53.691406 -63.222656 C 46.277344 -65.824219 40.027344 -70.054688 34.949219 -75.90625 C 31.421875 -79.914062 28.734375 -84.75 26.886719 -90.414062 C 25.730469 -93.957031 24.863281 -97.957031 24.292969 -102.414062 C 23.757812 -106.5625 23.542969 -110.375 23.644531 -113.851562 C 23.792969 -118.972656 24.640625 -123.65625 26.183594 -127.898438 L 26.3125 -128.257812 L 26.453125 -128.613281 C 28.835938 -134.679688 32.304688 -139.933594 36.855469 -144.371094 C 41.308594 -148.714844 46.746094 -152.097656 53.167969 -154.53125 C 60.4375 -157.113281 67.707031 -158.578125 74.976562 -158.921875 C 82.566406 -159.277344 90.011719 -158.414062 97.308594 -156.328125 Z M 97.6875 -156.21875 "/></g></g></g><g clip-path="url(#5f67fc6227)"><g fill="#45377f" fill-opacity="1"><g transform="translate(898.153892, 233.334687)"><g><path d="M -15.863281 -169.402344 C -13.367188 -177.417969 -9.285156 -184.007812 -3.617188 -189.167969 C -0.210938 -192.277344 3.617188 -194.707031 7.867188 -196.46875 C 11.839844 -198.117188 16.03125 -199.105469 20.433594 -199.441406 L 20.800781 -199.46875 L 21.167969 -199.488281 C 37.179688 -200.304688 53.148438 -199.9375 69.082031 -198.382812 C 87.359375 -196.59375 105.414062 -191.007812 123.253906 -181.628906 C 143.679688 -170.8125 160.074219 -156.792969 172.441406 -139.574219 C 183.5 -124.074219 190.511719 -107.085938 193.476562 -88.605469 C 194.730469 -80.265625 194.648438 -72.070312 193.234375 -64.015625 C 191.863281 -56.199219 189.269531 -48.5625 185.453125 -41.105469 C 179.230469 -29.035156 172.285156 -18.824219 164.617188 -10.472656 C 155.429688 -0.480469 145.011719 7.480469 133.351562 13.410156 C 122.128906 19.269531 109.800781 23.269531 96.359375 25.410156 C 81.015625 27.894531 65.304688 28.339844 49.222656 26.75 C 35.445312 25.464844 21.6875 23.90625 7.949219 22.074219 L 11.902344 -7.5625 L 8.773438 22.171875 C 3.566406 21.621094 -1.15625 20.417969 -5.394531 18.550781 C -12.113281 15.59375 -17.421875 11.195312 -21.316406 5.351562 C -25.847656 -1.441406 -28.222656 -9.160156 -28.441406 -17.808594 C -29.207031 -38.59375 -28.902344 -63.53125 -27.53125 -92.621094 C -26.074219 -123.324219 -22.195312 -148.890625 -15.890625 -169.324219 Z M 41.25 -151.6875 C 36.433594 -136.082031 33.417969 -115.453125 32.203125 -89.796875 C 30.90625 -62.382812 30.617188 -38.894531 31.335938 -19.34375 C 31.304688 -20.445312 31.117188 -21.613281 30.761719 -22.84375 C 30.257812 -24.589844 29.484375 -26.25 28.4375 -27.820312 C 26.996094 -29.976562 25.277344 -31.84375 23.277344 -33.410156 C 21.816406 -34.554688 20.289062 -35.476562 18.6875 -36.183594 C 17.230469 -36.824219 16.011719 -37.195312 15.03125 -37.296875 L 15.441406 -37.253906 L 15.851562 -37.199219 C 28.8125 -35.472656 41.898438 -33.992188 55.109375 -32.757812 C 66.023438 -31.675781 76.632812 -31.972656 86.945312 -33.640625 C 93.976562 -34.761719 100.40625 -36.84375 106.238281 -39.882812 C 111.488281 -42.554688 116.269531 -46.234375 120.578125 -50.925781 C 124.625 -55.332031 128.503906 -61.136719 132.21875 -68.34375 C 133.300781 -70.453125 134.003906 -72.457031 134.339844 -74.355469 C 134.628906 -76.015625 134.660156 -77.605469 134.433594 -79.132812 C 132.949219 -88.382812 129.429688 -96.902344 123.875 -104.6875 C 116.960938 -114.3125 107.480469 -122.316406 95.425781 -128.703125 C 84.492188 -134.453125 73.777344 -137.839844 63.28125 -138.867188 C 50.292969 -140.132812 37.273438 -140.433594 24.214844 -139.765625 L 22.691406 -169.625 L 24.949219 -139.8125 C 26.90625 -139.960938 28.84375 -140.433594 30.757812 -141.226562 C 32.949219 -142.132812 34.914062 -143.382812 36.652344 -144.96875 C 38.066406 -146.253906 39.222656 -147.664062 40.117188 -149.195312 C 40.625 -150.0625 40.992188 -150.867188 41.226562 -151.609375 Z M 84.757812 -82.210938 C 84.929688 -80.039062 85.519531 -78.167969 86.53125 -76.601562 C 86.710938 -76.324219 86.84375 -76.140625 86.933594 -76.046875 C 86.730469 -76.257812 86.410156 -76.53125 85.980469 -76.863281 L 104.222656 -100.550781 L 87.128906 -76.023438 C 85.5625 -77.113281 83.691406 -78.253906 81.519531 -79.445312 L 95.878906 -105.667969 L 82.597656 -78.882812 C 76.652344 -81.832031 70.613281 -83.6875 64.476562 -84.453125 C 63.300781 -84.621094 62.496094 -84.699219 62.0625 -84.683594 L 61.066406 -114.566406 L 63.617188 -84.777344 C 65.332031 -84.925781 67.039062 -85.34375 68.746094 -86.039062 C 70.75 -86.851562 72.5625 -87.972656 74.191406 -89.398438 C 77.351562 -92.265625 79.683594 -95.375 81.183594 -98.730469 C 81.605469 -99.667969 81.917969 -100.511719 82.125 -101.265625 C 82.054688 -101.003906 81.921875 -100.238281 81.726562 -98.964844 C 80.992188 -94.523438 80.394531 -89.789062 79.945312 -84.753906 C 79.402344 -79.378906 79.066406 -74.527344 78.9375 -70.199219 C 78.886719 -68.46875 78.878906 -67.253906 78.914062 -66.5625 C 78.898438 -66.84375 78.851562 -67.25 78.769531 -67.78125 C 78.371094 -70.386719 77.527344 -72.976562 76.238281 -75.550781 L 77.191406 -73.648438 L 77.863281 -71.632812 C 77.074219 -74 75.953125 -76.234375 74.496094 -78.335938 C 72.5 -81.222656 70.027344 -83.648438 67.082031 -85.609375 L 50.5 -60.730469 L 64.070312 -87.371094 C 65.660156 -86.5625 67.617188 -85.914062 69.9375 -85.417969 C 72.117188 -84.984375 74.277344 -84.820312 76.417969 -84.921875 C 80.257812 -85.066406 84.546875 -85.828125 89.289062 -87.210938 C 89.457031 -87.257812 89.554688 -87.289062 89.582031 -87.296875 L 89.566406 -87.289062 C 89.476562 -87.253906 89.363281 -87.207031 89.234375 -87.140625 C 88.71875 -86.886719 88.1875 -86.535156 87.640625 -86.09375 C 86.117188 -84.859375 84.980469 -83.351562 84.230469 -81.566406 C 84.550781 -82.324219 84.699219 -83.015625 84.683594 -83.644531 L 114.566406 -84.535156 Z M 144.375 -86.859375 L 144.429688 -86.144531 L 144.453125 -85.425781 C 144.730469 -76.117188 143.027344 -67.097656 139.34375 -58.363281 C 136.21875 -50.941406 131.539062 -44.707031 125.308594 -39.652344 C 119.78125 -35.167969 113.355469 -31.886719 106.03125 -29.804688 C 96.535156 -27.035156 87.628906 -25.5 79.304688 -25.195312 C 72.25 -24.855469 64.992188 -25.429688 57.53125 -26.921875 C 50.066406 -28.507812 43.199219 -30.894531 36.925781 -34.089844 L 35.367188 -34.882812 L 33.914062 -35.855469 C 30.527344 -38.113281 27.664062 -40.925781 25.332031 -44.296875 C 23.542969 -46.878906 22.144531 -49.6875 21.132812 -52.722656 L 49.496094 -62.179688 L 22.753906 -48.808594 C 21.246094 -51.824219 20.21875 -55.117188 19.667969 -58.6875 C 19.4375 -60.183594 19.28125 -61.8125 19.191406 -63.578125 C 19.078125 -65.851562 19.070312 -68.644531 19.167969 -71.957031 C 19.335938 -77.710938 19.742188 -83.757812 20.386719 -90.101562 C 20.972656 -96.636719 21.710938 -102.574219 22.605469 -107.921875 C 23.15625 -111.546875 23.78125 -114.636719 24.488281 -117.191406 C 26.414062 -124.160156 29.855469 -129.894531 34.816406 -134.398438 C 38.222656 -137.378906 42.019531 -139.722656 46.210938 -141.429688 C 50.105469 -143.011719 54.203125 -143.988281 58.511719 -144.355469 L 59.289062 -144.421875 L 60.070312 -144.449219 C 64.085938 -144.582031 68.027344 -144.363281 71.894531 -143.789062 C 84.738281 -142.183594 97.164062 -138.40625 109.164062 -132.457031 L 109.707031 -132.183594 L 110.242188 -131.894531 C 114.296875 -129.671875 117.992188 -127.402344 121.320312 -125.082031 L 121.902344 -124.675781 L 122.464844 -124.242188 C 128.410156 -119.660156 133.175781 -114.597656 136.765625 -109.042969 C 141.222656 -102.136719 143.761719 -94.742188 144.375 -86.859375 Z M 144.375 -86.859375 "/></g></g></g></g><g fill="#ffeea2" fill-opacity="1"><g transform="translate(31.352964, 233.334687)"><g><path d="M 2.453125 -141.03125 L 3 -142.046875 L 4.671875 -145.046875 L 6.234375 -147.484375 L 6.34375 -147.59375 L 8.5625 -150.265625 L 8.671875 -150.5 L 9.78125 -151.609375 L 12.015625 -153.71875 L 17.234375 -157.609375 L 17.359375 -157.71875 L 20.46875 -159.609375 L 26.46875 -162.84375 L 26.6875 -162.84375 L 32.921875 -165.625 L 43.265625 -169.296875 L 56.953125 -172.515625 L 62.625 -173.296875 L 70.734375 -173.84375 L 76.421875 -173.84375 L 83.640625 -173.296875 L 96.4375 -171.0625 L 101.109375 -169.734375 L 113.34375 -164.84375 L 120.125 -161.171875 L 132.703125 -152.15625 L 132.8125 -152.15625 L 141.15625 -143.375 L 148.046875 -132.03125 L 150.15625 -126.140625 L 150.15625 -125.796875 L 151.71875 -113.234375 L 151.609375 -112.890625 L 151.609375 -111.453125 L 151.5 -111.125 L 151.5 -110.34375 L 151.375 -110 L 151.375 -109.671875 L 151.265625 -109.34375 L 150.046875 -103.546875 L 150.046875 -103.21875 L 149.828125 -102.78125 L 149.828125 -102.546875 L 149.15625 -101.109375 L 149.15625 -100.890625 L 148.046875 -98.65625 L 145.828125 -95.546875 L 145.59375 -95.4375 L 145.484375 -95.21875 L 144.375 -94.09375 L 143.046875 -92.765625 L 142.8125 -92.65625 L 142.484375 -92.3125 L 137.25 -88.53125 L 137.03125 -88.3125 L 136.359375 -87.984375 L 136.140625 -87.765625 L 135.921875 -87.640625 L 135.703125 -87.421875 L 130.8125 -84.421875 L 130.6875 -84.421875 L 130.46875 -84.203125 L 131.140625 -83.421875 L 131.140625 -83.3125 L 131.6875 -82.75 L 133.359375 -80.53125 L 133.703125 -79.96875 L 134.703125 -78.640625 L 135.03125 -78.078125 L 135.359375 -77.640625 L 135.59375 -77.1875 L 135.921875 -76.640625 L 136.140625 -76.1875 L 136.484375 -75.640625 L 136.703125 -75.1875 L 136.921875 -74.640625 L 137.25 -74.078125 L 138.140625 -71.96875 L 138.375 -71.515625 L 138.59375 -70.96875 L 138.703125 -70.40625 L 139.140625 -69.296875 L 139.265625 -68.734375 L 139.484375 -68.1875 L 139.8125 -66.515625 L 139.921875 -66.40625 L 140.484375 -62.734375 L 140.59375 -62.28125 L 140.59375 -61.515625 L 140.703125 -61.0625 L 140.703125 -58.953125 L 140.8125 -58.625 L 140.8125 -58.171875 L 140.703125 -57.734375 L 140.703125 -55.71875 L 140.59375 -55.28125 L 139.703125 -49.71875 L 139.703125 -49.28125 L 139.59375 -48.9375 L 139.484375 -48.5 L 139.375 -48.15625 L 137.03125 -41.703125 L 136.921875 -41.375 L 134.921875 -37.375 L 134.03125 -36.03125 L 133.921875 -35.703125 L 131.6875 -32.25 L 131.359375 -31.921875 L 130.921875 -31.25 L 130.6875 -31.03125 L 130.25 -30.359375 L 129.921875 -30.03125 L 129.25 -29.03125 L 128.6875 -28.46875 L 128.46875 -28.140625 L 128.140625 -27.8125 L 123.234375 -22.46875 L 122.90625 -22.25 L 118.015625 -17.90625 L 117.5625 -17.46875 L 117.125 -17.125 L 116.796875 -16.796875 L 115.90625 -16.125 L 115.453125 -15.90625 L 115.015625 -15.453125 L 114.5625 -15.234375 L 113.234375 -14.234375 L 112.34375 -13.6875 L 112 -13.34375 L 111.453125 -13.015625 L 103.78125 -8.5625 L 103.21875 -8.34375 L 101.890625 -7.671875 L 101.328125 -7.453125 L 100.4375 -7 L 99.890625 -6.78125 L 99 -6.34375 L 92.09375 -3.78125 L 91.546875 -3.671875 L 91.09375 -3.453125 L 90.546875 -3.34375 L 85.984375 -2.109375 L 85.53125 -2 L 76.640625 -0.4375 L 76.1875 -0.4375 L 72.40625 -0.109375 L 71.96875 0 L 60.28125 0 L 59.171875 -0.109375 L 58.0625 -0.109375 L 52.609375 -0.671875 L 51.609375 -0.890625 L 50.5 -1 L 49.390625 -1.21875 L 48.390625 -1.328125 L 46.15625 -1.78125 L 45.15625 -2 L 39.9375 -3.21875 L 37.921875 -3.890625 L 33.25 -5.5625 L 33.140625 -5.5625 L 32.8125 -5.78125 L 28.921875 -7.671875 L 28.359375 -7.890625 L 23.03125 -11.671875 L 22.578125 -12.125 L 19.359375 -15.578125 L 19.015625 -16.125 L 16.125 -20.796875 L 16.125 -21.015625 L 15.34375 -22.796875 L 15.125 -23.25 L 15.125 -23.46875 L 14.125 -26.921875 L 14.125 -27.578125 L 14.015625 -27.8125 L 14.015625 -28.703125 L 13.90625 -28.921875 L 13.90625 -30.703125 L 14.015625 -31.03125 L 14.578125 -34.265625 L 15.015625 -35.140625 L 15.015625 -35.375 L 15.453125 -36.265625 L 17.234375 -38.59375 L 19.25 -40.484375 L 22.25 -42.828125 L 27.921875 -46.265625 L 29.359375 -46.828125 L 30.703125 -47.265625 L 32.03125 -47.609375 L 34.703125 -48.046875 L 35.921875 -48.046875 L 38.375 -47.828125 L 40.703125 -47.15625 L 43.609375 -45.609375 L 44.484375 -44.9375 L 47.265625 -41.828125 L 47.828125 -41.046875 L 49.15625 -38.375 L 49.5 -37.484375 L 50.28125 -34.8125 L 50.390625 -34.703125 L 50.5 -34.484375 L 51.71875 -33.8125 L 53.390625 -33.484375 L 54.171875 -33.375 L 54.828125 -33.375 L 55.609375 -33.25 L 58.28125 -33.25 L 60.0625 -33.484375 L 61.0625 -33.484375 L 74.1875 -35.140625 L 75.53125 -35.484375 L 75.96875 -35.484375 L 78.640625 -36.15625 L 81.078125 -36.8125 L 85.09375 -38.265625 L 85.75 -38.484375 L 90.984375 -41.15625 L 92.875 -42.375 L 93.984375 -43.265625 L 94.65625 -43.609375 L 95.765625 -44.484375 L 96.21875 -45.046875 L 97.328125 -45.9375 L 100.4375 -49.609375 L 101.4375 -51.28125 L 101.78125 -51.9375 L 102.109375 -52.5 L 103.109375 -55.171875 L 103.78125 -58.5 L 103.78125 -60.171875 L 103.4375 -62.515625 L 103 -64.0625 L 102.78125 -64.734375 L 102.109375 -66.296875 L 100.765625 -68.40625 L 99.109375 -70.40625 L 97.765625 -71.75 L 97.109375 -72.296875 L 96.4375 -72.96875 L 94.875 -74.078125 L 91.65625 -75.859375 L 84.984375 -78.421875 L 82.640625 -79.078125 L 82.3125 -79.078125 L 76.640625 -79.96875 L 72.625 -79.96875 L 66.953125 -79.640625 L 66.1875 -79.859375 L 65.515625 -80.078125 L 64.734375 -80.3125 L 64.171875 -80.640625 L 63.515625 -80.96875 L 61.84375 -82.3125 L 61.390625 -82.75 L 59.28125 -85.53125 L 58.28125 -88.203125 L 58.171875 -88.984375 L 58.171875 -89.875 L 58.28125 -90.765625 L 58.625 -91.65625 L 58.953125 -92.4375 L 59.5 -93.328125 L 60.171875 -93.984375 L 61.0625 -94.65625 L 61.84375 -95.09375 L 62.84375 -95.546875 L 64.625 -95.984375 L 67.625 -96.4375 L 69.078125 -96.765625 L 74.75 -97.875 L 78.53125 -99 L 80.859375 -99.890625 L 86.421875 -102.78125 L 88.09375 -103.890625 L 88.3125 -104.109375 L 88.65625 -104.328125 L 88.984375 -104.4375 L 89.546875 -105 L 93.765625 -109 L 94.65625 -109.890625 L 94.875 -110.234375 L 96.875 -113.5625 L 97.4375 -114.671875 L 98.109375 -116.453125 L 98.328125 -117.34375 L 98.546875 -118.125 L 98.65625 -119.015625 L 98.765625 -119.796875 L 98.765625 -121.46875 L 98.4375 -123.796875 L 97.765625 -126.140625 L 95.765625 -129.6875 L 94.09375 -131.6875 L 92.765625 -133.03125 L 92.09375 -133.59375 L 91.4375 -134.25 L 89.875 -135.359375 L 86.640625 -137.25 L 80.421875 -139.703125 L 79.96875 -139.8125 L 76.078125 -140.703125 L 75.640625 -140.703125 L 72.40625 -141.265625 L 69.078125 -141.484375 L 65.734375 -141.484375 L 63.171875 -141.375 L 55.71875 -140.265625 L 51.71875 -139.140625 L 49.390625 -138.375 L 47.390625 -137.484375 L 43.484375 -135.59375 L 38.8125 -132.703125 L 38.59375 -132.46875 L 37.265625 -131.578125 L 33.703125 -128.578125 L 33.03125 -126.46875 L 32.8125 -125.46875 L 32.484375 -124.46875 L 32.25 -123.46875 L 31.921875 -122.578125 L 31.703125 -121.6875 L 31.359375 -120.796875 L 31.03125 -120.015625 L 30.140625 -118.453125 L 29.25 -117.125 L 28.703125 -116.453125 L 27.359375 -115.34375 L 26.6875 -114.90625 L 24.359375 -113.78125 L 23.578125 -113.5625 L 22.015625 -113.34375 L 17.015625 -113.234375 L 11.453125 -113.90625 L 8.890625 -114.671875 L 7.125 -115.5625 L 5.109375 -117.015625 L 3.78125 -118.34375 L 2.5625 -119.90625 L 1.21875 -122.46875 L 0.5625 -124.578125 L 0.5625 -124.796875 L 0 -127.90625 L 0 -130.921875 L 0.109375 -131.140625 L 0.328125 -133.140625 L 0.671875 -135.484375 L 1.21875 -137.375 L 1.21875 -137.59375 L 2.453125 -140.703125 Z M 2.453125 -141.03125 "/></g></g></g><g fill="#ffeea2" fill-opacity="1"><g transform="translate(188.129295, 233.334687)"><g><path d="M 28.140625 -28.03125 C 24.140625 -32.925781 20.429688 -38.078125 17.015625 -43.484375 C 13.609375 -48.898438 10.828125 -54.613281 8.671875 -60.625 C 7.554688 -63.4375 6.664062 -66.03125 6 -68.40625 C 1.113281 -84.425781 0.113281 -100.40625 3 -116.34375 C 5.664062 -130.363281 11.335938 -142.15625 20.015625 -151.71875 C 24.242188 -156.382812 29.84375 -160.425781 36.8125 -163.84375 C 43.707031 -167.25 50.457031 -169.140625 57.0625 -169.515625 C 61.289062 -169.660156 65.59375 -169.253906 69.96875 -168.296875 C 74.269531 -167.328125 78.421875 -166.175781 82.421875 -164.84375 C 88.578125 -162.613281 94.617188 -159.867188 100.546875 -156.609375 C 106.484375 -153.347656 111.859375 -149.492188 116.671875 -145.046875 C 122.015625 -140.078125 126.835938 -134.21875 131.140625 -127.46875 C 135.367188 -120.644531 138.890625 -114.007812 141.703125 -107.5625 C 145.710938 -97.914062 148.234375 -87.867188 149.265625 -77.421875 C 150.304688 -66.890625 149.007812 -56.617188 145.375 -46.609375 C 141.8125 -36.742188 136.140625 -27.992188 128.359375 -20.359375 C 122.578125 -14.566406 116.085938 -9.742188 108.890625 -5.890625 C 101.703125 -1.960938 93.914062 0 85.53125 0 C 77.15625 0 68.59375 -1.742188 59.84375 -5.234375 C 46.789062 -10.421875 36.222656 -18.019531 28.140625 -28.03125 Z M 67.953125 -56.5 C 74.410156 -53.539062 82.867188 -54.023438 93.328125 -57.953125 C 103.703125 -61.804688 108.78125 -68.179688 108.5625 -77.078125 C 108.332031 -82.859375 106.328125 -87.195312 102.546875 -90.09375 C 98.765625 -92.988281 94.242188 -94.804688 88.984375 -95.546875 C 82.898438 -96.285156 77.113281 -95.25 71.625 -92.4375 C 66.144531 -89.613281 61.992188 -86.050781 59.171875 -81.75 C 56.359375 -77.445312 55.429688 -72.925781 56.390625 -68.1875 C 57.285156 -63.4375 61.140625 -59.539062 67.953125 -56.5 Z M 67.953125 -56.5 "/></g></g></g><g fill="#ffeea2" fill-opacity="1"><g transform="translate(343.904551, 233.334687)"><g/></g></g><g fill="#ffeea2" fill-opacity="1"><g transform="translate(397.903878, 233.334687)"><g><path d="M 132.921875 -166.734375 C 140.035156 -165.097656 145.671875 -163.054688 149.828125 -160.609375 C 154.722656 -157.648438 157.171875 -154.128906 157.171875 -150.046875 C 157.171875 -145.296875 156.757812 -140.550781 155.9375 -135.8125 C 155.125 -131.0625 153.53125 -126.613281 151.15625 -122.46875 C 147.75 -116.457031 144.453125 -113.453125 141.265625 -113.453125 C 138.367188 -113.453125 135.550781 -113.9375 132.8125 -114.90625 C 129.988281 -115.863281 127.242188 -116.789062 124.578125 -117.6875 C 119.015625 -119.539062 111.453125 -120.316406 101.890625 -120.015625 C 92.316406 -119.640625 83.34375 -117.5625 74.96875 -113.78125 C 66.507812 -110 60.019531 -104.144531 55.5 -96.21875 C 50.90625 -88.28125 50.90625 -77.675781 55.5 -64.40625 C 58.84375 -54.6875 65.664062 -47.710938 75.96875 -43.484375 C 86.28125 -39.191406 96.773438 -37.5625 107.453125 -38.59375 C 115.609375 -39.40625 124.171875 -42.554688 133.140625 -48.046875 C 142.109375 -53.535156 151.082031 -51.609375 160.0625 -42.265625 C 165.25 -36.773438 165.175781 -31.328125 159.84375 -25.921875 C 154.425781 -20.503906 149.710938 -16.347656 145.703125 -13.453125 C 142.890625 -11.453125 140.113281 -9.75 137.375 -8.34375 C 129.800781 -4.332031 122.195312 -1.992188 114.5625 -1.328125 C 106.925781 -0.660156 99.328125 -0.660156 91.765625 -1.328125 C 81.679688 -2.296875 72.003906 -4.632812 62.734375 -8.34375 C 55.390625 -11.238281 48.378906 -15.09375 41.703125 -19.90625 C 34.960938 -24.65625 29.035156 -30.515625 23.921875 -37.484375 C 14.421875 -50.234375 8.078125 -64.429688 4.890625 -80.078125 C -0.222656 -104.253906 5.632812 -124.425781 22.46875 -140.59375 C 30.914062 -148.75 40.484375 -154.867188 51.171875 -158.953125 C 61.773438 -163.023438 72.039062 -165.878906 81.96875 -167.515625 C 90.28125 -168.847656 98.773438 -169.515625 107.453125 -169.515625 C 116.128906 -169.515625 124.617188 -168.585938 132.921875 -166.734375 Z M 132.921875 -166.734375 "/></g></g></g><g fill="#ffeea2" fill-opacity="1"><g transform="translate(567.249242, 233.334687)"><g><path d="M 98.328125 -41.828125 C 92.765625 -39.816406 85.085938 -38.109375 75.296875 -36.703125 C 65.441406 -35.296875 57.175781 -34.773438 50.5 -35.140625 C 48.789062 -27.066406 47.492188 -19.765625 46.609375 -13.234375 C 45.640625 -6.929688 43.488281 -3.222656 40.15625 -2.109375 C 36.738281 -0.992188 32.546875 -0.882812 27.578125 -1.78125 C 24.171875 -2.375 20.425781 -3.445312 16.34375 -5 C 12.195312 -6.488281 8.75 -8.34375 6 -10.5625 C 3.707031 -12.488281 2.148438 -15.160156 1.328125 -18.578125 C 0.660156 -21.171875 0.289062 -23.914062 0.21875 -26.8125 C 0.0703125 -29.625 0.0703125 -32.363281 0.21875 -35.03125 C 0.59375 -42.375 2.078125 -51.71875 4.671875 -63.0625 C 7.265625 -74.40625 10.488281 -86.050781 14.34375 -98 C 18.125 -109.9375 22.316406 -121.390625 26.921875 -132.359375 C 31.441406 -143.335938 35.851562 -152.160156 40.15625 -158.828125 C 42.300781 -162.242188 44.929688 -165.691406 48.046875 -169.171875 C 51.160156 -172.585938 54.832031 -174.738281 59.0625 -175.625 C 63.289062 -176.519531 68.890625 -176.410156 75.859375 -175.296875 C 82.828125 -174.179688 88.054688 -172.179688 91.546875 -169.296875 C 97.617188 -166.023438 103.957031 -158.679688 110.5625 -147.265625 C 117.082031 -135.847656 123.125 -123.28125 128.6875 -109.5625 C 134.25 -95.769531 139.035156 -82.3125 143.046875 -69.1875 C 146.972656 -56.0625 149.378906 -46.234375 150.265625 -39.703125 C 151.160156 -33.179688 151.3125 -27.695312 150.71875 -23.25 C 150.050781 -19.539062 148.675781 -16.757812 146.59375 -14.90625 C 144 -12.382812 140.738281 -10.195312 136.8125 -8.34375 C 132.882812 -6.488281 129.25 -5.117188 125.90625 -4.234375 C 121.007812 -2.890625 116.820312 -2.664062 113.34375 -3.5625 C 109.851562 -4.375 107.441406 -7.859375 106.109375 -14.015625 C 104.109375 -22.242188 101.515625 -31.515625 98.328125 -41.828125 Z M 55.84375 -56.84375 C 67.1875 -56.6875 79.050781 -58.09375 91.4375 -61.0625 C 85.71875 -76.039062 79.265625 -90.316406 72.078125 -103.890625 C 65.921875 -89.429688 60.507812 -73.75 55.84375 -56.84375 Z M 55.84375 -56.84375 "/></g></g></g><g fill="#ffeea2" fill-opacity="1"><g transform="translate(723.914328, 233.334687)"><g><path d="M 2 -129.796875 C 2.445312 -135.585938 3.191406 -139.445312 4.234375 -141.375 C 5.191406 -143.300781 8.710938 -146.046875 14.796875 -149.609375 C 31.035156 -158.953125 50.351562 -164.253906 72.75 -165.515625 C 95.0625 -166.691406 113.859375 -160.570312 129.140625 -147.15625 C 136.179688 -140.925781 141.78125 -132.914062 145.9375 -123.125 C 150.007812 -113.269531 149.820312 -103.851562 145.375 -94.875 C 143.519531 -91.09375 141 -88.015625 137.8125 -85.640625 C 134.625 -83.191406 131.804688 -80.375 129.359375 -77.1875 C 127.210938 -74.375 126.25 -71.335938 126.46875 -68.078125 C 126.539062 -65.703125 126.984375 -63.472656 127.796875 -61.390625 C 128.460938 -59.390625 129.351562 -57.5 130.46875 -55.71875 C 131.582031 -53.789062 132.878906 -52.085938 134.359375 -50.609375 C 135.992188 -48.898438 137.628906 -47.414062 139.265625 -46.15625 C 140.597656 -45.039062 142.445312 -43.707031 144.8125 -42.15625 C 146.082031 -41.34375 148.050781 -40.117188 150.71875 -38.484375 C 151.675781 -37.816406 152.675781 -37.222656 153.71875 -36.703125 C 154.6875 -36.109375 155.6875 -35.515625 156.71875 -34.921875 C 159.382812 -33.441406 161.347656 -32.332031 162.609375 -31.59375 C 166.472656 -29.21875 167.101562 -26.175781 164.5 -22.46875 C 162.351562 -19.351562 159.390625 -16.09375 155.609375 -12.6875 C 151.828125 -9.195312 148.304688 -6.453125 145.046875 -4.453125 C 140.816406 -1.773438 136.070312 -1.515625 130.8125 -3.671875 C 122.570312 -6.929688 114.15625 -13.492188 105.5625 -23.359375 C 96.882812 -33.148438 89.988281 -40.785156 84.875 -46.265625 C 81.90625 -49.160156 78.898438 -51.164062 75.859375 -52.28125 C 72.742188 -53.394531 69.367188 -52.28125 65.734375 -48.9375 C 61.878906 -45.300781 60.359375 -38.738281 61.171875 -29.25 C 61.910156 -19.757812 62.726562 -12.679688 63.625 -8.015625 C 64.070312 -5.117188 63.738281 -3.265625 62.625 -2.453125 C 61.4375 -1.554688 59.617188 -0.960938 57.171875 -0.671875 C 54.347656 -0.296875 51.195312 -0.109375 47.71875 -0.109375 C 44.15625 -0.0351562 40.96875 -0.109375 38.15625 -0.328125 C 36.144531 -0.484375 34.140625 -0.78125 32.140625 -1.21875 C 30.066406 -1.59375 28.328125 -2.597656 26.921875 -4.234375 C 23.953125 -7.335938 20.6875 -15.007812 17.125 -27.25 C 13.488281 -39.414062 11.191406 -47.796875 10.234375 -52.390625 C 10.015625 -53.203125 9.828125 -54.054688 9.671875 -54.953125 C 9.453125 -55.765625 9.269531 -56.613281 9.125 -57.5 C 6.75 -68.476562 4.707031 -80.34375 3 -93.09375 C 1.289062 -105.78125 0.957031 -118.015625 2 -129.796875 Z M 89.09375 -127.578125 C 80.789062 -129.953125 72.148438 -129.546875 63.171875 -126.359375 C 58.878906 -124.722656 55.914062 -121.832031 54.28125 -117.6875 C 53.382812 -115.238281 53.273438 -111.414062 53.953125 -106.21875 C 54.617188 -101.03125 55.765625 -97.507812 57.390625 -95.65625 C 60.804688 -91.726562 65.664062 -90.023438 71.96875 -90.546875 C 75.007812 -90.835938 78.160156 -91.316406 81.421875 -91.984375 C 84.609375 -92.648438 87.609375 -93.648438 90.421875 -94.984375 C 95.171875 -97.210938 98.582031 -100.957031 100.65625 -106.21875 C 102.738281 -111.414062 102.035156 -116.347656 98.546875 -121.015625 C 95.953125 -124.273438 92.800781 -126.460938 89.09375 -127.578125 Z M 89.09375 -127.578125 "/></g></g></g><g clip-path="url(#72e0c1b938)"><g fill="#ffeea2" fill-opacity="1"><g transform="translate(898.153892, 233.334687)"><g><path d="M 12.6875 -160.5 C 14.457031 -166.207031 17.789062 -169.25 22.6875 -169.625 C 37.21875 -170.363281 51.71875 -170.03125 66.1875 -168.625 C 80.570312 -167.21875 94.957031 -162.734375 109.34375 -155.171875 C 125.582031 -146.566406 138.519531 -135.550781 148.15625 -122.125 C 156.457031 -110.488281 161.722656 -97.734375 163.953125 -83.859375 C 165.429688 -74.003906 163.722656 -64.289062 158.828125 -54.71875 C 153.859375 -45.082031 148.445312 -37.078125 142.59375 -30.703125 C 135.84375 -23.359375 128.242188 -17.535156 119.796875 -13.234375 C 111.265625 -8.785156 101.882812 -5.742188 91.65625 -4.109375 C 78.820312 -2.035156 65.660156 -1.664062 52.171875 -3 C 38.671875 -4.257812 25.25 -5.78125 11.90625 -7.5625 C 7.675781 -8.007812 4.894531 -9.234375 3.5625 -11.234375 C 2.226562 -13.234375 1.523438 -15.679688 1.453125 -18.578125 C 0.703125 -38.742188 0.992188 -62.953125 2.328125 -91.203125 C 3.671875 -119.378906 7.125 -142.476562 12.6875 -160.5 Z M 114.5625 -84.53125 C 114.125 -90.238281 110.675781 -95.578125 104.21875 -100.546875 C 101.769531 -102.253906 98.988281 -103.960938 95.875 -105.671875 C 86.90625 -110.117188 77.675781 -112.9375 68.1875 -114.125 C 65.664062 -114.488281 63.289062 -114.632812 61.0625 -114.5625 C 58.46875 -114.34375 56.28125 -113.453125 54.5 -111.890625 C 53.6875 -111.148438 52.910156 -108.332031 52.171875 -103.4375 C 51.347656 -98.550781 50.679688 -93.210938 50.171875 -87.421875 C 49.578125 -81.566406 49.203125 -76.117188 49.046875 -71.078125 C 48.898438 -66.035156 49.050781 -63.066406 49.5 -62.171875 C 49.71875 -61.503906 50.050781 -61.023438 50.5 -60.734375 C 54.425781 -58.734375 58.835938 -57.210938 63.734375 -56.171875 C 68.554688 -55.203125 73.265625 -54.832031 77.859375 -55.0625 C 83.941406 -55.28125 90.539062 -56.425781 97.65625 -58.5 C 104.695312 -60.507812 109.40625 -64.332031 111.78125 -69.96875 C 113.78125 -74.707031 114.707031 -79.5625 114.5625 -84.53125 Z M 114.5625 -84.53125 "/></g></g></g></g></g></g></g></svg>